<svg width="213" height="204" viewBox="0 0 213 204" fill="none" xmlns="http://www.w3.org/2000/svg">
<g clip-path="url(#clip0)">
<path d="M129.487 48.7231H128.378V18.2128C128.378 13.5294 126.526 9.0379 123.228 5.72628C119.93 2.41466 115.458 0.554205 110.794 0.554199H46.4264C44.1173 0.554193 41.8307 1.01094 39.6973 1.89836C37.5639 2.78578 35.6254 4.0865 33.9926 5.72624C32.3597 7.36598 31.0645 9.31264 30.1808 11.4551C29.2971 13.5975 28.8423 15.8938 28.8423 18.2127V185.595C28.8423 187.914 29.2971 190.21 30.1808 192.352C31.0645 194.495 32.3597 196.442 33.9925 198.081C35.6254 199.721 37.5638 201.022 39.6972 201.909C41.8306 202.797 44.1172 203.253 46.4264 203.253H110.794C115.458 203.253 119.93 201.393 123.228 198.081C126.526 194.77 128.378 190.278 128.378 185.595V70.4409H129.487L129.487 48.7231Z" fill="#E6E6E6"/>
<path d="M111.503 5.14844H103.101C103.488 6.09976 103.635 7.1319 103.531 8.15395C103.426 9.17599 103.073 10.1566 102.502 11.0093C101.932 11.862 101.161 12.5607 100.258 13.0439C99.3553 13.527 98.348 13.7798 97.3249 13.7799H60.4494C59.4263 13.7798 58.4189 13.527 57.516 13.0439C56.6131 12.5608 55.8424 11.862 55.2717 11.0093C54.7011 10.1566 54.348 9.17599 54.2436 8.15395C54.1392 7.1319 54.2867 6.09976 54.6731 5.14844H46.8255C43.3428 5.14844 40.0027 6.53779 37.54 9.01087C35.0774 11.4839 33.6939 14.8382 33.6938 18.3356V185.472C33.6938 187.204 34.0335 188.919 34.6934 190.519C35.3534 192.119 36.3206 193.572 37.54 194.797C38.7594 196.021 40.207 196.993 41.8002 197.656C43.3934 198.318 45.101 198.659 46.8255 198.659H111.503C113.228 198.659 114.935 198.318 116.529 197.656C118.122 196.993 119.569 196.021 120.789 194.797C122.008 193.572 122.975 192.119 123.635 190.519C124.295 188.919 124.635 187.204 124.635 185.472V18.3356C124.635 16.6039 124.295 14.889 123.635 13.2891C122.975 11.6892 122.008 10.2354 120.789 9.01087C119.569 7.78632 118.122 6.81497 116.529 6.15225C114.935 5.48953 113.228 5.14844 111.503 5.14844V5.14844Z" fill="white"/>
<path d="M212.723 203.555H0.277344C0.203788 203.555 0.133244 203.525 0.0812319 203.473C0.0292199 203.421 0 203.35 0 203.276C0 203.202 0.0292199 203.131 0.0812319 203.079C0.133244 203.027 0.203788 202.998 0.277344 202.998H212.723C212.796 202.998 212.867 203.027 212.919 203.079C212.971 203.131 213 203.202 213 203.276C213 203.35 212.971 203.421 212.919 203.473C212.867 203.525 212.796 203.555 212.723 203.555Z" fill="#3F3D56"/>
<path d="M118.376 51.3846H39.9226C39.5374 51.3842 39.1681 51.2303 38.8958 50.9568C38.6234 50.6833 38.4702 50.3125 38.4697 49.9256V30.3823C38.4702 29.9955 38.6234 29.6247 38.8958 29.3512C39.1681 29.0777 39.5374 28.9238 39.9226 28.9233H118.376C118.761 28.9238 119.13 29.0777 119.403 29.3512C119.675 29.6247 119.828 29.9955 119.829 30.3823V49.9257C119.828 50.3125 119.675 50.6833 119.403 50.9568C119.13 51.2303 118.761 51.3842 118.376 51.3846ZM39.9226 29.5069C39.6915 29.5072 39.4699 29.5995 39.3064 29.7636C39.143 29.9277 39.0511 30.1502 39.0509 30.3823V49.9257C39.0511 50.1577 39.143 50.3803 39.3064 50.5444C39.4699 50.7085 39.6915 50.8008 39.9226 50.8011H118.376C118.607 50.8008 118.829 50.7085 118.992 50.5444C119.155 50.3803 119.247 50.1578 119.248 49.9257V30.3823C119.247 30.1502 119.155 29.9277 118.992 29.7636C118.829 29.5995 118.607 29.5072 118.376 29.5069H39.9226Z" fill="#3F3D56"/>
<path d="M118.376 128.711H39.9226C39.5374 128.71 39.1681 128.557 38.8958 128.283C38.6234 128.01 38.4702 127.639 38.4697 127.252V91.0762C38.4702 90.6894 38.6234 90.3185 38.8958 90.045C39.1681 89.7715 39.5374 89.6176 39.9226 89.6172H118.376C118.761 89.6176 119.13 89.7715 119.403 90.045C119.675 90.3185 119.828 90.6894 119.829 91.0762V127.252C119.828 127.639 119.675 128.01 119.403 128.283C119.13 128.557 118.761 128.71 118.376 128.711ZM39.9226 90.2008C39.6914 90.201 39.4699 90.2933 39.3064 90.4575C39.143 90.6216 39.0511 90.8441 39.0509 91.0762V127.252C39.0511 127.484 39.143 127.707 39.3064 127.871C39.4699 128.035 39.6914 128.127 39.9226 128.127H118.376C118.607 128.127 118.829 128.035 118.992 127.871C119.155 127.707 119.247 127.484 119.248 127.252V91.0762C119.247 90.8441 119.155 90.6216 118.992 90.4574C118.829 90.2933 118.607 90.201 118.376 90.2008L39.9226 90.2008Z" fill="#3F3D56"/>
<path d="M117.795 81.7318H82.9265C82.5413 81.7313 82.172 81.5775 81.8997 81.304C81.6273 81.0304 81.4741 80.6596 81.4736 80.2728V60.7295C81.4741 60.3427 81.6273 59.9719 81.8997 59.6983C82.172 59.4248 82.5413 59.271 82.9265 59.2705H117.795C118.18 59.271 118.549 59.4248 118.821 59.6983C119.094 59.9719 119.247 60.3427 119.248 60.7295V80.2728C119.247 80.6596 119.094 81.0304 118.821 81.304C118.549 81.5775 118.18 81.7313 117.795 81.7318ZM82.9265 59.8541C82.6953 59.8543 82.4738 59.9467 82.3104 60.1108C82.1469 60.2749 82.055 60.4974 82.0548 60.7295V80.2728C82.055 80.5049 82.1469 80.7274 82.3104 80.8915C82.4738 81.0556 82.6953 81.1479 82.9265 81.1482H117.795C118.026 81.148 118.247 81.0556 118.411 80.8915C118.574 80.7274 118.666 80.5049 118.666 80.2728V60.7295C118.666 60.4974 118.574 60.2749 118.411 60.1108C118.247 59.9466 118.026 59.8543 117.795 59.8541L82.9265 59.8541Z" fill="#E6E6E6"/>
<path d="M74.7908 175.982H39.9226C39.5374 175.982 39.1681 175.828 38.8958 175.554C38.6234 175.281 38.4702 174.91 38.4697 174.523V138.056C38.4702 137.669 38.6234 137.298 38.8958 137.025C39.1681 136.751 39.5374 136.597 39.9226 136.597H74.7908C75.176 136.597 75.5452 136.751 75.8176 137.025C76.09 137.298 76.2432 137.669 76.2436 138.056V174.523C76.2432 174.91 76.09 175.281 75.8176 175.554C75.5452 175.828 75.176 175.982 74.7908 175.982ZM39.9226 137.18C39.6914 137.181 39.4699 137.273 39.3064 137.437C39.143 137.601 39.0511 137.824 39.0509 138.056V174.523C39.0511 174.755 39.143 174.978 39.3064 175.142C39.4699 175.306 39.6914 175.398 39.9226 175.399H74.7908C75.0219 175.398 75.2435 175.306 75.4069 175.142C75.5703 174.978 75.6623 174.755 75.6625 174.523V138.056C75.6623 137.824 75.5703 137.601 75.4069 137.437C75.2435 137.273 75.0219 137.181 74.7908 137.18H39.9226Z" fill="#E6E6E6"/>
<path d="M117.795 175.982H82.9265C82.5413 175.982 82.172 175.828 81.8997 175.554C81.6273 175.281 81.4741 174.91 81.4736 174.523V138.056C81.4741 137.669 81.6273 137.298 81.8997 137.025C82.172 136.751 82.5413 136.597 82.9265 136.597H117.795C118.18 136.597 118.549 136.751 118.821 137.025C119.094 137.298 119.247 137.669 119.248 138.056V174.523C119.247 174.91 119.094 175.281 118.821 175.554C118.549 175.828 118.18 175.982 117.795 175.982ZM82.9265 137.18C82.6954 137.181 82.4738 137.273 82.3104 137.437C82.1469 137.601 82.055 137.824 82.0548 138.056V174.523C82.055 174.755 82.1469 174.978 82.3104 175.142C82.4738 175.306 82.6954 175.398 82.9265 175.399H117.795C118.026 175.398 118.247 175.306 118.411 175.142C118.574 174.978 118.666 174.755 118.666 174.523V138.056C118.666 137.824 118.574 137.601 118.411 137.437C118.247 137.273 118.026 137.181 117.795 137.18H82.9265Z" fill="#E6E6E6"/>
<path d="M51.5314 108.376C54.7998 108.376 57.4495 105.715 57.4495 102.432C57.4495 99.1501 54.7998 96.4893 51.5314 96.4893C48.2629 96.4893 45.6133 99.1501 45.6133 102.432C45.6133 105.715 48.2629 108.376 51.5314 108.376Z" fill="#6C63FF"/>
<path d="M65.1997 98.4702C64.9381 98.4702 64.6872 98.5746 64.5023 98.7603C64.3173 98.9461 64.2134 99.198 64.2134 99.4608C64.2134 99.7235 64.3173 99.9754 64.5023 100.161C64.6872 100.347 64.9381 100.451 65.1997 100.451H111.699C111.96 100.451 112.21 100.346 112.395 100.16C112.579 99.9747 112.683 99.7231 112.683 99.4608C112.683 99.1984 112.579 98.9469 112.395 98.7612C112.21 98.5755 111.96 98.4708 111.699 98.4702H65.1997Z" fill="#6C63FF"/>
<path d="M65.1999 104.414C65.0703 104.413 64.942 104.439 64.8222 104.488C64.7025 104.538 64.5936 104.61 64.5018 104.702C64.41 104.794 64.3371 104.903 64.2873 105.023C64.2375 105.143 64.2117 105.272 64.2114 105.402C64.2112 105.532 64.2364 105.661 64.2857 105.781C64.335 105.902 64.4075 106.011 64.4989 106.103C64.5903 106.195 64.6988 106.268 64.8184 106.318C64.938 106.368 65.0662 106.394 65.1957 106.395H85.2087C85.3383 106.395 85.4668 106.369 85.5866 106.32C85.7065 106.27 85.8154 106.197 85.9072 106.105C85.9989 106.013 86.0717 105.904 86.1214 105.784C86.1711 105.663 86.1967 105.534 86.1967 105.404C86.1967 105.274 86.1711 105.145 86.1214 105.025C86.0717 104.904 85.9989 104.795 85.9072 104.703C85.8154 104.611 85.7065 104.538 85.5866 104.488C85.4668 104.439 85.3383 104.413 85.2087 104.414H65.1999Z" fill="#6C63FF"/>
<path d="M46.9922 113.915C46.2419 113.915 45.6313 114.359 45.6313 114.906C45.6313 115.452 46.2419 115.896 46.9922 115.896H111.147C111.897 115.896 112.508 115.452 112.508 114.906C112.508 114.359 111.897 113.915 111.147 113.915H46.9922Z" fill="#CCCCCC"/>
<path d="M46.9922 119.858C46.2419 119.858 45.6313 120.302 45.6313 120.848C45.6313 121.395 46.2419 121.839 46.9922 121.839H111.147C111.897 121.839 112.508 121.395 112.508 120.848C112.508 120.302 111.897 119.858 111.147 119.858H46.9922Z" fill="#CCCCCC"/>
<path d="M52.1129 45.3472C55.3814 45.3472 58.031 42.6864 58.031 39.4041C58.031 36.1218 55.3814 33.4609 52.1129 33.4609C48.8444 33.4609 46.1948 36.1218 46.1948 39.4041C46.1948 42.6864 48.8444 45.3472 52.1129 45.3472Z" fill="#6C63FF"/>
<path d="M65.7804 35.4424C65.5192 35.443 65.2689 35.5476 65.0845 35.7333C64.9 35.919 64.7964 36.1706 64.7964 36.4329C64.7964 36.6952 64.9 36.9468 65.0845 37.1325C65.2689 37.3182 65.5192 37.4228 65.7804 37.4234H112.28C112.409 37.4238 112.538 37.3986 112.658 37.3491C112.778 37.2997 112.887 37.227 112.978 37.1352C113.07 37.0434 113.143 36.9343 113.193 36.8141C113.243 36.694 113.269 36.5652 113.269 36.435C113.269 36.3048 113.244 36.1759 113.195 36.0555C113.145 35.9352 113.073 35.8258 112.981 35.7336C112.89 35.6414 112.781 35.5682 112.662 35.5183C112.542 35.4683 112.413 35.4425 112.284 35.4424C112.282 35.4424 112.281 35.4424 112.28 35.4424H65.7804Z" fill="#6C63FF"/>
<path d="M65.7804 41.3853C65.5192 41.3859 65.2689 41.4905 65.0845 41.6762C64.9 41.8619 64.7964 42.1135 64.7964 42.3758C64.7964 42.6381 64.9 42.8897 65.0845 43.0753C65.2689 43.261 65.5192 43.3657 65.7804 43.3663H85.7892C85.9188 43.3667 86.0472 43.3415 86.1671 43.292C86.287 43.2425 86.396 43.1698 86.4879 43.078C86.5798 42.9862 86.6528 42.8771 86.7027 42.757C86.7526 42.6369 86.7784 42.508 86.7787 42.3779C86.7789 42.2477 86.7537 42.1188 86.7043 41.9984C86.6549 41.8781 86.5824 41.7687 86.4909 41.6765C86.3994 41.5843 86.2906 41.5111 86.1709 41.4611C86.0513 41.4112 85.9229 41.3854 85.7933 41.3853C85.7919 41.3853 85.7905 41.3853 85.7892 41.3853H65.7804Z" fill="#6C63FF"/>
<path d="M74.7597 81.7353H42.0503L49.7479 68.3459C49.8859 68.1059 50.0843 67.9067 50.3233 67.7681C50.5622 67.6295 50.8333 67.5566 51.1092 67.5566C51.3852 67.5566 51.6562 67.6295 51.8952 67.7681C52.1342 67.9067 52.3326 68.1059 52.4705 68.3459L55.7589 74.0656L61.3502 64.3403C61.5229 64.0398 61.7713 63.7903 62.0705 63.6169C62.3697 63.4434 62.7091 63.3521 63.0545 63.3521C63.4 63.3521 63.7394 63.4434 64.0386 63.6169C64.3378 63.7903 64.5862 64.0398 64.7589 64.3403L74.7597 81.7353ZM43.0568 81.1517H73.7532L64.2556 64.6321C64.1339 64.4203 63.9588 64.2445 63.748 64.1222C63.5372 64 63.298 63.9356 63.0546 63.9356C62.8111 63.9356 62.572 64 62.3612 64.1222C62.1503 64.2445 61.9753 64.4203 61.8536 64.6321L55.7589 75.2328L51.9672 68.6377C51.8803 68.4865 51.7552 68.3608 51.6046 68.2735C51.454 68.1862 51.2832 68.1402 51.1093 68.1402C50.9353 68.1402 50.7645 68.1862 50.6139 68.2735C50.4633 68.3608 50.3382 68.4865 50.2513 68.6377L43.0568 81.1517Z" fill="#E6E6E6"/>
<path d="M116.601 81.7353H83.8921L91.5897 68.3459C91.7277 68.1059 91.9261 67.9066 92.165 67.7681C92.404 67.6295 92.6751 67.5566 92.951 67.5566C93.227 67.5566 93.498 67.6295 93.737 67.7681C93.976 67.9066 94.1744 68.1059 94.3124 68.3459L97.6007 74.0656L103.192 64.3403C103.365 64.0398 103.613 63.7903 103.912 63.6168C104.211 63.4434 104.551 63.3521 104.896 63.3521C105.242 63.3521 105.581 63.4434 105.88 63.6168C106.18 63.7903 106.428 64.0398 106.601 64.3403L116.601 81.7353ZM84.8986 81.1517H115.595L106.097 64.6321C105.976 64.4203 105.801 64.2445 105.59 64.1222C105.379 64 105.14 63.9356 104.896 63.9356C104.653 63.9356 104.414 64 104.203 64.1222C103.992 64.2445 103.817 64.4203 103.695 64.6321L97.6007 75.2328L93.809 68.6377C93.722 68.4865 93.597 68.3608 93.4464 68.2735C93.2958 68.1862 93.1249 68.1402 92.951 68.1402C92.7771 68.1402 92.6063 68.1862 92.4557 68.2735C92.3051 68.3608 92.18 68.4865 92.0931 68.6377L84.8986 81.1517Z" fill="#E6E6E6"/>
<path d="M74.7908 81.7318H39.9226C39.5374 81.7313 39.1681 81.5775 38.8958 81.304C38.6234 81.0304 38.4702 80.6596 38.4697 80.2728V60.7295C38.4702 60.3427 38.6234 59.9719 38.8958 59.6983C39.1681 59.4248 39.5374 59.271 39.9226 59.2705H74.7908C75.176 59.271 75.5452 59.4248 75.8176 59.6983C76.09 59.9719 76.2432 60.3427 76.2436 60.7295V80.2728C76.2432 80.6596 76.09 81.0304 75.8176 81.304C75.5452 81.5775 75.176 81.7313 74.7908 81.7318ZM39.9226 59.8541C39.6914 59.8543 39.4699 59.9467 39.3064 60.1108C39.143 60.2749 39.0511 60.4974 39.0508 60.7295V80.2728C39.0511 80.5049 39.143 80.7274 39.3064 80.8915C39.4699 81.0556 39.6914 81.1479 39.9226 81.1482H74.7908C75.0219 81.1479 75.2435 81.0556 75.4069 80.8915C75.5703 80.7274 75.6622 80.5049 75.6625 80.2728V60.7295C75.6622 60.4974 75.5703 60.2749 75.4069 60.1108C75.2435 59.9466 75.0219 59.8543 74.7908 59.8541L39.9226 59.8541Z" fill="#E6E6E6"/>
<path d="M47.3528 144.117C47.2231 144.116 47.0946 144.142 46.9748 144.192C46.8549 144.241 46.746 144.314 46.6542 144.406C46.5625 144.498 46.4897 144.608 46.44 144.728C46.3903 144.848 46.3647 144.977 46.3647 145.107C46.3647 145.237 46.3903 145.366 46.44 145.487C46.4897 145.607 46.5625 145.716 46.6542 145.808C46.746 145.9 46.8549 145.973 46.9748 146.023C47.0946 146.073 47.2231 146.098 47.3528 146.098H67.3615C67.6231 146.098 67.874 145.993 68.059 145.808C68.244 145.622 68.3479 145.37 68.3479 145.107C68.3479 144.845 68.244 144.593 68.059 144.407C67.874 144.221 67.6231 144.117 67.3615 144.117H47.3528Z" fill="#E6E6E6"/>
<path d="M47.3528 149.953C47.2231 149.953 47.0946 149.978 46.9748 150.028C46.8549 150.078 46.746 150.151 46.6542 150.243C46.5625 150.335 46.4897 150.444 46.44 150.564C46.3903 150.684 46.3647 150.813 46.3647 150.944C46.3647 151.074 46.3903 151.203 46.44 151.323C46.4897 151.443 46.5625 151.553 46.6542 151.645C46.746 151.737 46.8549 151.81 46.9748 151.859C47.0946 151.909 47.2231 151.934 47.3528 151.934H67.3615C67.6229 151.934 67.8733 151.829 68.0579 151.643C68.2426 151.458 68.3462 151.206 68.3462 150.944C68.3462 150.681 68.2426 150.43 68.0579 150.244C67.8733 150.058 67.6229 149.954 67.3615 149.953H47.3528Z" fill="#E6E6E6"/>
<path d="M57.3571 168.462C56.1291 168.462 54.9287 168.096 53.9077 167.411C52.8867 166.726 52.091 165.752 51.621 164.613C51.1511 163.474 51.0282 162.22 51.2677 161.011C51.5073 159.801 52.0986 158.69 52.9669 157.818C53.8352 156.946 54.9415 156.353 56.1458 156.112C57.3502 155.871 58.5985 155.995 59.733 156.467C60.8675 156.939 61.8372 157.738 62.5194 158.763C63.2016 159.789 63.5657 160.994 63.5657 162.227C63.5638 163.88 62.9091 165.465 61.7452 166.634C60.5812 167.803 59.0031 168.46 57.3571 168.462ZM57.3571 156.576C56.2441 156.576 55.156 156.907 54.2306 157.528C53.3052 158.149 52.5839 159.032 52.158 160.064C51.732 161.097 51.6206 162.233 51.8377 163.33C52.0548 164.426 52.5908 165.433 53.3778 166.223C54.1649 167.014 55.1676 167.552 56.2592 167.77C57.3508 167.988 58.4823 167.876 59.5106 167.448C60.5389 167.021 61.4178 166.296 62.0362 165.367C62.6545 164.437 62.9846 163.345 62.9846 162.227C62.9828 160.729 62.3894 159.292 61.3344 158.233C60.2794 157.174 58.849 156.578 57.3571 156.576V156.576Z" fill="#E6E6E6"/>
<path d="M110.365 168.462C110.495 168.462 110.623 168.437 110.743 168.387C110.863 168.337 110.972 168.264 111.064 168.172C111.156 168.08 111.228 167.971 111.278 167.851C111.328 167.731 111.353 167.602 111.353 167.472C111.353 167.341 111.328 167.212 111.278 167.092C111.228 166.972 111.156 166.862 111.064 166.77C110.972 166.678 110.863 166.606 110.743 166.556C110.623 166.506 110.495 166.481 110.365 166.481H90.3565C90.0949 166.481 89.844 166.585 89.659 166.771C89.474 166.957 89.3701 167.209 89.3701 167.472C89.3701 167.734 89.474 167.986 89.659 168.172C89.844 168.358 90.0949 168.462 90.3565 168.462H110.365Z" fill="#E6E6E6"/>
<path d="M110.365 162.626C110.495 162.626 110.623 162.601 110.743 162.551C110.863 162.501 110.972 162.429 111.064 162.337C111.156 162.245 111.228 162.135 111.278 162.015C111.328 161.895 111.353 161.766 111.353 161.636C111.353 161.505 111.328 161.376 111.278 161.256C111.228 161.136 111.156 161.027 111.064 160.935C110.972 160.843 110.863 160.77 110.743 160.72C110.623 160.67 110.495 160.645 110.365 160.645H90.3565C90.0949 160.645 89.844 160.749 89.659 160.935C89.474 161.121 89.3701 161.373 89.3701 161.636C89.3701 161.898 89.474 162.15 89.659 162.336C89.844 162.522 90.0949 162.626 90.3565 162.626H110.365Z" fill="#E6E6E6"/>
<path d="M100.36 144.117C101.588 144.117 102.789 144.482 103.81 145.167C104.831 145.853 105.627 146.826 106.097 147.966C106.566 149.105 106.689 150.359 106.45 151.568C106.21 152.777 105.619 153.888 104.751 154.76C103.882 155.632 102.776 156.226 101.572 156.467C100.367 156.707 99.119 156.584 97.9845 156.112C96.8501 155.64 95.8804 154.841 95.1982 153.816C94.516 152.79 94.1519 151.585 94.1519 150.352V150.352C94.1537 148.699 94.8084 147.114 95.9724 145.945C97.1363 144.776 98.7144 144.119 100.36 144.117ZM100.36 156.003C101.473 156.003 102.561 155.671 103.487 155.051C104.412 154.43 105.134 153.547 105.56 152.514C105.986 151.482 106.097 150.345 105.88 149.249C105.663 148.153 105.127 147.146 104.34 146.356C103.553 145.565 102.55 145.027 101.458 144.809C100.367 144.591 99.2353 144.703 98.207 145.13C97.1787 145.558 96.2998 146.283 95.6814 147.212C95.0631 148.141 94.733 149.234 94.733 150.352V150.352C94.7347 151.85 95.3282 153.286 96.3832 154.346C97.4381 155.405 98.8685 156.001 100.36 156.003V156.003Z" fill="#E6E6E6"/>
<path d="M163.629 199.34H159.14L157.004 181.951L163.63 181.951L163.629 199.34Z" fill="#FFB8B8"/>
<path d="M154.611 198.051H164.591V203.526H150.482V202.198C150.482 201.098 150.917 200.043 151.691 199.266C152.466 198.488 153.516 198.051 154.611 198.051Z" fill="#2F2E41"/>
<path d="M181.572 199.34H177.083L174.947 181.951L181.573 181.951L181.572 199.34Z" fill="#FFB8B8"/>
<path d="M172.553 198.051H182.533V203.526H168.424V202.198C168.424 201.098 168.859 200.043 169.634 199.266C170.408 198.488 171.458 198.051 172.553 198.051Z" fill="#2F2E41"/>
<path d="M155.808 149.211C156.174 148.866 156.46 148.445 156.647 147.977C156.833 147.509 156.915 147.005 156.887 146.502C156.859 145.999 156.721 145.508 156.483 145.064C156.246 144.62 155.914 144.233 155.512 143.932L157.435 136.293L153.097 133.987L150.532 144.813C150.073 145.526 149.89 146.382 150.017 147.221C150.145 148.06 150.574 148.823 151.225 149.365C151.875 149.907 152.701 150.191 153.545 150.163C154.39 150.134 155.195 149.796 155.808 149.211Z" fill="#FFB8B8"/>
<path d="M183.168 135.868L182.802 161.609L182.436 195.44L174.38 194.704L170.352 148.003L165.226 194.704H156.909L156.071 147.636L159.001 137.339L183.168 135.868Z" fill="#2F2E41"/>
<path d="M158.198 137.496L158.08 137.443L162.671 105.907L160.337 96.3754C160.216 95.8795 160.28 95.3561 160.517 94.9045C160.754 94.4528 161.148 94.1042 161.625 93.9248L165.824 92.3435L167.308 88.2461L179.013 89.5128L179.301 92.715C180.57 93.1236 191.015 96.617 190.295 100.598C189.583 104.527 185.383 116.888 185.17 117.514L184.434 135.242L184.344 135.287C184.235 135.342 176.166 139.326 167.401 139.325C164.315 139.325 161.14 138.831 158.198 137.496Z" fill="#3F3D56"/>
<path d="M150.381 140.806L154.071 117.087C154.093 116.948 156.277 103.063 157.001 98.6996C157.749 94.1952 161.221 94.1431 161.256 94.1431H163.167L165.402 104.244L160.999 124.509L156.936 141.304L150.381 140.806Z" fill="#3F3D56"/>
<path d="M174.319 138.465C174.343 137.962 174.476 137.47 174.71 137.024C174.943 136.577 175.272 136.188 175.671 135.883C176.071 135.578 176.532 135.365 177.023 135.258C177.514 135.152 178.022 135.155 178.511 135.266L183.052 128.84L187.613 130.659L181.074 139.643C180.832 140.457 180.302 141.153 179.584 141.599C178.865 142.046 178.008 142.213 177.176 142.068C176.343 141.922 175.592 141.475 175.066 140.812C174.539 140.148 174.274 139.313 174.319 138.465Z" fill="#FFB8B8"/>
<path d="M179.299 132.939L187.373 119.304L184.083 110.495L188.563 98.4985L188.728 98.5697C188.837 98.6163 191.382 99.757 191.759 103.842L196.907 120.09L183.168 137.989L179.299 132.939Z" fill="#3F3D56"/>
<path d="M180.097 81.814C182.33 77.7124 180.829 72.5698 176.744 70.3276C172.66 68.0855 167.539 69.5929 165.306 73.6945C163.074 77.7961 164.575 82.9387 168.659 85.1808C172.743 87.423 177.864 85.9156 180.097 81.814Z" fill="#FFB8B8"/>
<path d="M167.043 73.6315C167.916 74.6684 169.392 74.9609 170.754 75.0809C173.521 75.3245 177.543 74.9293 180.246 74.3026C180.439 76.1805 179.913 78.2053 181.014 79.75C181.531 77.8799 181.831 75.9562 181.909 74.0171C181.942 73.1855 181.929 72.3252 181.593 71.5617C181.256 70.7983 180.522 70.1503 179.677 70.1435C180.305 69.6651 181.041 69.3493 181.819 69.224L179.143 67.8735L179.83 67.165L174.985 66.8672L176.388 65.972C174.276 65.6805 172.139 65.6128 170.013 65.7699C169.026 65.8429 167.994 65.9825 167.194 66.5569C166.394 67.1314 165.932 68.2732 166.428 69.1166C165.806 69.2191 165.221 69.4793 164.727 69.8726C164.234 70.2659 163.849 70.7792 163.608 71.364C163.251 72.2719 163.284 73.2804 163.394 74.2479C163.576 75.7953 163.934 77.3167 164.461 78.7824" fill="#2F2E41"/>
</g>
<defs>
<clipPath id="clip0">
<rect width="213" height="203" fill="white" transform="translate(0 0.554199)"/>
</clipPath>
</defs>
</svg>
