<svg width="254" height="208" viewBox="0 0 254 208" fill="none" xmlns="http://www.w3.org/2000/svg">
<g clip-path="url(#clip0)">
<path d="M242.802 126.646C242.524 127.185 242.234 127.715 241.935 128.241C230.464 148.4 203.78 160.92 158.778 154.294C133.226 150.353 122.345 164.809 111.808 179.617C111.628 179.873 111.448 180.128 111.264 180.384C100.23 195.912 89.3054 211.483 61.9895 206.307C33.0313 201.689 15.1596 177.97 12.3941 152.647C12.3604 152.339 12.33 152.028 12.3024 151.72C10.7488 135.302 15.5502 118.302 27.7995 105.468C35.1986 97.7173 45.711 93.6005 56.5623 93.7298C59.8294 93.7912 63.0952 93.5469 66.3177 93.0001C67.029 92.8738 67.7189 92.7352 68.3903 92.5782C82.2147 89.3913 88.5851 79.9167 92.4921 68.3544C92.5837 68.0803 92.6752 67.8063 92.7638 67.5292C101.735 39.9552 97.5865 1.25311 146.358 6.9465C190.001 10.1919 222.03 34.6036 237.741 62.7688C237.896 63.052 238.052 63.3353 238.205 63.6186C242.523 71.4335 245.604 79.8809 247.337 88.6553C247.435 89.148 247.524 89.6407 247.606 90.1333C249.828 103.214 248.372 115.928 242.802 126.646Z" fill="#F2F2F2"/>
<path d="M238.205 63.6189C235.073 67.3729 231.545 70.7708 227.683 73.7524C212.638 85.3917 193.582 91.704 174.782 93.028C165.121 93.7132 155.412 93.048 145.931 91.0512C136.285 89.0128 127.085 85.4225 118.175 81.2286C109.509 77.1487 101.1 72.5485 92.4922 68.3546C92.5838 68.0806 92.6754 67.8065 92.7639 67.5294C102.15 72.0866 111.344 77.1087 120.84 81.4503C129.786 85.5426 139.047 88.8804 148.733 90.6663C158.396 92.436 168.258 92.8257 178.03 91.8241C196.778 89.9211 215.849 82.9438 230.262 70.4608C232.969 68.1173 235.471 65.544 237.741 62.769C237.896 63.0523 238.052 63.3356 238.205 63.6189Z" fill="white"/>
<path d="M173.066 0.312511C173.044 0.312511 173.022 0.313215 173 0.314624C149.866 1.77672 131.744 21.2565 131.744 44.6623C131.744 68.0684 149.866 87.5482 173 89.0099C173.139 89.0193 173.277 88.9997 173.408 88.9525C173.538 88.9052 173.657 88.8313 173.758 88.7354C173.858 88.641 173.938 88.5267 173.993 88.3997C174.047 88.2726 174.075 88.1356 174.075 87.9972V1.32747C174.074 1.05803 173.967 0.799844 173.778 0.609561C173.589 0.419278 173.333 0.312443 173.066 0.3125L173.066 0.312511Z" fill="#CCCCCC"/>
<path d="M208.437 74.2795C208.094 74.2792 207.765 74.1418 207.523 73.8975L177.61 43.7224C177.489 43.6018 177.394 43.4582 177.329 43.3001C177.264 43.1419 177.231 42.9724 177.231 42.8012V1.32935C177.231 1.15139 177.267 0.975217 177.337 0.811905C177.407 0.648592 177.51 0.501676 177.639 0.380397C177.768 0.257616 177.921 0.162947 178.088 0.102256C178.256 0.041564 178.433 0.016144 178.611 0.0275628C201.896 1.49911 220.136 21.1059 220.136 44.6642C220.137 55.3653 216.334 65.7119 209.418 73.8257C209.301 73.9616 209.159 74.072 208.998 74.1499C208.838 74.2278 208.663 74.2716 208.485 74.2786C208.469 74.2792 208.453 74.2795 208.437 74.2795Z" fill="#CCCCCC"/>
<path d="M178.528 89.3033C178.198 89.303 177.88 89.1762 177.639 88.9485C177.51 88.8271 177.407 88.68 177.337 88.5165C177.267 88.3531 177.231 88.1767 177.231 87.9985V50.58C177.231 50.3224 177.307 50.0705 177.449 49.8563C177.591 49.6421 177.793 49.4751 178.029 49.3765C178.265 49.2779 178.524 49.2521 178.775 49.3024C179.025 49.3526 179.255 49.4766 179.436 49.6588L205.539 75.9902C205.663 76.1155 205.76 76.2648 205.825 76.4292C205.89 76.5936 205.921 76.7696 205.917 76.9466C205.912 77.1235 205.872 77.2977 205.799 77.4585C205.725 77.6193 205.62 77.7633 205.49 77.8819C198.059 84.6312 188.587 88.6543 178.608 89.3007C178.582 89.3024 178.555 89.3033 178.528 89.3033Z" fill="#6C63FF"/>
<path d="M247.606 90.1333C243.418 97.6249 237.505 104.233 230.735 109.47C215.69 121.11 196.634 127.422 177.834 128.746C168.172 129.431 158.463 128.766 148.983 126.769C139.337 124.731 130.137 121.14 121.227 116.947C112.155 112.676 103.361 107.832 94.3293 103.481C85.3065 99.1337 76.0332 95.4263 66.3174 93C67.0286 92.8737 67.7185 92.7352 68.39 92.5781C69.0249 92.7444 69.6578 92.9168 70.2886 93.0954C89.2867 98.4532 106.054 109.012 123.892 117.168C132.838 121.261 142.099 124.598 151.785 126.384C161.448 128.154 171.31 128.544 181.082 127.542C199.829 125.639 218.901 118.662 233.314 106.179C239.019 101.259 243.773 95.3184 247.337 88.6553C247.435 89.1479 247.523 89.6406 247.606 90.1333Z" fill="white"/>
<path d="M58.9949 155.911C77.7122 161.188 94.2624 171.516 111.808 179.617C111.627 179.873 111.447 180.128 111.264 180.384C110.819 180.178 110.376 179.971 109.933 179.762C100.862 175.491 92.0677 170.648 83.0355 166.297C73.8203 161.857 64.3457 158.085 54.4041 155.661C40.6619 152.322 26.4662 151.304 12.3939 152.647C12.3602 152.339 12.3298 152.028 12.3022 151.72C27.9896 150.226 43.8154 151.647 58.9949 155.911Z" fill="white"/>
<path d="M134.225 185.621H1.11159C1.01892 185.621 0.930058 185.584 0.864537 185.518C0.799016 185.452 0.762207 185.362 0.762207 185.268C0.762207 185.175 0.799016 185.085 0.864537 185.019C0.930058 184.953 1.01892 184.916 1.11159 184.916H134.225C134.317 184.916 134.406 184.953 134.472 185.019C134.537 185.085 134.574 185.175 134.574 185.268C134.574 185.362 134.537 185.452 134.472 185.518C134.406 185.584 134.317 185.621 134.225 185.621Z" fill="#CCCCCC"/>
<path d="M54.9575 138.074C59.6968 138.074 63.5386 134.199 63.5386 129.418C63.5386 124.637 59.6968 120.762 54.9575 120.762C50.2183 120.762 46.3765 124.637 46.3765 129.418C46.3765 134.199 50.2183 138.074 54.9575 138.074Z" fill="#A0616A"/>
<path d="M87.0652 190.499L87.2654 194.815L70.8576 197.649L70.562 191.279L87.0652 190.499Z" fill="#A0616A"/>
<path d="M91.1621 189.202L91.6175 199.014L91.443 199.023C90.0951 199.112 88.7522 198.784 87.5938 198.083C86.5464 197.41 85.9432 196.477 85.8958 195.457V195.457L85.6177 189.464L91.1621 189.202Z" fill="#2F2E41"/>
<path d="M86.6062 197.601L90.8895 197.601L92.9271 180.935L86.6055 180.935L86.6062 197.601Z" fill="#A0616A"/>
<path d="M85.5137 196.191L93.949 196.19H93.9493C94.6553 196.19 95.3543 196.331 96.0065 196.603C96.6588 196.876 97.2514 197.275 97.7506 197.779C98.2497 198.282 98.6457 198.88 98.9159 199.538C99.186 200.196 99.3251 200.901 99.325 201.613V201.789L85.5139 201.79L85.5137 196.191Z" fill="#2F2E41"/>
<path d="M46.1683 193.564C46.6375 193.277 47.0388 192.89 47.3437 192.43C47.6486 191.969 47.8498 191.447 47.9331 190.9C48.0165 190.353 47.9798 189.794 47.8259 189.263C47.6719 188.732 47.4043 188.241 47.042 187.825L50.4608 153.514L42.3184 154.088L41.5182 187.635C40.8663 188.295 40.4772 189.173 40.4246 190.104C40.372 191.034 40.6595 191.952 41.2326 192.683C41.8058 193.413 42.6248 193.907 43.5345 194.069C44.4441 194.232 45.3813 194.052 46.1683 193.564V193.564Z" fill="#A0616A"/>
<path d="M50.4204 159.461L41.9832 158.424C41.7432 158.395 41.5122 158.313 41.3061 158.186C41.1001 158.058 40.9237 157.887 40.789 157.684C40.6543 157.482 40.5645 157.252 40.5257 157.011C40.4869 156.771 40.5 156.524 40.5641 156.289L42.8108 148.047C42.9674 146.809 43.6044 145.684 44.582 144.918C45.5596 144.153 46.7981 143.81 48.026 143.965C49.2538 144.12 50.3707 144.759 51.1319 145.743C51.893 146.727 52.2363 147.976 52.0863 149.215L52.3063 157.732C52.3125 157.976 52.2666 158.219 52.1716 158.443C52.0766 158.667 51.9348 158.868 51.7558 159.033C51.5768 159.197 51.3649 159.32 51.1344 159.394C50.904 159.468 50.6605 159.491 50.4204 159.461Z" fill="#6C63FF"/>
<path d="M49.241 198.424C48.2186 198.354 47.2327 198.012 46.3831 197.434C45.5335 196.856 44.8502 196.062 44.4023 195.132C43.9544 194.202 43.7578 193.17 43.8323 192.139C43.9068 191.108 44.2498 190.115 44.8267 189.26L50.3378 183.489L70.4271 165.338L81.1671 156.347C81.7938 155.823 82.5422 155.467 83.3423 155.314C84.1424 155.161 84.9679 155.216 85.7414 155.473C86.515 155.729 87.2112 156.18 87.7648 156.783C88.3185 157.385 88.7114 158.119 88.9068 158.917L94.5179 181.815C94.612 182.195 94.5625 182.598 94.3788 182.944C94.1952 183.29 93.8906 183.555 93.5241 183.688L87.407 185.909C87.2022 185.983 86.9843 186.014 86.7671 185.999C86.5499 185.984 86.3381 185.924 86.1452 185.822C85.9524 185.72 85.7826 185.579 85.6466 185.407C85.5106 185.236 85.4115 185.038 85.3554 184.825L83.0285 176.023L70.0813 188.509L74.1208 190.009C74.4913 190.148 74.7965 190.422 74.9761 190.778C75.1557 191.133 75.1967 191.543 75.0909 191.928L73.7855 196.593C73.6954 196.918 73.5043 197.206 73.2402 197.414C72.9761 197.622 72.6529 197.739 72.3181 197.747L49.241 198.424Z" fill="#2F2E41"/>
<path d="M48.6924 185.41L48.161 165.831L44.809 157.243C44.1246 155.491 43.828 153.609 43.9401 151.729C44.0522 149.85 44.5701 148.017 45.4577 146.361C46.3454 144.704 47.5812 143.263 49.0787 142.139C50.5762 141.014 52.2992 140.234 54.1271 139.851C54.4031 139.794 54.6782 139.737 54.9525 139.682C56.706 139.331 58.5129 139.354 60.257 139.75C62.0011 140.146 63.6438 140.905 65.0794 141.98C66.5149 143.055 67.7116 144.42 68.5924 145.99C69.4732 147.559 70.0186 149.297 70.1935 151.092L71.7687 165.832L71.7623 165.86C69.2506 177.13 61.9823 183.333 48.8884 185.379L48.6924 185.41Z" fill="#6C63FF"/>
<path d="M56.6199 171.81C56.8109 171.78 57.004 171.765 57.1974 171.766L66.8958 157.282L65.0591 153.462L70.4127 149.912L74.3159 156.357C74.6312 156.877 74.7706 157.487 74.7131 158.094C74.6556 158.702 74.4044 159.274 73.9971 159.725L60.7235 174.427C60.9319 175.148 60.9178 175.916 60.6829 176.629C60.448 177.342 60.0036 177.966 59.4086 178.418C58.8136 178.87 58.0964 179.128 57.3523 179.159C56.6081 179.189 55.8724 178.991 55.2429 178.589C54.6134 178.188 54.1199 177.603 53.8282 176.911C53.5365 176.22 53.4603 175.456 53.6098 174.72C53.7593 173.984 54.1273 173.311 54.665 172.791C55.2027 172.271 55.8846 171.929 56.6199 171.81Z" fill="#A0616A"/>
<path d="M66.047 157.013C65.8293 156.952 65.6274 156.844 65.4549 156.697C65.2824 156.55 65.1434 156.366 65.0474 156.16L61.6932 148.955C61.0537 147.984 60.822 146.797 61.0488 145.653C61.2757 144.51 61.9427 143.504 62.9035 142.856C63.8644 142.208 65.0407 141.971 66.1747 142.196C67.3087 142.422 68.3077 143.092 68.9529 144.059L74.2524 149.992C74.4036 150.161 74.5169 150.361 74.5845 150.579C74.6521 150.796 74.6725 151.026 74.6442 151.252C74.6159 151.478 74.5397 151.695 74.4206 151.889C74.3016 152.083 74.1425 152.248 73.9543 152.374L67.3402 156.807C67.1521 156.933 66.9391 157.017 66.7159 157.052C66.4927 157.088 66.2646 157.074 66.047 157.013Z" fill="#6C63FF"/>
<path d="M168.772 136.133H140.448C140.039 136.133 139.648 135.969 139.359 135.678C139.07 135.387 138.908 134.992 138.908 134.58C138.908 134.168 139.07 133.773 139.359 133.482C139.648 133.191 140.039 133.027 140.448 133.027H168.772C169.18 133.027 169.571 133.191 169.86 133.482C170.149 133.773 170.311 134.168 170.311 134.58C170.311 134.992 170.149 135.387 169.86 135.678C169.571 135.969 169.18 136.133 168.772 136.133Z" fill="#CCCCCC"/>
<path d="M131.981 137.686C131.342 137.686 130.717 137.495 130.185 137.136C129.654 136.778 129.239 136.269 128.995 135.673C128.75 135.077 128.686 134.421 128.811 133.789C128.935 133.156 129.243 132.575 129.695 132.119C130.147 131.663 130.723 131.353 131.351 131.227C131.978 131.101 132.628 131.165 133.218 131.412C133.809 131.659 134.314 132.077 134.669 132.613C135.024 133.15 135.214 133.78 135.214 134.425C135.213 135.29 134.872 136.118 134.266 136.73C133.66 137.341 132.838 137.685 131.981 137.686Z" fill="#3F3D56"/>
<path d="M168.772 145.45H140.448C140.039 145.45 139.648 145.286 139.359 144.995C139.07 144.704 138.908 144.309 138.908 143.897C138.908 143.485 139.07 143.09 139.359 142.799C139.648 142.508 140.039 142.344 140.448 142.344H168.772C169.18 142.344 169.571 142.508 169.86 142.799C170.149 143.09 170.311 143.485 170.311 143.897C170.311 144.309 170.149 144.704 169.86 144.995C169.571 145.286 169.18 145.45 168.772 145.45Z" fill="#CCCCCC"/>
<path d="M131.981 147.003C131.342 147.003 130.717 146.812 130.185 146.453C129.654 146.095 129.239 145.586 128.995 144.99C128.75 144.394 128.686 143.738 128.811 143.106C128.935 142.473 129.243 141.892 129.695 141.436C130.147 140.98 130.723 140.669 131.351 140.544C131.978 140.418 132.628 140.482 133.218 140.729C133.809 140.976 134.314 141.394 134.669 141.93C135.024 142.467 135.214 143.097 135.214 143.742C135.213 144.607 134.872 145.435 134.266 146.047C133.66 146.658 132.838 147.002 131.981 147.003Z" fill="#3F3D56"/>
<path d="M168.772 154.767H140.448C140.039 154.767 139.648 154.603 139.359 154.312C139.07 154.021 138.908 153.626 138.908 153.214C138.908 152.802 139.07 152.407 139.359 152.116C139.648 151.825 140.039 151.661 140.448 151.661H168.772C169.18 151.661 169.571 151.825 169.86 152.116C170.149 152.407 170.311 152.802 170.311 153.214C170.311 153.626 170.149 154.021 169.86 154.312C169.571 154.603 169.18 154.767 168.772 154.767Z" fill="#CCCCCC"/>
<path d="M131.981 156.32C131.342 156.32 130.717 156.129 130.185 155.77C129.654 155.412 129.239 154.903 128.995 154.307C128.75 153.711 128.686 153.055 128.811 152.423C128.935 151.79 129.243 151.209 129.695 150.753C130.147 150.297 130.723 149.986 131.351 149.861C131.978 149.735 132.628 149.799 133.218 150.046C133.809 150.293 134.314 150.711 134.669 151.247C135.024 151.783 135.214 152.414 135.214 153.059C135.213 153.923 134.872 154.752 134.266 155.364C133.66 155.975 132.838 156.319 131.981 156.32Z" fill="#3F3D56"/>
<path d="M176.91 143.855H188.61C188.691 143.855 188.769 143.823 188.827 143.764C188.885 143.706 188.917 143.627 188.917 143.545V70.5855C188.917 70.5031 188.885 70.4241 188.827 70.3659C188.769 70.3076 188.691 70.2749 188.61 70.2749C188.528 70.2749 188.45 70.3076 188.392 70.3659C188.334 70.4241 188.302 70.5031 188.302 70.5855V143.234H176.91C176.87 143.234 176.83 143.242 176.792 143.258C176.755 143.273 176.721 143.296 176.692 143.325C176.663 143.354 176.641 143.388 176.625 143.426C176.61 143.463 176.602 143.504 176.602 143.545C176.602 143.586 176.61 143.626 176.625 143.664C176.641 143.702 176.663 143.736 176.692 143.765C176.721 143.794 176.755 143.817 176.792 143.832C176.83 143.848 176.87 143.856 176.91 143.855Z" fill="#3F3D56"/>
<path d="M227.041 22.9001C226.258 22.9637 225.475 22.7918 224.789 22.4063C224.104 22.0207 223.547 21.4388 223.19 20.734C222.832 20.0293 222.69 19.2334 222.781 18.447C222.871 17.6606 223.191 16.919 223.7 16.3161C224.208 15.7131 224.883 15.2758 225.638 15.0595C226.393 14.8432 227.194 14.8576 227.941 15.1009C228.688 15.3441 229.347 15.8053 229.834 16.4262C230.321 17.047 230.614 17.7996 230.677 18.5887C230.762 19.6469 230.426 20.6957 229.744 21.5042C229.062 22.3128 228.09 22.8149 227.041 22.9001ZM226.992 22.2863C227.654 22.2325 228.285 21.9819 228.806 21.5662C229.326 21.1505 229.713 20.5884 229.917 19.9509C230.121 19.3134 230.133 18.6292 229.952 17.9847C229.77 17.3403 229.404 16.7647 228.898 16.3305C228.392 15.8964 227.77 15.6233 227.11 15.5458C226.451 15.4683 225.783 15.5898 225.192 15.8951C224.601 16.2003 224.113 16.6755 223.789 17.2606C223.466 17.8457 223.322 18.5144 223.375 19.1821C223.411 19.6255 223.532 20.0575 223.733 20.4534C223.934 20.8494 224.21 21.2015 224.546 21.4898C224.882 21.778 225.271 21.9967 225.69 22.1334C226.11 22.2701 226.552 22.322 226.992 22.2863V22.2863Z" fill="#CCCCCC"/>
<path d="M240.705 12.6288C242.054 12.6288 243.147 11.526 243.147 10.1655C243.147 8.80502 242.054 7.70215 240.705 7.70215C239.356 7.70215 238.263 8.80502 238.263 10.1655C238.263 11.526 239.356 12.6288 240.705 12.6288Z" fill="#CCCCCC"/>
<path d="M252.708 3.72026C253.416 3.72026 253.99 3.14093 253.99 2.42629C253.99 1.71165 253.416 1.13232 252.708 1.13232C251.999 1.13232 251.425 1.71165 251.425 2.42629C251.425 3.14093 251.999 3.72026 252.708 3.72026Z" fill="#CCCCCC"/>
<path d="M208.396 101.69C207.963 102.35 207.346 102.866 206.623 103.173C205.899 103.48 205.102 103.563 204.331 103.413C203.561 103.262 202.852 102.885 202.294 102.328C201.736 101.771 201.355 101.06 201.197 100.284C201.04 99.5083 201.115 98.7031 201.411 97.9701C201.708 97.2371 202.213 96.6093 202.864 96.1661C203.514 95.7229 204.28 95.4841 205.065 95.48C205.85 95.476 206.618 95.7067 207.273 96.1432C208.15 96.7292 208.761 97.6423 208.971 98.6821C209.182 99.7219 208.975 100.804 208.396 101.69ZM202.284 97.6157C201.918 98.1746 201.724 98.8304 201.728 99.5003C201.731 100.17 201.931 100.824 202.303 101.379C202.675 101.934 203.202 102.366 203.816 102.619C204.431 102.872 205.107 102.936 205.757 102.801C206.408 102.667 207.005 102.342 207.472 101.866C207.939 101.389 208.256 100.784 208.382 100.127C208.508 99.4689 208.438 98.7882 208.181 98.1706C207.923 97.553 207.49 97.0263 206.936 96.657C206.193 96.1628 205.286 95.9862 204.414 96.1659C203.541 96.3456 202.776 96.867 202.284 97.6157Z" fill="#CCCCCC"/>
<path d="M213.149 116.412C214.498 116.412 215.591 115.309 215.591 113.948C215.591 112.588 214.498 111.485 213.149 111.485C211.801 111.485 210.708 112.588 210.708 113.948C210.708 115.309 211.801 116.412 213.149 116.412Z" fill="#CCCCCC"/>
<path d="M219.961 127.863C220.669 127.863 221.244 127.284 221.244 126.569C221.244 125.855 220.669 125.275 219.961 125.275C219.253 125.275 218.678 125.855 218.678 126.569C218.678 127.284 219.253 127.863 219.961 127.863Z" fill="#CCCCCC"/>
<path d="M109.865 34.4601C109.516 33.7511 109.383 32.9535 109.483 32.1683C109.583 31.3831 109.911 30.6454 110.427 30.0486C110.943 29.4518 111.622 29.0226 112.38 28.8153C113.137 28.6081 113.938 28.6321 114.682 28.8843C115.426 29.1365 116.079 29.6056 116.559 30.2322C117.039 30.8588 117.323 31.6149 117.377 32.4047C117.431 33.1946 117.251 33.9827 116.861 34.6696C116.47 35.3564 115.887 35.9111 115.184 36.2634C114.242 36.7346 113.152 36.8094 112.155 36.4713C111.158 36.1333 110.334 35.4099 109.865 34.4601ZM116.425 31.1714C116.13 30.5715 115.664 30.0734 115.088 29.7402C114.512 29.4071 113.851 29.2537 113.188 29.2995C112.526 29.3454 111.892 29.5884 111.366 29.9978C110.841 30.4072 110.447 30.9647 110.236 31.5997C110.024 32.2347 110.004 32.9187 110.178 33.5653C110.352 34.2118 110.712 34.7919 111.212 35.232C111.713 35.6722 112.332 35.9527 112.99 36.0381C113.649 36.1235 114.318 36.01 114.913 35.7119C115.709 35.3113 116.316 34.6084 116.6 33.7571C116.883 32.9059 116.82 31.976 116.425 31.1714Z" fill="#CCCCCC"/>
<path d="M96.9688 34.9198C98.3174 34.9198 99.4107 33.817 99.4107 32.4565C99.4107 31.096 98.3174 29.9932 96.9688 29.9932C95.6201 29.9932 94.5269 31.096 94.5269 32.4565C94.5269 33.817 95.6201 34.9198 96.9688 34.9198Z" fill="#CCCCCC"/>
<path d="M82.7285 33.3604C83.4369 33.3604 84.0112 32.7811 84.0112 32.0664C84.0112 31.3518 83.4369 30.7725 82.7285 30.7725C82.0201 30.7725 81.4458 31.3518 81.4458 32.0664C81.4458 32.7811 82.0201 33.3604 82.7285 33.3604Z" fill="#CCCCCC"/>
<path d="M64.0259 130.176L63.6682 129.256C62.6814 126.719 60.3218 124.769 57.7965 124.403C56.5366 124.237 55.2558 124.435 54.1031 124.974C52.9503 125.513 51.973 126.372 51.2848 127.449C50.7007 128.471 50.2395 129.56 49.9111 130.692C49.7985 131.029 49.6851 131.273 49.4671 131.347C49.2217 131.436 48.9776 131.284 48.573 131.031C48.4827 130.974 48.3784 130.945 48.2723 130.946C48.1662 130.947 48.0626 130.979 47.9735 131.037C47.8845 131.096 47.8138 131.178 47.7696 131.276C47.7254 131.373 47.7095 131.481 47.7239 131.587L48.1482 134.643L47.7931 134.324C45.4828 132.249 45.0082 128.346 46.6771 125.869L42.8789 126.657L43.05 126.327C44.6275 123.256 47.3463 120.94 50.6121 119.885L46.9739 119.077L47.3417 118.848C50.5997 116.823 54.8978 116.88 58.291 118.99C59.9952 120.091 61.4068 121.596 62.4028 123.374C63.3987 125.151 63.9489 127.147 64.0054 129.188L64.0259 130.176Z" fill="#2F2E41"/>
</g>
<defs>
<clipPath id="clip0">
<rect width="253.228" height="207.296" fill="white" transform="translate(0.762207 0.0244141)"/>
</clipPath>
</defs>
</svg>
