<svg width="276" height="215" viewBox="0 0 276 215" fill="none" xmlns="http://www.w3.org/2000/svg">
<g clip-path="url(#clip0)">
<path opacity="0.1" d="M7.6286 134.685C4.31921 135.25 0.168689 136.866 0.207299 140.623C0.226603 142.529 1.43177 144.154 2.60385 145.547C7.58563 151.509 13.2691 156.781 19.5176 161.237C22.5015 163.36 25.7089 165.391 27.6917 168.673C29.6746 171.954 30.1738 176.131 30.331 180.105C30.7177 189.514 29.6617 198.927 27.2036 207.983C36.9194 209.927 47.7549 211.63 55.8519 205.493C60.7001 201.817 63.9792 195.659 69.3817 193.11C72.989 191.407 77.0733 191.558 81.0059 191.775C99.6212 192.804 118.191 194.735 136.714 197.568C144.472 198.755 152.378 200.099 160.053 198.564C167.728 197.029 175.279 192.021 178.109 183.902C178.545 182.651 178.936 181.255 179.912 180.502C180.795 179.83 181.95 179.844 183.023 179.885L247.854 182.225C251.406 182.353 255.082 182.457 258.334 180.922C261.486 179.436 263.91 176.577 266.243 173.776C271.58 167.387 277.319 159.525 275.749 150.853C274.495 143.902 268.885 139.045 263.323 135.644C257.76 132.244 251.624 129.46 247.537 124.023C241.318 115.748 241.564 103.905 241.177 93.1673C240.826 83.4448 239.686 73.7714 237.772 64.2519C236.087 55.884 233.74 47.5045 229.352 40.4371C224.964 33.3697 218.254 27.71 210.665 26.673C200.753 25.3175 190.789 31.8114 181.093 29.0539C172.902 26.7368 167.265 18.5021 160.478 12.796C148.424 2.6584 132.605 0.535284 117.649 0.34122C101.792 0.129778 85.515 1.81552 71.3811 9.636C68.1435 11.426 64.9775 13.5926 62.7354 16.7555C59.2991 21.6071 58.4663 28.1242 56.2186 33.7955C47.1592 56.6312 17.6946 61.5552 8.13052 84.1477C4.73564 92.1623 4.76873 101.509 7.2425 109.926C9.9038 118.984 17.394 123.986 20.3642 131.882C17.1679 134.042 11.5033 134.022 7.6286 134.685Z" fill="#6C63FF"/>
<g opacity="0.2">
<path opacity="0.2" d="M244.219 107.757C244.219 107.757 245.542 89.2857 255.482 79.2494C259.676 75.0682 262.466 69.5707 263.432 63.5824C263.866 60.7357 264.051 57.8533 263.984 54.9712" stroke="#535461" stroke-width="2" stroke-miterlimit="10"/>
<path opacity="0.2" d="M270.222 48.6077C269.489 50.6352 263.852 55.1566 263.852 55.1566C263.852 55.1566 262.473 47.8546 263.201 45.8184C263.375 45.334 263.639 44.8904 263.976 44.513C264.314 44.1355 264.719 43.8316 265.169 43.6186C265.618 43.4056 266.103 43.2876 266.596 43.2715C267.089 43.2553 267.58 43.3412 268.041 43.5244C268.502 43.7075 268.925 43.9843 269.284 44.3389C269.643 44.6935 269.933 45.1189 270.135 45.5909C270.338 46.063 270.451 46.5723 270.466 47.0899C270.481 47.6076 270.399 48.1233 270.225 48.6077H270.222Z" fill="#6C63FF"/>
<path opacity="0.2" d="M271.965 62.1954C270.297 63.4872 263.229 64.0549 263.229 64.0549C263.229 64.0549 265.846 57.1352 267.514 55.8434C267.911 55.5364 268.362 55.3146 268.84 55.1905C269.319 55.0665 269.816 55.0426 270.303 55.1204C270.791 55.1981 271.259 55.3759 271.681 55.6436C272.102 55.9113 272.47 56.2636 272.762 56.6805C273.055 57.0974 273.266 57.5706 273.384 58.0733C273.502 58.5759 273.525 59.098 273.451 59.6098C273.377 60.1217 273.207 60.6132 272.953 61.0563C272.698 61.4995 272.362 61.8855 271.965 62.1925V62.1954Z" fill="#6C63FF"/>
<path opacity="0.2" d="M264.77 81.3754C262.707 81.6042 256.334 78.3486 256.334 78.3486C256.334 78.3486 261.919 73.7635 263.979 73.5317C264.969 73.4215 265.961 73.729 266.735 74.3865C267.51 75.0441 268.004 75.9978 268.109 77.0379C268.213 78.078 267.921 79.1194 267.295 79.9328C266.669 80.7462 265.761 81.2651 264.77 81.3754Z" fill="#6C63FF"/>
<path opacity="0.2" d="M256.216 94.6005C254.219 95.1798 247.413 93.1146 247.413 93.1146C247.413 93.1146 252.178 87.6113 254.175 87.0117C254.649 86.871 255.145 86.8298 255.635 86.8904C256.125 86.9511 256.598 87.1124 257.028 87.3653C257.458 87.6181 257.837 87.9574 258.142 88.3639C258.448 88.7704 258.674 89.2361 258.808 89.7344C258.942 90.2327 258.981 90.7538 258.923 91.268C258.866 91.7822 258.712 92.2795 258.471 92.7313C258.231 93.1832 257.907 93.5808 257.52 93.9015C257.133 94.2222 256.69 94.4597 256.216 94.6005Z" fill="#6C63FF"/>
<path opacity="0.2" d="M255.714 61.5234C256.593 63.4959 262.545 67.5394 262.545 67.5394C262.545 67.5394 263.391 60.1476 262.512 58.1751C262.302 57.7063 262.007 57.2853 261.643 56.9364C261.279 56.5874 260.853 56.3171 260.389 56.1411C259.925 55.9651 259.433 55.8867 258.941 55.9104C258.448 55.9341 257.965 56.0595 257.519 56.2793C257.072 56.4992 256.671 56.8092 256.339 57.1917C256.007 57.5743 255.75 58.0218 255.582 58.5087C255.414 58.9957 255.34 59.5126 255.362 60.0298C255.385 60.5471 255.504 61.0546 255.714 61.5234Z" fill="#6C63FF"/>
<path opacity="0.2" d="M245.893 77.1232C247.294 78.7278 254.125 80.7177 254.125 80.7177C254.125 80.7177 252.826 73.3983 251.425 71.7936C250.752 71.0228 249.815 70.5642 248.821 70.5189C247.826 70.4735 246.855 70.8451 246.121 71.5518C245.387 72.2585 244.95 73.2425 244.907 74.2874C244.864 75.3322 245.217 76.3523 245.89 77.1232H245.893Z" fill="#6C63FF"/>
<path opacity="0.2" d="M238.331 93.6595C239.453 95.49 245.868 98.6617 245.868 98.6617C245.868 98.6617 245.766 91.2177 244.644 89.393C244.104 88.5138 243.254 87.8956 242.281 87.6746C241.308 87.4535 240.291 87.6476 239.453 88.2141C238.616 88.7807 238.028 89.6732 237.817 90.6955C237.607 91.7178 237.792 92.7861 238.331 93.6653V93.6595Z" fill="#6C63FF"/>
</g>
<path d="M45.2671 25.7603V36.1789V159.288H249.566V36.1789V25.7603H45.2671Z" fill="url(#paint0_linear)"/>
<path d="M247.41 27.1714H47.4263V37.3699H247.41V27.1714Z" fill="#F6F7F9"/>
<g opacity="0.2">
<path opacity="0.2" d="M247.41 27.1714H47.4263V37.3699H247.41V27.1714Z" fill="#6C63FF"/>
</g>
<path d="M247.41 37.3696H47.4263V157.877H247.41V37.3696Z" fill="#F6F7F9"/>
<path d="M52.2224 34.4758C53.415 34.4758 54.3817 33.4604 54.3817 32.2079C54.3817 30.9553 53.415 29.9399 52.2224 29.9399C51.0298 29.9399 50.063 30.9553 50.063 32.2079C50.063 33.4604 51.0298 34.4758 52.2224 34.4758Z" fill="#F6F7F9"/>
<path d="M57.9753 34.4758C59.1679 34.4758 60.1347 33.4604 60.1347 32.2079C60.1347 30.9553 59.1679 29.9399 57.9753 29.9399C56.7827 29.9399 55.8159 30.9553 55.8159 32.2079C55.8159 33.4604 56.7827 34.4758 57.9753 34.4758Z" fill="#F6F7F9"/>
<path d="M63.7307 34.4758C64.9232 34.4758 65.89 33.4604 65.89 32.2079C65.89 30.9553 64.9232 29.9399 63.7307 29.9399C62.5381 29.9399 61.5713 30.9553 61.5713 32.2079C61.5713 33.4604 62.5381 34.4758 63.7307 34.4758Z" fill="#F6F7F9"/>
<g opacity="0.2">
<path opacity="0.2" d="M157.248 52.356H54.3789V60.1619H157.248V52.356Z" fill="#6C63FF"/>
</g>
<g opacity="0.2">
<path opacity="0.2" d="M237.575 52.356H183.624V60.1619H237.575V52.356Z" fill="#6C63FF"/>
</g>
<g opacity="0.2">
<path opacity="0.2" d="M81.5928 126.146H74.4004V151.079H81.5928V126.146Z" fill="#6C63FF"/>
<path opacity="0.2" d="M95.5005 108.264H88.3081V151.076H95.5005V108.264Z" fill="#6C63FF"/>
<path opacity="0.2" d="M109.408 90.3838H102.216V151.076H109.408V90.3838Z" fill="#6C63FF"/>
<path opacity="0.2" d="M123.316 96.1768H116.124V151.079H123.316V96.1768Z" fill="#6C63FF"/>
<path opacity="0.2" d="M137.224 113.301H130.031V151.077H137.224V113.301Z" fill="#6C63FF"/>
</g>
<g opacity="0.2">
<path opacity="0.2" d="M237.457 77.2886H183.505V146.923H237.457V77.2886Z" fill="#6C63FF"/>
</g>
<path d="M275.189 126.839C274.844 124.996 274.183 123.195 274.166 121.318C274.141 118.271 275.686 114.731 273.656 112.481C273.193 111.968 272.572 111.586 272.227 110.986C271.967 110.468 271.843 109.886 271.869 109.3C271.836 105.746 273.7 102.137 272.583 98.7689C272.365 98.013 271.915 97.3542 271.303 96.8948C270.658 96.4546 269.925 96.3706 269.133 96.3851C268.419 96.3851 267.666 96.4691 266.927 96.4835C266.509 96.4838 266.092 96.4264 265.688 96.3126C264.834 96.0578 264.108 95.4698 263.262 95.1801C262.817 95.0286 262.35 94.961 261.883 94.9803C260.029 94.9165 258.336 96.2113 257.018 97.4654C256.361 98.0466 255.665 98.5779 254.936 99.0556C255.046 98.9745 252.363 100.909 253.372 100.93C254.093 100.952 254.79 101.207 255.369 101.66C254.758 102.649 254.457 103.813 254.506 104.99C254.556 106.168 254.954 107.3 255.644 108.229C255.206 107.777 254.721 107.282 254.224 106.78C252.746 105.254 250.68 103.206 249.71 102.647C248.113 101.746 245.832 99.7884 245.832 99.7884C245.832 99.7884 242.868 101.526 243.78 103.939C244.216 104.081 244.641 104.256 245.052 104.463C245.052 104.784 245.111 105.102 245.225 105.399C246.163 105.71 247.051 106.167 247.859 106.754C247.951 106.888 248.035 107.026 248.113 107.169C248.507 107.893 249.734 109.211 251.235 110.676C252.288 111.786 253.675 113.112 255.057 114.39C254.641 115.258 254.202 116.127 254.125 116.996C254.018 116.952 253.914 116.902 253.813 116.846C251.761 115.687 246.974 115.809 246.974 115.809C246.974 115.809 242.983 113.619 242.186 108.663C242.186 108.663 241.389 105.665 241.615 104.86H241.602L241.704 104.837L242.661 103.015C242.721 102.896 242.752 102.763 242.75 102.629C242.749 102.494 242.716 102.362 242.653 102.244C242.59 102.127 242.501 102.027 242.392 101.956C242.284 101.884 242.16 101.842 242.032 101.833C237.366 101.393 237.145 105.888 237.145 105.888H237.186L237.173 105.926C237.743 108.808 238.199 108.576 238.085 110.882L239.908 115.954C239.908 115.954 240.021 117.691 243.328 119.988C246.635 122.285 250.396 125.868 250.396 125.868C250.396 125.868 248.402 126.963 249.142 131.977C250.046 138.106 248.687 146.847 248.687 146.847V152.495L248.94 152.423C248.907 152.611 248.877 152.811 248.844 153.028C248.423 155.867 248.37 158.752 248.687 161.605C249.37 167.601 252.106 175.798 252.106 175.798C252.106 175.798 253.132 178.68 253.361 180.985C253.397 181.442 253.496 181.89 253.653 182.318C254.167 183.583 254.439 184.942 254.453 186.318C254.443 189.773 255.039 193.2 256.21 196.429C257.365 199.511 257.796 201.318 257.922 202.373C257.095 203.497 256.031 204.722 255.184 204.843C253.587 205.075 250.509 205.304 252.561 208.07C252.632 208.165 252.712 208.254 252.798 208.334C251.24 208.594 249.528 209.168 251.193 211.413C253.245 214.179 265.327 212.91 265.327 212.91C265.327 212.91 265.404 211.372 265.327 209.683C266.174 209.623 266.706 209.568 266.706 209.568C266.706 209.568 267.048 202.883 265.567 202.074C265.293 202.106 265.025 202.174 264.767 202.277C264.607 201.353 264.492 200.203 264.409 199.355L264.996 199.308V199.262H265.032V189.188C265.032 189.188 264.348 182.963 261.841 180.209C261.519 179.862 261.241 179.473 261.014 179.05L260.981 178.978C260.997 178.19 260.997 177.127 260.981 175.908L261.017 175.841C261.061 175.766 261.105 175.699 261.146 175.638C261.204 175.557 261.267 175.48 261.334 175.407L261.37 175.357C261.37 175.357 262.749 173.619 267.412 162.677C270.261 155.997 269.508 152.249 268.488 150.317C268.273 149.448 267.823 147.502 267.26 144.168C267.03 142.753 266.92 141.32 266.932 139.884C267.639 140.07 268.366 140.155 269.094 140.139C270.237 140.166 271.371 139.912 272.404 139.398C271.659 138.256 270.881 136.918 271.257 135.606C271.681 134.112 273.364 133.425 274.334 132.22C275.504 130.763 275.534 128.684 275.189 126.839Z" fill="url(#paint1_linear)"/>
<path d="M246.304 101.02C246.304 101.02 243.474 102.734 244.346 105.135C244.346 105.135 247.286 106.051 248.483 108.336C249.68 110.621 258.932 118.853 258.932 118.853L265.689 115.311C265.689 115.311 263.342 112.02 255.918 109.721C255.918 109.721 251.541 104.797 250.016 103.878C248.491 102.96 246.304 101.02 246.304 101.02Z" fill="#797C9C"/>
<path opacity="0.05" d="M247.682 102.468C247.682 102.468 244.853 104.182 245.724 106.584C245.724 106.584 248.664 107.499 249.861 109.784C251.058 112.07 260.31 120.301 260.31 120.301L267.067 116.759C267.067 116.759 264.72 113.469 257.296 111.169C257.296 111.169 252.919 106.245 251.394 105.327C249.869 104.408 247.682 102.468 247.682 102.468Z" fill="black"/>
<path d="M4.30793 186.801C4.30793 186.801 -11.5937 196.878 17.7192 212.392C17.7192 212.392 24.178 199.798 17.038 189.53C15.6517 187.528 13.6146 186.13 11.3127 185.601C9.01074 185.071 6.60381 185.447 4.54785 186.656L4.30793 186.801Z" fill="#6C63FF"/>
<path d="M4.49023 186.587C4.49023 186.587 18.1001 197.521 17.7278 212.389" stroke="#535461" stroke-miterlimit="10"/>
<path d="M18.4888 212.575C18.4888 212.575 13.5054 194.793 19.4154 181.727C21.9311 176.258 22.6898 170.08 21.5775 164.12C21.0279 161.295 20.2331 158.529 19.203 155.856" stroke="#535461" stroke-width="2" stroke-miterlimit="10"/>
<path d="M22.8925 147.58C22.8925 149.758 19.1391 156.073 19.1391 156.073C19.1391 156.073 15.3857 149.758 15.3857 147.58C15.3857 146.534 15.7813 145.531 16.4855 144.792C17.1896 144.052 18.1447 143.637 19.1405 143.637C20.1363 143.637 21.0914 144.052 21.7955 144.792C22.4997 145.531 22.8953 146.534 22.8953 147.58H22.8925Z" fill="#6C63FF"/>
<path d="M29.0976 159.653C27.9697 161.481 21.5522 164.638 21.5522 164.638C21.5522 164.638 21.6681 157.194 22.796 155.369C23.064 154.935 23.4109 154.56 23.8168 154.266C24.2228 153.972 24.6798 153.765 25.1619 153.657C25.644 153.549 26.1417 153.541 26.6265 153.635C27.1113 153.729 27.5739 153.922 27.9876 154.203C28.4014 154.485 28.7583 154.849 29.038 155.275C29.3178 155.702 29.5148 156.182 29.6179 156.688C29.7209 157.195 29.728 157.717 29.6388 158.226C29.5495 158.736 29.3656 159.221 29.0976 159.656V159.653Z" fill="#6C63FF"/>
<path d="M28.8275 180.264C26.977 181.246 19.917 180.554 19.917 180.554C19.917 180.554 23.5959 174.181 25.4464 173.208C26.3355 172.737 27.3662 172.656 28.3119 172.984C29.2576 173.311 30.0407 174.019 30.4891 174.953C30.9374 175.887 31.0143 176.969 30.7027 177.963C30.3911 178.956 29.7165 179.778 28.8275 180.249V180.264Z" fill="#6C63FF"/>
<path d="M25.278 195.812C23.6233 197.107 16.5439 197.692 16.5439 197.692C16.5439 197.692 19.1446 190.767 20.8131 189.472C21.2094 189.164 21.6597 188.941 22.1381 188.816C22.6165 188.691 23.1137 188.666 23.6013 188.743C24.0889 188.819 24.5573 188.996 24.9799 189.263C25.4024 189.53 25.7708 189.881 26.0639 190.298C26.3571 190.714 26.5693 191.187 26.6885 191.689C26.8077 192.192 26.8314 192.714 26.7584 193.226C26.6855 193.738 26.5172 194.23 26.2631 194.674C26.0091 195.118 25.6743 195.505 25.278 195.812Z" fill="#6C63FF"/>
<path d="M13.6704 165.061C15.1569 166.578 22.0873 168.151 22.0873 168.151C22.0873 168.151 20.3912 160.91 18.902 159.404C18.5484 159.042 18.1304 158.758 17.672 158.566C17.2136 158.374 16.7238 158.279 16.2304 158.287C15.737 158.294 15.2499 158.403 14.7967 158.608C14.3435 158.812 13.9331 159.109 13.5891 159.481C13.245 159.852 12.974 160.291 12.7914 160.772C12.6089 161.254 12.5185 161.768 12.5253 162.286C12.532 162.805 12.6359 163.316 12.831 163.792C13.0261 164.268 13.3085 164.699 13.6621 165.061H13.6704Z" fill="#6C63FF"/>
<path d="M9.73758 183.299C11.5881 184.281 18.6481 183.589 18.6481 183.589C18.6481 183.589 14.9692 177.217 13.1187 176.244C12.2296 175.773 11.1989 175.692 10.2532 176.019C9.30752 176.347 8.52435 177.055 8.07599 177.989C7.62763 178.923 7.55081 180.005 7.86242 180.998C8.17402 181.992 8.84854 182.814 9.73758 183.285V183.299Z" fill="#6C63FF"/>
<path d="M8.23476 201.576C9.88945 202.871 16.9688 203.456 16.9688 203.456C16.9688 203.456 14.3681 196.531 12.6997 195.236C11.8991 194.614 10.8962 194.352 9.91144 194.506C8.92671 194.661 8.04086 195.22 7.44878 196.061C6.85669 196.902 6.60687 197.955 6.75427 198.99C6.90167 200.024 7.43422 200.954 8.23476 201.576Z" fill="#6C63FF"/>
<path opacity="0.25" d="M22.8925 147.58C22.8925 149.758 19.1391 156.073 19.1391 156.073C19.1391 156.073 15.3857 149.758 15.3857 147.58C15.3857 146.534 15.7813 145.531 16.4855 144.792C17.1896 144.052 18.1447 143.637 19.1405 143.637C20.1363 143.637 21.0914 144.052 21.7955 144.792C22.4997 145.531 22.8953 146.534 22.8953 147.58H22.8925Z" fill="black"/>
<path opacity="0.25" d="M29.0976 159.653C27.9697 161.481 21.5522 164.638 21.5522 164.638C21.5522 164.638 21.6681 157.194 22.796 155.369C23.064 154.935 23.4109 154.56 23.8168 154.266C24.2228 153.972 24.6798 153.765 25.1619 153.657C25.644 153.549 26.1417 153.541 26.6265 153.635C27.1113 153.729 27.5739 153.922 27.9876 154.203C28.4014 154.485 28.7583 154.849 29.038 155.275C29.3178 155.702 29.5148 156.182 29.6179 156.688C29.7209 157.195 29.728 157.717 29.6388 158.226C29.5495 158.736 29.3656 159.221 29.0976 159.656V159.653Z" fill="black"/>
<path opacity="0.25" d="M28.8275 180.264C26.977 181.246 19.917 180.554 19.917 180.554C19.917 180.554 23.5959 174.181 25.4464 173.208C26.3355 172.737 27.3662 172.656 28.3119 172.984C29.2576 173.311 30.0407 174.019 30.4891 174.953C30.9374 175.887 31.0143 176.969 30.7027 177.963C30.3911 178.956 29.7165 179.778 28.8275 180.249V180.264Z" fill="black"/>
<path opacity="0.25" d="M25.278 195.812C23.6233 197.107 16.5439 197.692 16.5439 197.692C16.5439 197.692 19.1446 190.767 20.8131 189.472C21.2094 189.164 21.6597 188.941 22.1381 188.816C22.6165 188.691 23.1137 188.666 23.6013 188.743C24.0889 188.819 24.5573 188.996 24.9799 189.263C25.4024 189.53 25.7708 189.881 26.0639 190.298C26.3571 190.714 26.5693 191.187 26.6885 191.689C26.8077 192.192 26.8314 192.714 26.7584 193.226C26.6855 193.738 26.5172 194.23 26.2631 194.674C26.0091 195.118 25.6743 195.505 25.278 195.812Z" fill="black"/>
<path opacity="0.25" d="M13.6704 165.061C15.1569 166.578 22.0873 168.151 22.0873 168.151C22.0873 168.151 20.3912 160.91 18.902 159.404C18.5484 159.042 18.1304 158.758 17.672 158.566C17.2136 158.374 16.7238 158.279 16.2304 158.287C15.737 158.294 15.2499 158.403 14.7967 158.608C14.3435 158.812 13.9331 159.109 13.5891 159.481C13.245 159.852 12.974 160.291 12.7914 160.772C12.6089 161.254 12.5185 161.768 12.5253 162.286C12.532 162.805 12.6359 163.316 12.831 163.792C13.0261 164.268 13.3085 164.699 13.6621 165.061H13.6704Z" fill="black"/>
<path opacity="0.25" d="M9.73758 183.299C11.5881 184.281 18.6481 183.589 18.6481 183.589C18.6481 183.589 14.9692 177.217 13.1187 176.244C12.2296 175.773 11.1989 175.692 10.2532 176.019C9.30752 176.347 8.52435 177.055 8.07599 177.989C7.62763 178.923 7.55081 180.005 7.86242 180.998C8.17402 181.992 8.84854 182.814 9.73758 183.285V183.299Z" fill="black"/>
<path opacity="0.25" d="M8.23476 201.576C9.88945 202.871 16.9688 203.456 16.9688 203.456C16.9688 203.456 14.3681 196.531 12.6997 195.236C11.8991 194.614 10.8962 194.352 9.91144 194.506C8.92671 194.661 8.04086 195.22 7.44878 196.061C6.85669 196.902 6.60687 197.955 6.75427 198.99C6.90167 200.024 7.43422 200.954 8.23476 201.576Z" fill="black"/>
<path d="M30.0189 212.913C30.0189 212.913 25.0355 195.143 30.9538 182.066C33.4695 176.597 34.2282 170.418 33.116 164.458C32.5664 161.633 31.7716 158.867 30.7415 156.194" stroke="#535461" stroke-width="2" stroke-miterlimit="10"/>
<path d="M34.4233 147.928C34.4233 150.106 30.6699 156.42 30.6699 156.42C30.6699 156.42 26.9165 150.106 26.9165 147.928C26.9165 146.882 27.3121 145.879 28.0163 145.139C28.7204 144.4 29.6755 143.984 30.6713 143.984C31.6671 143.984 32.6221 144.4 33.3263 145.139C34.0305 145.879 34.426 146.882 34.426 147.928H34.4233Z" fill="#6C63FF"/>
<path d="M40.6308 159.988C39.5029 161.816 33.0854 164.973 33.0854 164.973C33.0854 164.973 33.2013 157.529 34.3292 155.705C34.8705 154.827 35.7215 154.211 36.6951 153.992C37.6687 153.774 38.6852 153.97 39.5208 154.539C40.3565 155.107 40.9429 156.001 41.151 157.024C41.3592 158.046 41.1721 159.114 40.6308 159.991V159.988Z" fill="#6C63FF"/>
<path d="M40.3583 180.6C38.5078 181.582 31.4478 180.89 31.4478 180.89C31.4478 180.89 35.1267 174.517 36.9772 173.544C37.4183 173.311 37.8988 173.171 38.3913 173.133C38.8838 173.095 39.3786 173.159 39.8475 173.322C40.3164 173.485 40.7502 173.743 41.1241 174.082C41.498 174.42 41.8048 174.833 42.0268 175.297C42.2488 175.76 42.3817 176.264 42.418 176.782C42.4543 177.299 42.3933 177.819 42.2383 178.311C42.0834 178.804 41.8376 179.259 41.515 179.652C41.1925 180.045 40.7994 180.367 40.3583 180.6Z" fill="#6C63FF"/>
<path d="M36.8082 196.151C35.1535 197.446 28.0742 198.031 28.0742 198.031C28.0742 198.031 30.6748 191.106 32.3433 189.811C32.7397 189.503 33.19 189.28 33.6684 189.155C34.1468 189.03 34.644 189.005 35.1316 189.082C35.6191 189.158 36.0876 189.335 36.5101 189.602C36.9327 189.869 37.301 190.22 37.5942 190.636C37.8874 191.053 38.0996 191.526 38.2188 192.028C38.3379 192.531 38.3617 193.053 38.2887 193.565C38.2157 194.077 38.0474 194.569 37.7934 195.013C37.5394 195.457 37.2046 195.843 36.8082 196.151Z" fill="#6C63FF"/>
<path d="M25.2065 165.397C26.693 166.914 33.6234 168.487 33.6234 168.487C33.6234 168.487 31.9274 161.246 30.4381 159.74C30.0845 159.378 29.6665 159.094 29.2081 158.902C28.7497 158.71 28.2599 158.615 27.7665 158.622C27.2732 158.63 26.786 158.739 26.3328 158.944C25.8796 159.148 25.4692 159.445 25.1252 159.816C24.7811 160.188 24.5101 160.627 24.3276 161.108C24.1451 161.59 24.0546 162.104 24.0614 162.622C24.0682 163.141 24.1721 163.652 24.3671 164.128C24.5622 164.604 24.8446 165.035 25.1983 165.397H25.2065Z" fill="#6C63FF"/>
<path d="M21.2683 183.635C23.1188 184.617 30.1789 183.925 30.1789 183.925C30.1789 183.925 26.4999 177.553 24.6494 176.58C23.7604 176.109 22.7297 176.028 21.784 176.355C20.8383 176.683 20.0551 177.391 19.6068 178.325C19.1584 179.258 19.0816 180.341 19.3932 181.334C19.7048 182.328 20.3793 183.15 21.2683 183.621V183.635Z" fill="#6C63FF"/>
<path d="M19.7655 201.915C21.4202 203.21 28.4995 203.795 28.4995 203.795C28.4995 203.795 25.8989 196.869 24.2304 195.575C23.4299 194.953 22.4269 194.69 21.4422 194.845C20.4575 195 19.5716 195.559 18.9795 196.4C18.3875 197.241 18.1376 198.294 18.285 199.329C18.4324 200.363 18.965 201.293 19.7655 201.915Z" fill="#6C63FF"/>
<path d="M269.588 212.293H6.76758V214.321H269.588V212.293Z" fill="#6C63FF"/>
<path d="M248.259 99.041H192.559V170.931H248.259V99.041Z" fill="url(#paint2_linear)"/>
<path d="M247.385 100.171H193.434V169.805H247.385V100.171Z" fill="#6C63FF"/>
<path d="M208.088 106.282H197.057V117.868H208.088V106.282Z" fill="#E8EAF1"/>
<path d="M241.734 124.82H202.573V127.137H241.734V124.82Z" fill="#E8EAF1"/>
<path d="M241.734 129.744H202.573V132.061H241.734V129.744Z" fill="#E8EAF1"/>
<path d="M241.734 134.668H202.573V136.985H241.734V134.668Z" fill="#E8EAF1"/>
<path d="M241.734 139.592H202.573V141.909H241.734V139.592Z" fill="#E8EAF1"/>
<path d="M241.734 144.516H202.573V146.833H241.734V144.516Z" fill="#E8EAF1"/>
<path d="M241.734 149.44H202.573V151.757H241.734V149.44Z" fill="#E8EAF1"/>
<path d="M241.734 154.364H202.573V156.681H241.734V154.364Z" fill="#E8EAF1"/>
<path d="M263.937 198.526C263.937 198.526 264.263 203.555 264.809 204.128C265.355 204.702 259.911 205.043 259.911 205.043L260.672 198.526H263.937Z" fill="#FFB9B9"/>
<path opacity="0.05" d="M263.937 198.526C263.937 198.526 264.263 203.555 264.809 204.128C265.355 204.702 259.911 205.043 259.911 205.043L260.672 198.526H263.937Z" fill="black"/>
<path d="M265.136 202.413C265.136 202.413 264.375 202.413 261.653 203.899C261.653 203.899 259.803 203.557 259.042 200.812C259.042 200.812 256.755 204.927 255.233 205.156C253.711 205.385 250.771 205.614 252.729 208.357C254.687 211.1 266.226 209.843 266.226 209.843C266.226 209.843 266.548 203.213 265.136 202.413Z" fill="#E4E2F3"/>
<path opacity="0.05" d="M265.136 202.413C265.136 202.413 264.375 202.413 261.653 203.899C261.653 203.899 259.803 203.557 259.042 200.812C259.042 200.812 256.755 204.927 255.233 205.156C253.711 205.385 250.771 205.614 252.729 208.357C254.687 211.1 266.226 209.843 266.226 209.843C266.226 209.843 266.548 203.213 265.136 202.413Z" fill="black"/>
<path d="M263.502 206.301L262.741 208.473L257.735 206.987L258.011 204.832L258.08 204.311L258.27 202.862C258.27 202.862 262.515 201.718 262.515 202.283C262.571 202.755 262.663 203.22 262.79 203.676C262.964 204.38 263.182 205.18 263.342 205.704C263.436 206.072 263.502 206.301 263.502 206.301Z" fill="#FFB9B9"/>
<path d="M260.768 176.487C260.496 176.97 260.353 177.52 260.353 178.08C260.353 178.641 260.496 179.191 260.768 179.673C260.983 180.086 261.246 180.469 261.552 180.812C263.945 183.555 264.599 189.727 264.599 189.727V199.671L262.966 199.801L260.355 200.012L256.436 183.094C256.436 183.094 254.15 170.749 255.239 168.577C256.328 166.405 257.307 152.803 257.307 152.803L258.212 151.821L260.355 149.489H266.56C267.056 149.863 267.469 150.346 267.768 150.906C268.81 152.716 269.745 156.481 266.888 163.433C262.426 174.292 261.119 176.006 261.119 176.006C260.985 176.152 260.867 176.313 260.768 176.487Z" fill="#4C4C78"/>
<path opacity="0.05" d="M260.804 176.438C260.532 176.92 260.389 177.47 260.389 178.031C260.389 178.592 260.532 179.142 260.804 179.624C261.018 180.037 261.281 180.419 261.587 180.762C263.981 183.505 264.635 189.678 264.635 189.678V199.621L263.002 199.752L260.39 199.963L256.472 183.045C256.472 183.045 254.185 170.7 255.275 168.528C256.364 166.355 257.343 152.754 257.343 152.754L258.248 151.772L260.39 149.44H266.596C267.092 149.814 267.504 150.297 267.804 150.856C268.846 152.667 269.781 156.432 266.924 163.384C262.462 174.242 261.154 175.957 261.154 175.957C261.02 176.103 260.903 176.264 260.804 176.438Z" fill="black"/>
<path opacity="0.1" d="M262.801 203.691L258.088 204.311L258.278 202.862C258.278 202.862 262.522 201.718 262.522 202.283C262.579 202.759 262.672 203.23 262.801 203.691Z" fill="black"/>
<path d="M260.448 161.834C260.448 161.834 260.724 170.833 260.763 176.487C260.763 177.767 260.763 178.874 260.763 179.673C260.769 180.093 260.739 180.513 260.674 180.927C260.349 181.955 261 184.241 261 184.241C262.633 188.758 263.301 193.597 262.958 198.416V203.444L257.735 204.131C257.735 204.131 258.606 203.444 256.21 196.814C255.089 193.603 254.52 190.207 254.53 186.787C254.517 185.425 254.258 184.078 253.766 182.819C253.616 182.394 253.524 181.949 253.49 181.498C253.273 179.212 252.293 176.354 252.293 176.354C252.293 176.354 249.682 168.244 249.028 162.294C248.726 159.465 248.777 156.606 249.18 153.79C249.276 153.075 249.407 152.365 249.572 151.664C249.572 151.664 260.211 144.631 264.229 149.492C264.616 149.968 264.923 150.509 265.137 151.094C265.357 151.67 265.529 152.266 265.65 152.875C266.899 159.32 260.448 161.834 260.448 161.834Z" fill="#4C4C78"/>
<path d="M260.126 111.768C263.192 111.768 265.678 109.158 265.678 105.938C265.678 102.717 263.192 100.107 260.126 100.107C257.06 100.107 254.575 102.717 254.575 105.938C254.575 109.158 257.06 111.768 260.126 111.768Z" fill="#FFB9B9"/>
<path d="M257.079 109.593C257.079 109.593 259.365 116.336 257.079 119.881C254.792 123.427 264.37 122.282 264.37 122.282L268.071 117.596C268.071 117.596 263.717 117.596 263.499 109.593C263.281 101.59 257.079 109.593 257.079 109.593Z" fill="#FFB9B9"/>
<path opacity="0.1" d="M268.071 152.232C267.283 152.519 266.472 152.732 265.647 152.869C264.293 153.09 262.694 153.098 261.759 152.232C261.207 151.72 259.828 151.653 258.198 151.821C254.743 152.169 250.068 153.521 249.175 153.788C249.271 153.072 249.402 152.363 249.566 151.662C249.566 151.662 260.206 144.629 264.224 149.489H266.546C267.043 149.863 267.455 150.346 267.754 150.906C267.956 151.815 268.071 152.232 268.071 152.232Z" fill="black"/>
<path opacity="0.1" d="M263.502 206.301L262.741 208.473L257.735 206.987L258.011 204.832C258.872 206.831 260.339 207.103 260.339 207.103C261.295 206.547 262.297 206.086 263.334 205.724C263.436 206.072 263.502 206.301 263.502 206.301Z" fill="black"/>
<path d="M263.827 205.73C263.827 205.73 263.066 205.73 260.344 207.216C260.344 207.216 258.493 206.874 257.732 204.128C257.732 204.128 255.446 208.244 253.924 208.473C252.401 208.701 249.461 208.93 251.419 211.673C253.378 214.416 264.916 213.159 264.916 213.159C264.916 213.159 265.242 206.529 263.827 205.73Z" fill="#E4E2F3"/>
<path d="M238.005 107.053C238.005 107.053 238.218 102.601 242.672 103.035C242.795 103.048 242.913 103.093 243.016 103.165C243.119 103.237 243.204 103.334 243.263 103.448C243.322 103.562 243.354 103.69 243.356 103.82C243.358 103.95 243.329 104.078 243.273 104.194L242.36 105.998L238.005 107.053Z" fill="#FFB9B9"/>
<path d="M263.719 118.966C263.719 118.966 258.385 118.05 256.971 116.909C256.971 116.909 255.881 119.082 253.923 117.937C251.965 116.793 247.393 116.909 247.393 116.909C246.194 116.138 245.166 115.107 244.377 113.884C243.589 112.662 243.058 111.277 242.82 109.822C242.82 109.822 242.059 106.85 242.269 106.056C242.269 106.056 239.439 102.968 238.024 107.084C238.576 109.943 239.003 109.714 238.896 112.008L240.636 117.037C240.636 117.037 240.744 118.751 243.901 121.037C247.059 123.322 250.65 126.867 250.65 126.867C250.65 126.867 248.744 127.953 249.453 132.927C250.319 139.009 249.017 147.673 249.017 147.673V153.274C249.017 153.274 259.902 149.961 261.75 151.673C263.598 153.384 268.063 151.673 268.063 151.673C268.063 151.673 267.511 149.729 266.755 145.043C266 140.356 266.863 135.774 266.863 135.774C266.863 135.774 269.693 127.887 271 124.686C272.307 121.486 270.021 117.155 267.734 115.542C265.448 113.929 264.599 114.902 264.599 114.902C264.599 114.902 268.617 117.937 263.719 118.966Z" fill="#797C9C"/>
<path opacity="0.05" d="M249.735 135.479C249.735 135.479 250.604 135.259 254.955 134.572C259.307 133.886 266.927 135.488 266.927 135.488" fill="black"/>
<path opacity="0.1" d="M253.496 102.16C255.978 102.215 257.815 105.431 256.715 107.751C256.232 108.77 255.297 109.668 255.394 110.801C255.438 111.316 255.7 111.783 255.813 112.286C256.334 114.604 253.695 116.773 254.299 119.061C254.505 119.675 254.825 120.239 255.242 120.721L259.825 126.786C260.104 127.12 260.334 127.495 260.509 127.898C260.684 128.473 260.751 129.078 260.708 129.68C260.686 132.576 260.865 135.684 262.492 138.033C264.447 140.854 268.433 141.868 271.397 140.295C270.686 139.163 269.944 137.836 270.294 136.53C270.699 135.05 272.305 134.366 273.231 133.173C274.351 131.725 274.378 129.668 274.059 127.841C273.739 126.013 273.096 124.226 273.082 122.366C273.06 119.345 274.533 115.835 272.594 113.604C272.15 113.095 271.56 112.718 271.229 112.121C270.98 111.604 270.862 111.027 270.887 110.447C270.857 106.925 272.635 103.342 271.568 100.003C271.365 99.2595 270.936 98.6065 270.346 98.143C268.835 97.0742 266.739 98.1112 264.991 97.5638C264.163 97.3118 263.482 96.7267 262.674 96.4399C260.495 95.6666 258.48 97.2191 256.974 98.7079C256.348 99.2824 255.683 99.8089 254.985 100.284C255.093 100.223 252.531 102.14 253.496 102.16Z" fill="black"/>
<path d="M253.772 102.16C256.254 102.215 258.091 105.431 256.99 107.751C256.508 108.77 255.573 109.668 255.669 110.801C255.714 111.316 255.975 111.783 256.089 112.286C256.61 114.604 253.971 116.773 254.575 119.061C254.781 119.675 255.101 120.239 255.518 120.721L260.101 126.786C260.38 127.12 260.61 127.495 260.785 127.898C260.96 128.473 261.027 129.078 260.984 129.68C260.962 132.576 261.141 135.684 262.768 138.033C264.723 140.854 268.708 141.868 271.673 140.295C270.962 139.163 270.22 137.836 270.57 136.53C270.975 135.05 272.58 134.366 273.507 133.173C274.627 131.725 274.654 129.668 274.334 127.841C274.014 126.013 273.372 124.226 273.358 122.366C273.336 119.345 274.809 115.835 272.87 113.604C272.426 113.095 271.836 112.718 271.505 112.121C271.255 111.604 271.138 111.027 271.163 110.447C271.132 106.925 272.911 103.342 271.844 100.003C271.641 99.2595 271.212 98.6065 270.622 98.143C269.111 97.0742 267.015 98.1112 265.267 97.5638C264.439 97.3118 263.758 96.7267 262.95 96.4399C260.771 95.6666 258.755 97.2191 257.25 98.7079C256.624 99.2824 255.959 99.8089 255.261 100.284C255.369 100.223 252.807 102.14 253.772 102.16Z" fill="#B36362"/>
<path d="M170.455 157.295C169.824 156.675 169.276 155.969 168.825 155.195C167.871 153.619 166.274 152.771 165.18 152.348V151.835H165.246L165.215 151.36H165.246L165.169 150.103L164.78 143.823C164.78 143.823 163.373 139.615 165.855 135.763C168.337 131.91 166.01 128.214 163.677 126.769C163.677 126.769 162.573 120.666 163.522 119.221C162.254 118.448 160.947 117.749 159.606 117.127C159.586 117.051 159.567 116.974 159.548 116.895C159.523 116.316 159.49 115.757 159.46 115.189C159.492 114.896 159.543 114.605 159.614 114.32C159.645 114.201 159.678 114.08 159.714 113.955C160.831 113.5 161.791 112.703 162.47 111.666C163.15 110.63 163.516 109.403 163.522 108.145C163.523 107.409 163.397 106.679 163.153 105.99C163.274 105.776 163.366 105.546 163.428 105.306C163.551 104.613 163.419 103.897 163.059 103.302C162.441 101.854 160.883 100.53 159.749 100.046C158.131 99.3511 155.693 99.5162 154.008 99.7276C153.062 99.8464 151.981 100.182 151.639 101.101C151.548 101.448 151.476 101.801 151.424 102.158C151.071 103.56 149.54 104.214 148.594 105.286C147.767 106.233 147.392 107.513 147.121 108.762C146.345 112.339 146.158 116.029 146.57 119.673C146.666 120.513 146.793 121.347 146.928 122.181C146.36 123.021 145.847 124.498 146.082 127.105L144.215 136.42L143.437 141.88C143.332 142.643 143.404 143.422 143.648 144.149C143.892 144.877 144.3 145.531 144.838 146.057C146.029 147.285 147.474 149.362 148.365 150.708C147.977 151.899 147.785 153.151 147.797 154.41C147.816 154.989 147.847 155.537 147.885 156.064C147.965 157.175 148.165 158.273 148.481 159.337C148.699 161.579 149.132 164.446 149.976 166.289L150.287 176.084C150.287 176.084 149.821 185.078 148.886 186.845C147.951 188.612 150.911 203.549 150.911 203.549V205.637L150.411 207.166L150.287 207.068C147.951 210.121 150.287 211.245 150.287 211.245C150.287 211.245 150.922 211.276 151.942 211.317C151.855 211.744 151.906 212.19 152.086 212.583C152.266 212.977 152.566 213.297 152.938 213.492C152.938 213.492 166.175 214.135 168.508 213.492C170.841 212.849 170.221 210.596 168.974 210.761C168.344 210.784 167.714 210.697 167.11 210.503C167.838 209.608 167.256 208.395 166.33 208.513C165.083 208.673 162.281 207.508 162.281 207.508V207.528C162.191 207.493 162.099 207.464 162.005 207.442C160.964 207.193 159.936 206.888 158.925 206.529C158.324 205.177 156.939 201.539 157.932 198.709C158.382 197.434 158.528 195.737 158.528 194.092C158.551 189.131 159.241 184.199 160.577 179.441L162.444 172.701C162.444 172.701 165.091 164.51 165.246 162.274L165.224 158.995C167.413 160.475 169.151 160.026 170.262 159.34C170.429 159.24 170.57 159.1 170.674 158.931C170.778 158.763 170.843 158.57 170.862 158.37C170.881 158.17 170.854 157.968 170.783 157.781C170.712 157.594 170.6 157.427 170.455 157.295ZM149.675 140.258C149.728 140.023 149.772 139.766 149.81 139.496C150.178 139.496 150.546 139.496 150.913 139.496C151.369 140.477 151.56 141.57 151.465 142.656C150.621 142.367 149.358 141.677 149.675 140.258Z" fill="url(#paint3_linear)"/>
<path d="M151.156 204.887L150.558 206.776L152.505 208.821L158.947 210.394L163.591 209.921L163.29 208.184C163.201 207.812 163.017 207.473 162.756 207.204C162.496 206.936 162.17 206.747 161.815 206.66C159.907 206.188 156.266 205.116 155.5 203.622L151.156 204.887Z" fill="#DB8B8B"/>
<path opacity="0.1" d="M151.156 204.887L150.558 206.776L152.505 208.821L158.947 210.394L163.591 209.921L163.29 208.184C163.201 207.812 163.017 207.473 162.756 207.204C162.496 206.936 162.17 206.747 161.815 206.66C159.907 206.188 156.266 205.116 155.5 203.622L151.156 204.887Z" fill="black"/>
<path d="M162.093 209.452L161.194 208.192L162.093 206.744C162.093 206.744 164.79 207.888 165.987 207.728C167.184 207.569 167.785 209.773 165.538 210.405C163.29 211.036 150.555 210.405 150.555 210.405C150.555 210.405 148.307 209.304 150.555 206.315L152.502 207.888C152.502 207.888 155.811 209.776 157.446 209.461L162.093 209.452Z" fill="#474463"/>
<path d="M166.131 212.125L161.487 212.597L155.05 211.013L153.103 208.985L153.263 208.484L153.486 207.783L153.704 207.097L158.048 205.837C158.268 206.214 158.569 206.531 158.928 206.764C160.34 207.778 162.874 208.502 164.36 208.875C164.423 208.891 164.485 208.91 164.545 208.933C164.86 209.044 165.143 209.237 165.369 209.493C165.595 209.749 165.755 210.06 165.836 210.399L166.131 212.125Z" fill="#DB8B8B"/>
<path opacity="0.1" d="M166.131 212.125L161.487 212.597L155.05 211.013L153.103 208.985L153.263 208.484L155.053 209.933C155.053 209.933 158.362 211.821 159.998 211.505H164.642L163.743 210.245L164.551 208.936C164.866 209.047 165.149 209.24 165.374 209.496C165.6 209.752 165.761 210.063 165.841 210.402L166.131 212.125Z" fill="black"/>
<path d="M164.639 211.653L163.74 210.393L164.639 208.945C164.639 208.945 167.336 210.089 168.533 209.93C169.73 209.77 170.331 211.974 168.084 212.606C165.836 213.237 153.101 212.606 153.101 212.606C153.101 212.606 150.853 211.505 153.101 208.516L155.048 210.089C155.048 210.089 158.357 211.977 159.992 211.662L164.639 211.653Z" fill="#474463"/>
<path d="M160.891 120.388C160.891 120.388 153.699 121.176 154.749 118.028C155.042 117.135 155.118 116.181 154.97 115.25C154.783 114.095 154.349 113.001 153.699 112.049L160.442 113.15C160.038 113.86 159.731 114.625 159.529 115.424C158.726 118.763 160.891 120.388 160.891 120.388Z" fill="#DB8B8B"/>
<path d="M148.608 156.27C148.608 156.27 148.757 163.036 150.263 166.341L150.563 175.939C150.563 175.939 150.114 184.751 149.215 186.483C148.316 188.215 151.162 202.848 151.162 202.848V205.365C151.162 205.365 155.949 207.247 157.306 205.046L155.958 186.32L156.556 160.356L148.608 156.27Z" fill="#474463"/>
<path opacity="0.1" d="M148.608 156.27C148.608 156.27 148.757 163.036 150.263 166.341L150.563 175.939C150.563 175.939 150.114 184.751 149.215 186.483C148.316 188.215 151.162 202.848 151.162 202.848V205.365C151.162 205.365 155.949 207.247 157.306 205.046L155.958 186.32L156.556 160.356L148.608 156.27Z" fill="black"/>
<path d="M145.613 134.546L144.714 137.063L143.964 142.413C143.863 143.158 143.933 143.918 144.167 144.629C144.402 145.341 144.794 145.983 145.313 146.503C147.111 148.392 149.507 152.325 149.507 152.325L152.353 143.346C152.353 143.346 149.507 142.874 149.957 140.829C150.406 138.784 150.257 135.007 150.257 135.007L145.613 134.546Z" fill="#CBCDDA"/>
<path opacity="0.05" d="M145.613 134.257L144.714 136.774L143.964 142.124C143.863 142.869 143.933 143.629 144.167 144.34C144.402 145.051 144.794 145.694 145.313 146.214C147.111 148.102 149.507 152.035 149.507 152.035L152.353 143.056C152.353 143.056 149.507 142.584 149.957 140.539C150.406 138.494 150.257 134.717 150.257 134.717L145.613 134.257Z" fill="black"/>
<path opacity="0.1" d="M158.928 206.758C156.997 209.944 154.016 208.134 153.484 207.775L153.702 207.088L158.045 205.828C158.266 206.206 158.568 206.525 158.928 206.758Z" fill="black"/>
<path d="M164.939 162.402C164.79 164.606 162.242 172.629 162.242 172.629L160.447 179.233C159.159 183.903 158.495 188.738 158.472 193.6C158.472 195.21 158.332 196.873 157.899 198.121C156.699 201.597 159.098 206.304 159.098 206.304C157 210.237 153.406 207.564 153.406 207.564V205.046C153.406 205.046 150.56 191.358 151.308 188.681C152.055 186.005 152.355 178.767 152.355 178.767V165.707C149.955 163.195 148.496 159.859 148.244 156.31C148.208 155.795 148.18 155.253 148.161 154.691C148.04 151.14 150.351 146.978 151.252 145.495C151.47 145.136 151.605 144.936 151.605 144.936L164.843 150.439H164.873V150.978V152.169L164.939 162.402Z" fill="#474463"/>
<path opacity="0.1" d="M160.445 113.15C160.041 113.859 159.734 114.625 159.532 115.424C158.799 115.716 158.019 115.851 157.236 115.821C156.453 115.792 155.683 115.597 154.973 115.25C154.786 114.095 154.352 113.001 153.702 112.049L160.445 113.15Z" fill="black"/>
<path d="M157.447 115.511C160.674 115.511 163.291 112.763 163.291 109.373C163.291 105.983 160.674 103.235 157.447 103.235C154.219 103.235 151.603 105.983 151.603 109.373C151.603 112.763 154.219 115.511 157.447 115.511Z" fill="#DB8B8B"/>
<path opacity="0.1" d="M164.94 152.174H164.877C158.594 153.53 150.707 146.654 150.707 146.654C150.92 146.283 151.104 145.896 151.259 145.495C151.476 145.136 151.612 144.936 151.612 144.936L164.849 150.439L164.882 150.99L164.94 152.174Z" fill="black"/>
<path d="M163.29 120.229C163.29 120.229 154.901 114.879 152.204 117.081L148.458 122.115C148.458 122.115 146.062 122.903 146.511 127.937L144.713 137.063L150.108 138.48C150.108 138.48 153.254 141.628 150.706 146.19C150.706 146.19 158.646 153.113 164.939 151.693L164.476 144.305C164.476 144.305 163.127 140.215 165.524 136.438C167.92 132.661 165.673 129.043 163.425 127.627C163.442 127.627 162.391 121.646 163.29 120.229Z" fill="#CBCDDA"/>
<path d="M163.74 152.331C163.74 152.331 166.887 152.959 168.384 155.479C168.817 156.236 169.345 156.927 169.954 157.535C170.09 157.666 170.196 157.829 170.262 158.01C170.328 158.191 170.354 158.386 170.336 158.579C170.318 158.772 170.257 158.958 170.159 159.123C170.06 159.287 169.927 159.425 169.769 159.525C168.58 160.276 166.642 160.739 164.193 158.625C159.995 155.007 163.74 152.331 163.74 152.331Z" fill="#DB8B8B"/>
<path opacity="0.1" d="M159.096 123.221C159.096 123.221 156.098 122.905 155.351 131.088C154.603 139.27 153.404 141.159 153.404 141.159C153.404 141.159 152.654 145.408 154.452 147.925C156.25 150.442 159.692 155.792 159.692 155.792C159.692 155.792 163.437 156.892 164.187 152.959L159.543 143.832C159.543 143.832 158.793 140.684 160.591 138.482C162.389 136.281 163.74 121.645 159.096 123.221Z" fill="black"/>
<path d="M159.397 122.749C159.397 122.749 156.399 122.433 155.652 130.615C154.904 138.798 153.705 140.686 153.705 140.686C153.705 140.686 152.954 144.936 154.752 147.453C156.551 149.97 159.992 155.319 159.992 155.319C159.992 155.319 163.737 156.42 164.488 152.487L159.843 143.36C159.843 143.36 159.096 140.214 160.891 138.022C162.687 135.829 164.041 121.173 159.397 122.749Z" fill="#CBCDDA"/>
<path opacity="0.1" d="M161.868 128.649C161.868 128.649 162.168 133.527 160.82 136.203C159.471 138.879 159.471 142.341 160.82 144.229" fill="black"/>
<path opacity="0.1" d="M162.617 122.67C162.617 122.67 161.418 121.411 157.973 121.254C154.529 121.098 153.028 119.994 153.028 119.994" fill="black"/>
<path opacity="0.1" d="M154.272 101.442C153.362 101.561 152.322 101.888 151.994 102.786C151.907 103.128 151.838 103.474 151.787 103.823C151.448 105.199 149.976 105.851 149.066 106.888C148.263 107.815 147.91 109.069 147.648 110.294C146.902 113.801 146.724 117.415 147.121 120.985C147.414 123.592 148.012 126.164 148.177 128.785C148.343 131.406 148.04 134.164 146.674 136.365C146.087 137.312 145.315 138.144 144.898 139.186C145.759 139.919 146.942 140.023 148.051 140.055C149.338 140.102 150.625 140.102 151.912 140.055C152.587 140.032 153.29 139.986 153.878 139.627C154.309 139.338 154.664 138.939 154.909 138.468C155.646 137.153 155.833 135.571 155.8 134.051C155.767 132.53 155.538 131.012 155.524 129.486C155.511 128.655 155.571 127.774 156.026 127.094C156.354 126.601 156.854 126.271 157.281 125.874C158.886 124.382 159.435 121.987 159.487 119.736C159.54 117.486 159.187 115.232 159.369 112.991C159.44 112.122 159.752 111.059 160.574 110.888C160.837 110.876 161.099 110.842 161.357 110.783C162.016 110.517 161.953 109.541 162.14 108.825C162.353 108.023 163.004 107.403 163.188 106.592C163.619 104.689 161.313 102.416 159.802 101.752C158.249 101.072 155.905 101.237 154.272 101.442Z" fill="black"/>
<path d="M154.135 101.127C153.224 101.245 152.185 101.573 151.857 102.471C151.769 102.812 151.7 103.158 151.65 103.508C151.311 104.883 149.838 105.535 148.928 106.572C148.125 107.499 147.772 108.753 147.51 109.978C146.764 113.486 146.586 117.1 146.984 120.669C147.276 123.276 147.874 125.848 148.04 128.469C148.205 131.091 147.902 133.848 146.537 136.049C145.949 136.997 145.177 137.828 144.761 138.871C145.621 139.603 146.804 139.708 147.913 139.739C149.2 139.786 150.487 139.786 151.774 139.739C152.45 139.716 153.153 139.67 153.74 139.311C154.171 139.022 154.526 138.624 154.772 138.152C155.508 136.837 155.695 135.256 155.662 133.735C155.629 132.214 155.4 130.697 155.387 129.17C155.373 128.339 155.433 127.458 155.889 126.778C156.217 126.285 156.716 125.955 157.143 125.558C158.748 124.067 159.297 121.671 159.35 119.421C159.402 117.17 159.049 114.917 159.231 112.675C159.303 111.806 159.614 110.743 160.436 110.572C160.7 110.561 160.962 110.526 161.219 110.468C161.879 110.201 161.815 109.225 162.003 108.51C162.215 107.707 162.866 107.088 163.051 106.277C163.481 104.374 161.175 102.1 159.664 101.437C158.1 100.756 155.756 100.918 154.135 101.127Z" fill="#472727"/>
</g>
<defs>
<linearGradient id="paint0_linear" x1="147.417" y1="159.288" x2="147.417" y2="25.7603" gradientUnits="userSpaceOnUse">
<stop stop-color="#808080" stop-opacity="0.25"/>
<stop offset="0.54" stop-color="#808080" stop-opacity="0.12"/>
<stop offset="1" stop-color="#808080" stop-opacity="0.1"/>
</linearGradient>
<linearGradient id="paint1_linear" x1="39574.8" y1="96495.5" x2="39574.8" y2="48260.4" gradientUnits="userSpaceOnUse">
<stop stop-color="#808080" stop-opacity="0.25"/>
<stop offset="0.54" stop-color="#808080" stop-opacity="0.12"/>
<stop offset="1" stop-color="#808080" stop-opacity="0.1"/>
</linearGradient>
<linearGradient id="paint2_linear" x1="44708.4" y1="42444.7" x2="44708.4" y2="24601.5" gradientUnits="userSpaceOnUse">
<stop stop-color="#808080" stop-opacity="0.25"/>
<stop offset="0.54" stop-color="#808080" stop-opacity="0.12"/>
<stop offset="1" stop-color="#808080" stop-opacity="0.1"/>
</linearGradient>
<linearGradient id="paint3_linear" x1="60861" y1="93491.3" x2="60861" y2="48435.2" gradientUnits="userSpaceOnUse">
<stop stop-color="#808080" stop-opacity="0.25"/>
<stop offset="0.54" stop-color="#808080" stop-opacity="0.12"/>
<stop offset="1" stop-color="#808080" stop-opacity="0.1"/>
</linearGradient>
<clipPath id="clip0">
<rect width="276" height="214" fill="white" transform="translate(0 0.320801)"/>
</clipPath>
</defs>
</svg>
