<svg width="262" height="249" viewBox="0 0 262 249" fill="none" xmlns="http://www.w3.org/2000/svg">
<g clip-path="url(#clip0)">
<path d="M159.275 59.084H157.911V21.66C157.911 15.9154 155.633 10.4061 151.576 6.34408C147.52 2.28204 142.019 7.24854e-06 136.282 0H57.1066C54.2662 -7.1781e-06 51.4536 0.560238 48.8295 1.64875C46.2053 2.73726 43.8209 4.33272 41.8124 6.34403C39.8039 8.35534 38.2107 10.7431 37.1237 13.371C36.0368 15.9989 35.4773 18.8155 35.4773 21.66V226.971C35.4773 229.815 36.0368 232.632 37.1237 235.26C38.2107 237.888 39.8039 240.276 41.8124 242.287C43.8208 244.298 46.2052 245.894 48.8294 246.982C51.4536 248.071 54.2662 248.631 57.1066 248.631H136.282C142.018 248.631 147.52 246.349 151.576 242.287C155.632 238.225 157.911 232.716 157.911 226.971V85.7231H159.275L159.275 59.084Z" fill="#E6E6E6"/>
<path d="M137.155 5.63525H126.82C127.295 6.80214 127.476 8.06817 127.348 9.32181C127.219 10.5755 126.785 11.7782 126.083 12.8242C125.381 13.8702 124.433 14.7272 123.323 15.3198C122.212 15.9124 120.973 16.2225 119.714 16.2226H74.3559C73.0974 16.2225 71.8583 15.9125 70.7477 15.3198C69.6371 14.7272 68.6891 13.8702 67.9871 12.8242C67.2852 11.7782 66.8509 10.5755 66.7225 9.32182C66.5941 8.06817 66.7755 6.80214 67.2508 5.63525H57.5978C53.3139 5.63525 49.2055 7.33944 46.1763 10.3729C43.1471 13.4064 41.4453 17.5207 41.4453 21.8107V226.82C41.4453 228.945 41.8631 231.048 42.6748 233.011C43.4866 234.973 44.6764 236.756 46.1763 238.258C47.6762 239.76 49.4568 240.952 51.4165 241.765C53.3763 242.578 55.4767 242.996 57.5978 242.996H137.155C139.276 242.996 141.376 242.578 143.336 241.765C145.296 240.952 147.076 239.76 148.576 238.258C150.076 236.756 151.266 234.973 152.078 233.011C152.889 231.048 153.307 228.945 153.307 226.821V21.8107C153.307 19.6865 152.889 17.5831 152.078 15.6206C151.266 13.6581 150.076 11.8749 148.576 10.3729C147.076 8.87089 145.296 7.67942 143.336 6.86653C141.376 6.05364 139.276 5.63525 137.155 5.63526V5.63525Z" fill="white"/>
<path d="M261.659 249H0.341146C0.250668 249 0.163896 248.964 0.099919 248.9C0.0359418 248.836 0 248.749 0 248.659C0 248.568 0.0359418 248.481 0.099919 248.417C0.163896 248.353 0.250668 248.317 0.341146 248.317H261.659C261.749 248.317 261.836 248.353 261.9 248.417C261.964 248.481 262 248.568 262 248.659C262 248.749 261.964 248.836 261.9 248.9C261.836 248.964 261.749 249 261.659 249Z" fill="#3F3D56"/>
<path d="M145.608 62.3489H49.1066C48.6329 62.3483 48.1786 62.1596 47.8436 61.8241C47.5086 61.4886 47.3201 61.0338 47.3196 60.5593V36.5874C47.3201 36.113 47.5086 35.6581 47.8436 35.3226C48.1786 34.9871 48.6329 34.7984 49.1066 34.7979H145.608C146.082 34.7984 146.536 34.9871 146.871 35.3226C147.206 35.6581 147.394 36.113 147.395 36.5874V60.5593C147.394 61.0338 147.206 61.4886 146.871 61.8241C146.536 62.1596 146.082 62.3483 145.608 62.3489ZM49.1066 35.5137C48.8224 35.514 48.5498 35.6272 48.3488 35.8285C48.1478 36.0298 48.0347 36.3028 48.0344 36.5874V60.5593C48.0347 60.844 48.1478 61.1169 48.3488 61.3182C48.5498 61.5195 48.8224 61.6328 49.1066 61.6331H145.608C145.892 61.6328 146.165 61.5195 146.366 61.3182C146.567 61.1169 146.68 60.844 146.68 60.5593V36.5874C146.68 36.3028 146.567 36.0298 146.366 35.8285C146.165 35.6272 145.892 35.514 145.608 35.5137H49.1066Z" fill="#3F3D56"/>
<path d="M145.608 157.198H49.1066C48.6329 157.197 48.1786 157.008 47.8436 156.673C47.5086 156.337 47.3201 155.882 47.3196 155.408V111.035C47.3201 110.56 47.5086 110.105 47.8436 109.77C48.1786 109.434 48.6329 109.246 49.1066 109.245H145.608C146.082 109.246 146.536 109.434 146.871 109.77C147.206 110.105 147.394 110.56 147.395 111.035V155.408C147.394 155.882 147.206 156.337 146.871 156.673C146.536 157.008 146.082 157.197 145.608 157.198ZM49.1066 109.961C48.8224 109.961 48.5498 110.074 48.3488 110.276C48.1478 110.477 48.0347 110.75 48.0344 111.035V155.408C48.0347 155.693 48.1478 155.966 48.3488 156.167C48.5498 156.368 48.8224 156.481 49.1066 156.482H145.608C145.892 156.481 146.165 156.368 146.366 156.167C146.567 155.966 146.68 155.693 146.68 155.408V111.035C146.68 110.75 146.567 110.477 146.366 110.276C146.165 110.074 145.892 109.961 145.608 109.961L49.1066 109.961Z" fill="#3F3D56"/>
<path d="M144.893 99.5725H102.004C101.53 99.5719 101.076 99.3832 100.741 99.0477C100.406 98.7122 100.217 98.2574 100.217 97.7829V73.8111C100.217 73.3366 100.406 72.8818 100.741 72.5463C101.076 72.2108 101.53 72.022 102.004 72.0215H144.893C145.367 72.022 145.821 72.2108 146.156 72.5463C146.491 72.8818 146.68 73.3366 146.68 73.8111V97.7829C146.68 98.2574 146.491 98.7122 146.156 99.0477C145.821 99.3832 145.367 99.5719 144.893 99.5725ZM102.004 72.7373C101.719 72.7376 101.447 72.8508 101.246 73.0522C101.045 73.2535 100.932 73.5264 100.931 73.8111V97.7829C100.932 98.0676 101.045 98.3405 101.246 98.5418C101.447 98.7431 101.719 98.8564 102.004 98.8567H144.893C145.177 98.8564 145.45 98.7432 145.651 98.5418C145.852 98.3405 145.965 98.0676 145.965 97.7829V73.8111C145.965 73.5264 145.852 73.2534 145.651 73.0521C145.45 72.8508 145.177 72.7376 144.893 72.7373L102.004 72.7373Z" fill="#E6E6E6"/>
<path d="M91.9962 215.18H49.1066C48.6329 215.18 48.1786 214.991 47.8436 214.655C47.5086 214.32 47.3201 213.865 47.3196 213.391V168.659C47.3201 168.185 47.5086 167.73 47.8436 167.395C48.1786 167.059 48.6329 166.87 49.1066 166.87H91.9962C92.47 166.87 92.9242 167.059 93.2592 167.395C93.5942 167.73 93.7827 168.185 93.7833 168.659V213.391C93.7827 213.865 93.5942 214.32 93.2592 214.655C92.9242 214.991 92.47 215.18 91.9962 215.18ZM49.1066 167.586C48.8224 167.586 48.5498 167.699 48.3488 167.901C48.1478 168.102 48.0347 168.375 48.0344 168.659V213.391C48.0347 213.675 48.1478 213.948 48.3488 214.15C48.5498 214.351 48.8224 214.464 49.1066 214.464H91.9962C92.2805 214.464 92.553 214.351 92.7541 214.15C92.9551 213.948 93.0681 213.675 93.0684 213.391V168.659C93.0681 168.375 92.9551 168.102 92.7541 167.901C92.553 167.699 92.2805 167.586 91.9962 167.586H49.1066Z" fill="#E6E6E6"/>
<path d="M144.893 215.18H102.004C101.53 215.18 101.076 214.991 100.741 214.655C100.406 214.32 100.217 213.865 100.217 213.391V168.659C100.217 168.185 100.406 167.73 100.741 167.395C101.076 167.059 101.53 166.87 102.004 166.87H144.893C145.367 166.87 145.821 167.059 146.156 167.395C146.491 167.73 146.68 168.185 146.68 168.659V213.391C146.68 213.865 146.491 214.32 146.156 214.655C145.821 214.991 145.367 215.18 144.893 215.18ZM102.004 167.586C101.719 167.586 101.447 167.699 101.246 167.901C101.045 168.102 100.932 168.375 100.931 168.659V213.391C100.932 213.675 101.045 213.948 101.246 214.15C101.447 214.351 101.719 214.464 102.004 214.464H144.893C145.177 214.464 145.45 214.351 145.651 214.15C145.852 213.948 145.965 213.675 145.965 213.391V168.659C145.965 168.375 145.852 168.102 145.651 167.901C145.45 167.699 145.177 167.586 144.893 167.586H102.004Z" fill="#E6E6E6"/>
<path d="M63.3862 132.254C67.4066 132.254 70.6658 128.99 70.6658 124.964C70.6658 120.938 67.4066 117.674 63.3862 117.674C59.3658 117.674 56.1067 120.938 56.1067 124.964C56.1067 128.99 59.3658 132.254 63.3862 132.254Z" fill="#6C63FF"/>
<path d="M80.1984 120.104C79.8766 120.104 79.568 120.232 79.3405 120.46C79.1129 120.688 78.9851 120.997 78.9851 121.319C78.9851 121.641 79.1129 121.95 79.3405 122.178C79.568 122.406 79.8766 122.534 80.1984 122.534H137.395C137.716 122.533 138.024 122.405 138.251 122.177C138.478 121.949 138.605 121.641 138.605 121.319C138.605 120.997 138.478 120.689 138.251 120.461C138.024 120.233 137.716 120.105 137.395 120.104H80.1984Z" fill="#6C63FF"/>
<path d="M80.1985 127.394C80.0392 127.394 79.8813 127.425 79.734 127.486C79.5867 127.546 79.4527 127.636 79.3398 127.748C79.2269 127.861 79.1373 127.994 79.076 128.142C79.0147 128.289 78.983 128.447 78.9827 128.606C78.9823 128.766 79.0134 128.924 79.074 129.072C79.1347 129.219 79.2238 129.353 79.3362 129.466C79.4486 129.579 79.5822 129.669 79.7293 129.731C79.8763 129.792 80.034 129.824 80.1934 129.824H104.81C104.97 129.824 105.128 129.793 105.275 129.732C105.423 129.671 105.557 129.582 105.669 129.469C105.782 129.356 105.872 129.222 105.933 129.074C105.994 128.927 106.026 128.769 106.026 128.609C106.026 128.449 105.994 128.291 105.933 128.144C105.872 127.996 105.782 127.862 105.669 127.749C105.557 127.636 105.423 127.547 105.275 127.486C105.128 127.425 104.97 127.394 104.81 127.394H80.1985Z" fill="#6C63FF"/>
<path d="M57.8026 139.048C56.8797 139.048 56.1287 139.593 56.1287 140.263C56.1287 140.933 56.8797 141.478 57.8026 141.478H136.716C137.639 141.478 138.39 140.933 138.39 140.263C138.39 139.593 137.639 139.048 136.716 139.048H57.8026Z" fill="#CCCCCC"/>
<path d="M57.8026 146.338C56.8797 146.338 56.1287 146.883 56.1287 147.553C56.1287 148.223 56.8797 148.768 57.8026 148.768H136.716C137.639 148.768 138.39 148.223 138.39 147.553C138.39 146.883 137.639 146.338 136.716 146.338H57.8026Z" fill="#CCCCCC"/>
<path d="M64.1008 54.9433C68.1212 54.9433 71.3804 51.6795 71.3804 47.6534C71.3804 43.6273 68.1212 40.3635 64.1008 40.3635C60.0804 40.3635 56.8213 43.6273 56.8213 47.6534C56.8213 51.6795 60.0804 54.9433 64.1008 54.9433Z" fill="#6C63FF"/>
<path d="M80.9133 42.7937C80.592 42.7945 80.2841 42.9228 80.0572 43.1506C79.8303 43.3783 79.7029 43.6869 79.7029 44.0087C79.7029 44.3304 79.8303 44.639 80.0572 44.8668C80.2841 45.0946 80.592 45.2229 80.9133 45.2237H138.11C138.269 45.2242 138.427 45.1932 138.574 45.1325C138.722 45.0719 138.856 44.9827 138.969 44.8701C139.082 44.7575 139.172 44.6237 139.233 44.4763C139.295 44.3289 139.326 44.1709 139.327 44.0112C139.327 43.8516 139.296 43.6934 139.235 43.5458C139.174 43.3982 139.085 43.264 138.973 43.1509C138.86 43.0378 138.726 42.9481 138.579 42.8868C138.432 42.8255 138.274 42.7939 138.115 42.7937C138.113 42.7937 138.111 42.7937 138.11 42.7937H80.9133Z" fill="#6C63FF"/>
<path d="M80.9133 50.0835C80.592 50.0843 80.2841 50.2126 80.0572 50.4404C79.8303 50.6681 79.7029 50.9767 79.7029 51.2985C79.7029 51.6202 79.8303 51.9288 80.0572 52.1566C80.2841 52.3843 80.592 52.5127 80.9133 52.5134H105.525C105.684 52.514 105.842 52.483 105.99 52.4223C106.137 52.3616 106.271 52.2725 106.384 52.1599C106.498 52.0473 106.587 51.9135 106.649 51.7661C106.71 51.6187 106.742 51.4607 106.742 51.301C106.742 51.1414 106.711 50.9832 106.651 50.8356C106.59 50.688 106.501 50.5538 106.388 50.4407C106.276 50.3276 106.142 50.2379 105.995 50.1766C105.847 50.1153 105.69 50.0837 105.53 50.0835C105.528 50.0835 105.527 50.0835 105.525 50.0835H80.9133Z" fill="#6C63FF"/>
<path d="M91.9582 99.5767H51.7241L61.1925 83.1533C61.3622 82.859 61.6063 82.6145 61.9003 82.4446C62.1942 82.2746 62.5276 82.1851 62.867 82.1851C63.2064 82.1851 63.5399 82.2746 63.8338 82.4446C64.1278 82.6145 64.3718 82.859 64.5415 83.1533L68.5863 90.1691L75.4639 78.24C75.6763 77.8715 75.9819 77.5654 76.3499 77.3526C76.7179 77.1399 77.1354 77.0278 77.5603 77.0278C77.9853 77.0278 78.4027 77.1399 78.7707 77.3526C79.1387 77.5654 79.4443 77.8715 79.6568 78.24L91.9582 99.5767ZM52.9621 98.8609H90.7202L79.0377 78.5979C78.888 78.3382 78.6727 78.1225 78.4133 77.9725C78.154 77.8226 77.8598 77.7436 77.5604 77.7436C77.2609 77.7436 76.9668 77.8226 76.7074 77.9725C76.4481 78.1225 76.2328 78.3382 76.0831 78.5979L68.5863 91.6008L63.9224 83.5113C63.8154 83.3257 63.6616 83.1716 63.4764 83.0645C63.2911 82.9574 63.081 82.901 62.8671 82.901C62.6531 82.901 62.443 82.9574 62.2578 83.0645C62.0725 83.1716 61.9187 83.3257 61.8118 83.5113L52.9621 98.8609Z" fill="#E6E6E6"/>
<path d="M143.425 99.5767H103.191L112.66 83.1533C112.829 82.8589 113.073 82.6145 113.367 82.4445C113.661 82.2746 113.995 82.1851 114.334 82.1851C114.673 82.1851 115.007 82.2746 115.301 82.4445C115.595 82.6145 115.839 82.8589 116.009 83.1533L120.053 90.1691L126.931 78.24C127.143 77.8714 127.449 77.5654 127.817 77.3526C128.185 77.1398 128.602 77.0278 129.027 77.0278C129.452 77.0278 129.87 77.1398 130.238 77.3526C130.606 77.5654 130.911 77.8714 131.124 78.24L143.425 99.5767ZM104.429 98.8609H142.187L130.505 78.5979C130.355 78.3382 130.14 78.1225 129.88 77.9725C129.621 77.8226 129.327 77.7436 129.027 77.7436C128.728 77.7436 128.434 77.8226 128.174 77.9725C127.915 78.1225 127.7 78.3382 127.55 78.5979L120.053 91.6008L115.389 83.5112C115.282 83.3257 115.129 83.1716 114.943 83.0645C114.758 82.9573 114.548 82.9009 114.334 82.9009C114.12 82.9009 113.91 82.9573 113.725 83.0645C113.54 83.1716 113.386 83.3257 113.279 83.5112L104.429 98.8609Z" fill="#E6E6E6"/>
<path d="M91.9962 99.5725H49.1066C48.6329 99.5719 48.1786 99.3832 47.8436 99.0477C47.5086 98.7122 47.3201 98.2574 47.3196 97.7829V73.8111C47.3201 73.3366 47.5086 72.8818 47.8436 72.5463C48.1786 72.2108 48.6329 72.022 49.1066 72.0215H91.9962C92.47 72.022 92.9242 72.2108 93.2592 72.5463C93.5942 72.8818 93.7827 73.3366 93.7833 73.8111V97.7829C93.7827 98.2574 93.5942 98.7122 93.2592 99.0477C92.9242 99.3832 92.47 99.5719 91.9962 99.5725ZM49.1066 72.7373C48.8223 72.7376 48.5498 72.8508 48.3488 73.0522C48.1478 73.2535 48.0347 73.5264 48.0344 73.8111V97.7829C48.0347 98.0676 48.1478 98.3405 48.3488 98.5418C48.5498 98.7431 48.8223 98.8564 49.1066 98.8567H91.9962C92.2805 98.8564 92.553 98.7431 92.754 98.5418C92.9551 98.3405 93.0681 98.0676 93.0684 97.7829V73.8111C93.0681 73.5264 92.9551 73.2534 92.754 73.0521C92.553 72.8508 92.2805 72.7376 91.9962 72.7373L49.1066 72.7373Z" fill="#E6E6E6"/>
<path d="M58.2458 176.094C58.0863 176.094 57.9283 176.125 57.7809 176.186C57.6335 176.247 57.4995 176.337 57.3866 176.449C57.2737 176.562 57.1842 176.696 57.1231 176.844C57.062 176.991 57.0305 177.15 57.0305 177.309C57.0305 177.469 57.062 177.627 57.1231 177.775C57.1842 177.922 57.2737 178.056 57.3866 178.169C57.4995 178.282 57.6335 178.371 57.7809 178.432C57.9283 178.493 58.0863 178.525 58.2458 178.524H82.8575C83.1793 178.524 83.4879 178.396 83.7155 178.168C83.943 177.941 84.0708 177.631 84.0708 177.309C84.0708 176.987 83.943 176.678 83.7155 176.45C83.4879 176.222 83.1793 176.094 82.8575 176.094H58.2458Z" fill="#E6E6E6"/>
<path d="M58.2458 183.253C58.0863 183.252 57.9283 183.284 57.7809 183.345C57.6335 183.406 57.4995 183.495 57.3866 183.608C57.2737 183.721 57.1842 183.855 57.1231 184.002C57.062 184.15 57.0305 184.308 57.0305 184.468C57.0305 184.627 57.062 184.786 57.1231 184.933C57.1842 185.081 57.2737 185.215 57.3866 185.328C57.4995 185.44 57.6335 185.53 57.7809 185.591C57.9283 185.652 58.0863 185.683 58.2458 185.683H82.8576C83.179 185.682 83.4871 185.554 83.7141 185.326C83.9412 185.098 84.0688 184.79 84.0688 184.468C84.0688 184.146 83.9412 183.837 83.7141 183.609C83.4871 183.381 83.179 183.253 82.8576 183.253H58.2458Z" fill="#E6E6E6"/>
<path d="M70.5517 205.956C69.0413 205.956 67.5647 205.507 66.3089 204.667C65.053 203.827 64.0741 202.632 63.4961 201.235C62.9181 199.837 62.7669 198.3 63.0615 196.816C63.3562 195.333 64.0836 193.97 65.1516 192.9C66.2196 191.831 67.5804 191.102 69.0618 190.807C70.5432 190.512 72.0788 190.664 73.4742 191.243C74.8697 191.821 76.0624 192.802 76.9016 194.059C77.7407 195.317 78.1886 196.796 78.1886 198.308C78.1863 200.336 77.381 202.28 75.9493 203.713C74.5176 205.147 72.5764 205.954 70.5517 205.956ZM70.5517 191.376C69.1826 191.376 67.8443 191.783 66.706 192.545C65.5677 193.306 64.6805 194.389 64.1565 195.655C63.6326 196.922 63.4955 198.316 63.7626 199.661C64.0297 201.005 64.689 202.24 65.6571 203.21C66.6251 204.179 67.8585 204.839 69.2013 205.107C70.544 205.374 71.9358 205.237 73.2007 204.712C74.4655 204.188 75.5466 203.299 76.3072 202.159C77.0678 201.019 77.4738 199.679 77.4738 198.308C77.4716 196.47 76.7416 194.708 75.444 193.409C74.1463 192.109 72.3869 191.378 70.5517 191.376V191.376Z" fill="#E6E6E6"/>
<path d="M135.754 205.956C135.914 205.956 136.072 205.925 136.219 205.864C136.367 205.803 136.501 205.714 136.614 205.601C136.727 205.488 136.816 205.354 136.877 205.206C136.938 205.059 136.97 204.901 136.97 204.741C136.97 204.581 136.938 204.423 136.877 204.275C136.816 204.128 136.727 203.994 136.614 203.881C136.501 203.768 136.367 203.679 136.219 203.618C136.072 203.557 135.914 203.526 135.754 203.526H111.143C110.821 203.526 110.512 203.654 110.285 203.882C110.057 204.11 109.929 204.419 109.929 204.741C109.929 205.063 110.057 205.372 110.285 205.6C110.512 205.828 110.821 205.956 111.143 205.956H135.754Z" fill="#E6E6E6"/>
<path d="M135.754 198.798C135.914 198.798 136.072 198.767 136.219 198.706C136.367 198.645 136.501 198.555 136.614 198.443C136.727 198.33 136.816 198.196 136.877 198.048C136.938 197.901 136.97 197.742 136.97 197.583C136.97 197.423 136.938 197.265 136.877 197.117C136.816 196.97 136.727 196.836 136.614 196.723C136.501 196.61 136.367 196.521 136.219 196.46C136.072 196.399 135.914 196.367 135.754 196.368H111.143C110.821 196.368 110.512 196.496 110.285 196.724C110.057 196.951 109.929 197.26 109.929 197.583C109.929 197.905 110.057 198.214 110.285 198.442C110.512 198.67 110.821 198.798 111.143 198.798H135.754Z" fill="#E6E6E6"/>
<path d="M123.448 176.094C124.959 176.094 126.435 176.543 127.691 177.383C128.947 178.223 129.926 179.418 130.504 180.815C131.082 182.213 131.233 183.75 130.938 185.234C130.644 186.717 129.916 188.08 128.848 189.15C127.78 190.219 126.419 190.948 124.938 191.243C123.457 191.538 121.921 191.386 120.526 190.808C119.13 190.229 117.937 189.248 117.098 187.991C116.259 186.733 115.811 185.255 115.811 183.742V183.742C115.814 181.714 116.619 179.77 118.051 178.337C119.482 176.903 121.423 176.097 123.448 176.094ZM123.448 190.674C124.817 190.674 126.156 190.267 127.294 189.506C128.432 188.744 129.319 187.661 129.843 186.395C130.367 185.128 130.504 183.734 130.237 182.39C129.97 181.045 129.311 179.81 128.343 178.84C127.375 177.871 126.141 177.211 124.799 176.943C123.456 176.676 122.064 176.813 120.799 177.338C119.534 177.862 118.453 178.751 117.693 179.891C116.932 181.031 116.526 182.371 116.526 183.742V183.742C116.528 185.58 117.258 187.342 118.556 188.641C119.854 189.941 121.613 190.672 123.448 190.674V190.674Z" fill="#E6E6E6"/>
<path d="M201.271 243.831H195.749L193.123 222.501L201.272 222.502L201.271 243.831Z" fill="#FFB8B8"/>
<path d="M190.179 242.25H202.455V248.965H185.1V247.336C185.1 245.987 185.635 244.694 186.588 243.74C187.54 242.786 188.832 242.25 190.179 242.25Z" fill="#2F2E41"/>
<path d="M223.342 243.831H217.82L215.193 222.501L223.343 222.502L223.342 243.831Z" fill="#FFB8B8"/>
<path d="M212.249 242.25H224.525V248.965H207.17V247.336C207.17 245.987 207.705 244.694 208.658 243.74C209.61 242.786 210.902 242.25 212.249 242.25Z" fill="#2F2E41"/>
<path d="M191.651 182.343C192.101 181.92 192.453 181.403 192.683 180.829C192.912 180.255 193.013 179.638 192.978 179.02C192.944 178.403 192.774 177.801 192.482 177.256C192.19 176.711 191.782 176.237 191.287 175.868L193.653 166.497L188.317 163.669L185.162 176.949C184.597 177.822 184.371 178.873 184.528 179.902C184.685 180.932 185.214 181.867 186.014 182.532C186.814 183.197 187.829 183.545 188.868 183.51C189.907 183.475 190.897 183.06 191.651 182.343Z" fill="#FFB8B8"/>
<path d="M225.306 165.977L224.855 197.55L224.405 239.047L214.496 238.145L209.541 180.861L203.236 238.145H193.005L191.975 180.41L195.579 167.781L225.306 165.977Z" fill="#2F2E41"/>
<path d="M194.591 167.973L194.446 167.908L200.093 129.226L197.222 117.534C197.073 116.926 197.152 116.284 197.444 115.73C197.736 115.176 198.22 114.748 198.806 114.528L203.971 112.589L205.796 107.563L220.195 109.116L220.549 113.044C222.109 113.545 234.958 117.831 234.071 122.713C233.196 127.532 228.03 142.695 227.768 143.463L226.863 165.208L226.752 165.263C226.618 165.33 216.693 170.217 205.911 170.216C202.115 170.216 198.209 169.61 194.591 167.973Z" fill="#3F3D56"/>
<path d="M184.975 172.033L189.515 142.94C189.542 142.768 192.228 125.737 193.118 120.385C194.038 114.86 198.309 114.796 198.352 114.796H200.703L203.452 127.185L198.036 152.044L193.039 172.643L184.975 172.033Z" fill="#3F3D56"/>
<path d="M214.42 169.162C214.449 168.545 214.614 167.941 214.901 167.394C215.188 166.846 215.592 166.369 216.084 165.995C216.575 165.621 217.143 165.359 217.746 165.229C218.35 165.098 218.975 165.101 219.577 165.239L225.162 157.356L230.773 159.587L222.729 170.607C222.432 171.605 221.78 172.459 220.896 173.007C220.012 173.555 218.958 173.759 217.934 173.581C216.91 173.403 215.986 172.854 215.339 172.04C214.691 171.226 214.364 170.202 214.42 169.162Z" fill="#FFB8B8"/>
<path d="M220.547 162.383L230.477 145.658L226.431 134.854L231.942 120.138L232.145 120.226C232.278 120.283 235.409 121.682 235.873 126.693L242.206 146.622L225.305 168.578L220.547 162.383Z" fill="#3F3D56"/>
<path d="M221.528 99.6734C224.274 94.6424 222.428 88.3344 217.404 85.5842C212.38 82.834 206.081 84.683 203.334 89.714C200.588 94.745 202.434 101.053 207.458 103.803C212.482 106.553 218.781 104.704 221.528 99.6734Z" fill="#FFB8B8"/>
<path d="M205.471 89.6372C206.544 90.909 208.36 91.2679 210.036 91.415C213.438 91.7138 218.385 91.2291 221.711 90.4603C221.948 92.7637 221.301 95.2474 222.656 97.1422C223.291 94.8482 223.66 92.4887 223.756 90.1102C223.797 89.0901 223.781 88.0349 223.367 87.0984C222.953 86.162 222.051 85.3671 221.011 85.3588C221.783 84.772 222.688 84.3847 223.645 84.231L220.353 82.5744L221.199 81.7053L215.239 81.3401L216.965 80.242C214.367 79.8845 211.739 79.8014 209.124 79.9941C207.909 80.0837 206.64 80.2549 205.656 80.9595C204.672 81.6642 204.103 83.0646 204.714 84.0992C203.949 84.225 203.229 84.5441 202.622 85.0265C202.015 85.509 201.541 86.1386 201.245 86.8558C200.806 87.9695 200.846 89.2065 200.981 90.3933C201.206 92.2913 201.646 94.1575 202.294 95.9553" fill="#2F2E41"/>
</g>
<defs>
<clipPath id="clip0">
<rect width="262" height="249" fill="white"/>
</clipPath>
</defs>
</svg>
