<svg width="31" height="32" viewBox="0 0 31 32" fill="none" xmlns="http://www.w3.org/2000/svg">
<path fill-rule="evenodd" clip-rule="evenodd" d="M0 6.7C0 5.05566 0.653212 3.47866 1.81594 2.31594C2.97866 1.15321 4.55566 0.5 6.2 0.5H24.8C26.4443 0.5 28.0213 1.15321 29.1841 2.31594C30.3468 3.47866 31 5.05566 31 6.7V25.3C31 26.9443 30.3468 28.5213 29.1841 29.6841C28.0213 30.8468 26.4443 31.5 24.8 31.5H6.2C4.55566 31.5 2.97866 30.8468 1.81594 29.6841C0.653212 28.5213 0 26.9443 0 25.3V6.7ZM6.2 3.6C5.37783 3.6 4.58933 3.92661 4.00797 4.50797C3.42661 5.08933 3.1 5.87783 3.1 6.7V25.3C3.1 26.1222 3.42661 26.9107 4.00797 27.492C4.58933 28.0734 5.37783 28.4 6.2 28.4H15.5V17.55H13.95C13.5389 17.55 13.1447 17.3867 12.854 17.096C12.5633 16.8053 12.4 16.4111 12.4 16C12.4 15.5889 12.5633 15.1947 12.854 14.904C13.1447 14.6133 13.5389 14.45 13.95 14.45H15.5V12.125C15.5 10.6862 16.0716 9.30633 17.0889 8.28895C18.1063 7.27156 19.4862 6.7 20.925 6.7H21.855C22.2661 6.7 22.6603 6.8633 22.951 7.15398C23.2417 7.44467 23.405 7.83891 23.405 8.25C23.405 8.66109 23.2417 9.05533 22.951 9.34601C22.6603 9.6367 22.2661 9.8 21.855 9.8H20.925C20.6197 9.8 20.3173 9.86014 20.0353 9.97698C19.7532 10.0938 19.4969 10.2651 19.281 10.481C19.0651 10.6969 18.8938 10.9532 18.777 11.2353C18.6601 11.5173 18.6 11.8197 18.6 12.125V14.45H21.855C22.2661 14.45 22.6603 14.6133 22.951 14.904C23.2417 15.1947 23.405 15.5889 23.405 16C23.405 16.4111 23.2417 16.8053 22.951 17.096C22.6603 17.3867 22.2661 17.55 21.855 17.55H18.6V28.4H24.8C25.6222 28.4 26.4107 28.0734 26.992 27.492C27.5734 26.9107 27.9 26.1222 27.9 25.3V6.7C27.9 5.87783 27.5734 5.08933 26.992 4.50797C26.4107 3.92661 25.6222 3.6 24.8 3.6H6.2Z" fill="#146EB5"/>
</svg>
