<svg width="310" height="230" viewBox="0 0 310 230" fill="none" xmlns="http://www.w3.org/2000/svg">
<g clip-path="url(#clip0)">
<path d="M279.456 7.6499H0.488281V140.055H279.456V7.6499Z" fill="#E6E6E6"/>
<path d="M271.478 19.0039H8.46484V129.474H271.478V19.0039Z" fill="white"/>
<path d="M279.337 0H0.369141V11.8541H279.337V0Z" fill="#6C63FF"/>
<path d="M9.1761 9.16765C10.3893 9.16765 11.3727 8.18398 11.3727 6.97055C11.3727 5.75712 10.3893 4.77344 9.1761 4.77344C7.96295 4.77344 6.97949 5.75712 6.97949 6.97055C6.97949 8.18398 7.96295 9.16765 9.1761 9.16765Z" fill="white"/>
<path d="M17.514 9.16765C18.7271 9.16765 19.7106 8.18398 19.7106 6.97055C19.7106 5.75712 18.7271 4.77344 17.514 4.77344C16.3008 4.77344 15.3174 5.75712 15.3174 6.97055C15.3174 8.18398 16.3008 9.16765 17.514 9.16765Z" fill="white"/>
<path d="M25.8519 9.16765C27.065 9.16765 28.0485 8.18398 28.0485 6.97055C28.0485 5.75712 27.065 4.77344 25.8519 4.77344C24.6387 4.77344 23.6553 5.75712 23.6553 6.97055C23.6553 8.18398 24.6387 9.16765 25.8519 9.16765Z" fill="white"/>
<path d="M197.064 35.7993H160.021V38.5841H197.064V35.7993Z" fill="#E6E6E6"/>
<path d="M217.223 43.9746H160.021V46.7594H217.223V43.9746Z" fill="#6C63FF"/>
<path d="M207.234 51.7605H160.616V54.5453H207.234V51.7605Z" fill="#E6E6E6"/>
<path d="M187.236 60.3032H160.021V63.088H187.236V60.3032Z" fill="#E6E6E6"/>
<path d="M201.095 68.6479H160.021V71.4328H201.095V68.6479Z" fill="#6C63FF"/>
<path d="M147.674 34.9233H143.139V39.4602H147.674V34.9233Z" fill="#E6E6E6"/>
<path d="M147.674 43.0984H143.139V47.6352H147.674V43.0984Z" fill="#6C63FF"/>
<path d="M147.674 50.8843H143.139V55.4211H147.674V50.8843Z" fill="#E6E6E6"/>
<path d="M147.674 59.4272H143.139V63.9641H147.674V59.4272Z" fill="#E6E6E6"/>
<path d="M147.674 67.772H143.139V72.3088H147.674V67.772Z" fill="#6C63FF"/>
<path d="M197.064 77.0447H160.021V79.8295H197.064V77.0447Z" fill="#E6E6E6"/>
<path d="M217.223 85.22H160.021V88.0048H217.223V85.22Z" fill="#6C63FF"/>
<path d="M207.234 93.0059H160.616V95.7907H207.234V93.0059Z" fill="#E6E6E6"/>
<path d="M187.236 101.549H160.021V104.333H187.236V101.549Z" fill="#E6E6E6"/>
<path d="M201.095 109.893H160.021V112.678H201.095V109.893Z" fill="#E6E6E6"/>
<path d="M147.674 76.1687H143.139V80.7055H147.674V76.1687Z" fill="#E6E6E6"/>
<path d="M147.674 84.3438H143.139V88.8806H147.674V84.3438Z" fill="#6C63FF"/>
<path d="M147.674 92.1296H143.139V96.6665H147.674V92.1296Z" fill="#E6E6E6"/>
<path d="M147.674 100.673H143.139V105.209H147.674V100.673Z" fill="#E6E6E6"/>
<path d="M147.674 109.017H143.139V113.554H147.674V109.017Z" fill="#E6E6E6"/>
<path d="M79.8811 98.8887H42.8389V101.673H79.8811V98.8887Z" fill="#3F3D56"/>
<path d="M84.5006 106.125H37.8828V108.91H84.5006V106.125Z" fill="#3F3D56"/>
<path d="M85.4354 63.7596C85.4339 67.9451 84.3471 72.0586 82.2813 75.6984C80.2154 79.3383 77.2411 82.38 73.6488 84.5266C70.0565 86.6731 65.969 87.8511 61.7856 87.9455C57.6021 88.0398 53.4657 87.0474 49.7803 85.065L49.7757 85.0603C46.0112 83.0318 42.8516 80.0414 40.6188 76.3938C38.3861 72.7462 37.16 68.5717 37.0655 64.2958C36.971 60.0198 38.0114 55.7953 40.0808 52.0525C42.1502 48.3098 45.1746 45.1826 48.8458 42.9897C52.5169 40.7968 56.7037 39.6165 60.9795 39.5691C65.2552 39.5217 69.4671 40.6089 73.186 42.7199C76.9048 44.8309 79.9977 47.8902 82.1495 51.5862C84.3014 55.2822 85.4352 59.4826 85.4354 63.7596Z" fill="#3F3D56"/>
<path d="M61.3728 62.5853C65.0041 62.5853 67.9478 59.6409 67.9478 56.0088C67.9478 52.3768 65.0041 49.4324 61.3728 49.4324C57.7416 49.4324 54.7979 52.3768 54.7979 56.0088C54.7979 59.6409 57.7416 62.5853 61.3728 62.5853Z" fill="white"/>
<path d="M72.5995 76.1739C65.2491 78.7545 57.2343 78.7234 49.9041 76.0859L49.8994 76.0827L54.7977 66.4114H67.9477L72.5995 76.1739Z" fill="white"/>
<path d="M260.502 225.023H255.641L253.328 206.269L260.503 206.269L260.502 225.023Z" fill="#FFB7B7"/>
<path d="M261.741 229.736L246.067 229.735V229.537C246.067 227.919 246.71 226.367 247.854 225.222C248.998 224.078 250.55 223.435 252.168 223.435H252.169L261.742 223.435L261.741 229.736Z" fill="#2F2E41"/>
<path d="M272.374 225.023H277.235L279.547 206.269L272.373 206.269L272.374 225.023Z" fill="#FFB7B7"/>
<path d="M271.134 223.435L280.707 223.435H280.707C282.325 223.435 283.877 224.078 285.021 225.222C286.165 226.367 286.808 227.919 286.808 229.537V229.735L271.134 229.736L271.134 223.435Z" fill="#2F2E41"/>
<path d="M259.421 78.4669C261.509 74.2636 259.795 69.1633 255.593 67.075C251.39 64.9866 246.291 66.7011 244.203 70.9043C242.115 75.1075 243.829 80.2078 248.032 82.2962C252.234 84.3845 257.333 82.6701 259.421 78.4669Z" fill="#FFB7B7"/>
<path d="M245.556 133.147C245.556 133.147 242.873 144.329 244.214 149.697C245.556 155.064 249.581 191.74 249.581 191.74L252.264 220.813L262.996 221.707L261.654 187.715L262.996 158.195L270.598 186.82V220.914L281.979 221.362L282.224 176.98C282.224 176.98 283.118 142.093 277.305 137.62C271.492 133.147 270.598 132.253 270.598 132.253L245.556 133.147Z" fill="#2F2E41"/>
<path d="M261.758 83.9475L271.939 89.3148L273.281 135.831C273.281 135.831 267.468 132.253 258.524 136.726C249.581 141.198 243.768 138.067 243.768 138.067L249.134 117.94L246.898 91.1039L250.096 88.2006L261.758 83.9475Z" fill="#CBCBCB"/>
<path d="M250.096 87.354L248.239 88.8675C248.239 88.8675 236.612 94.682 236.165 98.7075L244.214 120.624C244.214 120.624 246.45 125.544 244.661 127.333C242.873 129.122 241.084 133.595 241.531 135.831C241.978 138.067 238.848 147.46 242.425 147.46C246.003 147.46 254.499 125.991 254.052 117.493C253.605 108.995 253.295 86.735 250.096 87.354Z" fill="#2F2E41"/>
<path d="M257.913 84.4515L262.009 83.7698C262.009 83.7698 277.213 87.7952 279.448 94.5043L273.188 110.159C273.188 110.159 277.66 138.784 276.318 138.784H274.977C274.977 138.784 278.554 141.468 276.318 142.362C274.082 143.257 268.716 150.413 267.375 147.282C266.033 144.152 257.984 107.028 258.879 98.977C259.773 90.9261 257.119 85.2949 257.913 84.4515Z" fill="#2F2E41"/>
<path d="M259.691 66.3646L260.089 65.5635L258.087 64.5684C258.087 64.5684 255.878 60.9735 251.881 61.9837C247.884 62.994 246.085 63.5986 246.085 63.5986L244.088 64.6038L245.09 65.6014L243.292 66.206L244.494 66.803L243.096 67.6067L243.848 71.7264C243.848 71.7264 245.098 68.6018 247.501 69.7958C249.904 70.9899 254.299 69.1786 254.299 69.1786L258.117 76.5699C258.117 76.5699 258.905 73.9789 260.309 74.6698C260.309 74.6698 263.897 68.9543 259.691 66.3646Z" fill="#2F2E41"/>
<path d="M272.129 144.849C271.908 144.31 271.808 143.728 271.836 143.146C271.864 142.564 272.019 141.995 272.291 141.479C272.562 140.963 272.944 140.513 273.408 140.161C273.873 139.808 274.409 139.562 274.978 139.439L276.7 125.372L282.308 130.143L279.814 142.77C279.957 143.741 279.738 144.731 279.2 145.552C278.662 146.373 277.842 146.968 276.895 147.224C275.947 147.48 274.939 147.38 274.06 146.943C273.182 146.505 272.495 145.76 272.129 144.849Z" fill="#FFB7B7"/>
<path d="M248.139 143.881C248.302 143.321 248.34 142.733 248.25 142.156C248.161 141.58 247.946 141.031 247.621 140.547C247.296 140.063 246.869 139.656 246.37 139.355C245.871 139.053 245.312 138.865 244.732 138.804L241.529 124.999L236.458 130.338L240.277 142.629C240.238 143.61 240.56 144.571 241.182 145.33C241.804 146.089 242.683 146.594 243.652 146.748C244.621 146.902 245.613 146.696 246.44 146.167C247.267 145.639 247.872 144.826 248.139 143.881Z" fill="#FFB7B7"/>
<path d="M272.345 90.8593C272.345 90.8593 278.158 88.6229 279.947 95.332C281.735 102.041 283.971 115.459 283.971 115.459C284.082 122.921 283.686 122.921 283.971 130.219L282.63 136.928L275.028 136.034L275.359 118.955L271.45 101.594L272.345 90.8593Z" fill="#2F2E41"/>
<path d="M240.189 96.0239L237.433 96.3188C237.433 96.3188 234.823 98.2603 234.823 102.733C234.823 107.206 234.376 120.624 234.376 120.624C234.376 120.624 234.123 120.938 236.165 132.253C237.16 137.768 238.881 140.371 238.881 140.371L244.432 135.215L243.767 121.966L245.556 114.809L240.189 96.0239Z" fill="#2F2E41"/>
<path d="M308.973 230H220.157C220.052 230 219.951 229.958 219.877 229.884C219.803 229.809 219.761 229.709 219.761 229.603C219.761 229.498 219.803 229.397 219.877 229.323C219.951 229.249 220.052 229.207 220.157 229.207H308.973C309.078 229.207 309.179 229.249 309.254 229.323C309.328 229.397 309.37 229.498 309.37 229.603C309.37 229.709 309.328 229.809 309.254 229.884C309.179 229.958 309.078 230 308.973 230Z" fill="#CBCBCB"/>
<path d="M124.204 230H77.0205C76.9154 230 76.8145 229.958 76.7401 229.884C76.6658 229.809 76.624 229.709 76.624 229.603C76.624 229.498 76.6658 229.397 76.7401 229.323C76.8145 229.249 76.9154 229.207 77.0205 229.207H124.204C124.309 229.207 124.41 229.249 124.484 229.323C124.559 229.397 124.6 229.498 124.6 229.603C124.6 229.709 124.559 229.809 124.484 229.884C124.41 229.958 124.309 230 124.204 230Z" fill="#CBCBCB"/>
<path d="M103.223 213.13C95.4874 218.898 93.2949 229.047 93.2949 229.047C93.2949 229.047 103.645 229.844 111.381 224.076C119.117 218.308 121.31 208.159 121.31 208.159C121.31 208.159 110.959 207.362 103.223 213.13Z" fill="#F2F2F2"/>
<path d="M106.446 215.838C102.728 224.744 93.4158 229.334 93.4158 229.334C93.4158 229.334 90.1323 219.484 93.8503 210.578C97.5683 201.672 106.88 197.083 106.88 197.083C106.88 197.083 110.164 206.932 106.446 215.838Z" fill="#F2F2F2"/>
</g>
<defs>
<clipPath id="clip0">
<rect width="309" height="230" fill="white" transform="translate(0.369141)"/>
</clipPath>
</defs>
</svg>
