<svg width="469" height="364" viewBox="0 0 469 364" fill="none" xmlns="http://www.w3.org/2000/svg">
<g clip-path="url(#clip0)">
<path d="M232.834 358.446H227.853L225.483 339.231L232.835 339.231L232.834 358.446Z" fill="#FFB8B8"/>
<path d="M234.105 363.275L218.042 363.275V363.071C218.042 362.25 218.203 361.437 218.518 360.679C218.832 359.92 219.292 359.231 219.873 358.65C220.454 358.07 221.143 357.609 221.901 357.295C222.66 356.981 223.473 356.819 224.294 356.819H224.294L234.105 356.82L234.105 363.275Z" fill="#2F2E41"/>
<path d="M288.485 353.785L283.79 355.448L275.141 338.127L282.071 335.673L288.485 353.785Z" fill="#FFB8B8"/>
<path d="M291.295 357.913L276.154 363.275L276.086 363.084C275.812 362.31 275.693 361.489 275.736 360.669C275.779 359.849 275.983 359.046 276.336 358.305C276.689 357.564 277.185 356.9 277.795 356.35C278.406 355.801 279.118 355.377 279.892 355.103L279.892 355.103L289.14 351.828L291.295 357.913Z" fill="#2F2E41"/>
<path d="M232.696 351.995C232.584 351.995 232.472 351.984 232.362 351.965L226.27 350.857C225.856 350.78 225.48 350.563 225.206 350.242C224.933 349.922 224.778 349.516 224.768 349.095C223.882 308.089 228.236 280.533 237.707 260.781C237.876 260.432 238.152 260.146 238.495 259.964C238.838 259.783 239.23 259.716 239.613 259.773L261.52 262.936C261.92 262.994 262.289 263.183 262.571 263.473C262.852 263.763 263.03 264.138 263.075 264.54L265.007 281.567C265.018 281.659 265.037 281.749 265.065 281.838L286.068 344.768C286.212 345.226 286.17 345.722 285.952 346.149C285.735 346.577 285.358 346.902 284.904 347.056L279.228 348.948C278.81 349.085 278.357 349.068 277.951 348.9C277.545 348.731 277.212 348.423 277.014 348.031L248.603 294.46C248.547 294.347 248.457 294.254 248.346 294.195C248.235 294.136 248.108 294.112 247.983 294.127C247.858 294.143 247.74 294.197 247.647 294.282C247.554 294.367 247.49 294.479 247.463 294.602L234.475 350.557C234.388 350.964 234.163 351.329 233.839 351.59C233.515 351.852 233.112 351.995 232.696 351.995Z" fill="#2F2E41"/>
<path d="M215.382 227.571C215.432 227.79 215.465 228.013 215.479 228.237L232.935 238.307L237.178 235.865L241.701 241.786L234.61 246.84C234.037 247.248 233.347 247.46 232.644 247.443C231.941 247.426 231.262 247.181 230.71 246.745L212.71 232.545C211.898 232.846 211.013 232.892 210.174 232.678C209.335 232.463 208.581 231.999 208.012 231.345C207.443 230.692 207.087 229.881 206.991 229.02C206.894 228.159 207.062 227.29 207.472 226.526C207.882 225.763 208.514 225.143 209.285 224.748C210.056 224.354 210.929 224.203 211.788 224.316C212.647 224.43 213.45 224.802 214.093 225.383C214.735 225.965 215.184 226.728 215.382 227.571Z" fill="#FFB8B8"/>
<path d="M233.175 237.301C233.227 237.043 233.335 236.8 233.49 236.588C233.645 236.376 233.844 236.2 234.073 236.072L242.084 231.593C243.148 230.771 244.495 230.405 245.828 230.575C247.162 230.745 248.374 231.436 249.198 232.498C250.023 233.56 250.392 234.906 250.226 236.24C250.06 237.574 249.371 238.788 248.312 239.615L241.925 246.247C241.743 246.437 241.522 246.584 241.277 246.681C241.033 246.777 240.77 246.819 240.508 246.805C240.246 246.79 239.989 246.72 239.757 246.597C239.524 246.475 239.321 246.304 239.16 246.096L233.519 238.784C233.358 238.576 233.244 238.336 233.185 238.08C233.126 237.824 233.122 237.558 233.175 237.301Z" fill="#6C63FF"/>
<path d="M251.828 226.567C257.34 226.567 261.809 222.099 261.809 216.587C261.809 211.075 257.34 206.607 251.828 206.607C246.316 206.607 241.848 211.075 241.848 216.587C241.848 222.099 246.316 226.567 251.828 226.567Z" fill="#FFB8B8"/>
<path d="M261.547 265.065C261.447 265.065 261.349 265.057 261.251 265.041L239.652 261.5C239.408 261.46 239.175 261.371 238.966 261.238C238.758 261.105 238.578 260.931 238.439 260.727C238.299 260.523 238.202 260.293 238.154 260.05C238.106 259.808 238.108 259.558 238.159 259.316L239.21 254.362C238.672 253.56 234.292 246.582 239.627 240.029C239.525 237.7 240.335 235.424 241.886 233.684C243.437 231.945 245.605 230.879 247.93 230.714L259.092 229.866C260.528 229.757 261.969 229.995 263.294 230.559C264.619 231.123 265.789 231.997 266.706 233.107C267.622 234.218 268.259 235.532 268.562 236.94C268.865 238.348 268.825 239.808 268.446 241.197L263.329 263.643C263.237 264.046 263.01 264.406 262.686 264.665C262.362 264.923 261.961 265.064 261.547 265.065Z" fill="#6C63FF"/>
<path d="M281.716 283.834C282.082 283.311 282.329 282.715 282.44 282.086C282.551 281.458 282.523 280.813 282.357 280.196C282.192 279.58 281.893 279.007 281.483 278.519C281.072 278.03 280.559 277.638 279.981 277.369L267.683 239.56L260.557 242.942L274.012 279.756C273.625 280.758 273.619 281.868 273.995 282.874C274.371 283.88 275.103 284.714 276.053 285.217C277.002 285.719 278.103 285.856 279.147 285.601C280.191 285.346 281.105 284.718 281.716 283.834Z" fill="#FFB8B8"/>
<path d="M270.403 245.855L260.94 248.713C260.671 248.795 260.387 248.817 260.109 248.779C259.83 248.741 259.563 248.643 259.325 248.492C259.088 248.342 258.886 248.141 258.733 247.906C258.579 247.67 258.479 247.404 258.438 247.125L257.001 237.375C256.594 235.995 256.75 234.511 257.436 233.246C258.121 231.981 259.28 231.04 260.658 230.628C262.036 230.216 263.522 230.367 264.789 231.048C266.056 231.729 267.001 232.885 267.418 234.262L271.608 243.147C271.728 243.401 271.791 243.679 271.795 243.96C271.798 244.241 271.74 244.52 271.626 244.777C271.511 245.034 271.343 245.263 271.132 245.449C270.921 245.635 270.673 245.774 270.403 245.855Z" fill="#6C63FF"/>
<path d="M242.127 216.972C244.343 217.817 246.754 218.007 249.075 217.519C251.395 217.032 253.527 215.888 255.216 214.224C254.169 216.989 254.462 228.72 254.462 228.72C254.462 228.72 263.745 224.312 265.005 223.541C272.444 218.988 262.184 199.184 253.649 202.307C252.203 202.836 250.996 203.459 250.411 204.883C249.137 203.311 246.724 202.97 244.869 203.777C243.013 204.584 241.694 206.334 240.984 208.23C240.424 209.759 240.207 211.393 240.347 213.016C240.487 214.638 240.981 216.211 241.794 217.622L242.127 216.972Z" fill="black"/>
<path d="M373.992 238.301C426.173 238.301 468.474 185.135 468.474 119.552C468.474 53.9687 426.173 0.802979 373.992 0.802979C321.811 0.802979 279.51 53.9687 279.51 119.552C279.51 185.135 321.811 238.301 373.992 238.301Z" fill="#F2F2F2"/>
<path d="M444.274 40.2371C464.787 100.546 442.518 170.336 394.533 196.118C357.201 216.176 313.846 204.019 286.839 165.917C307.35 226.228 362.877 254.221 410.863 228.441C458.849 202.662 481.121 132.873 460.61 72.5628C456.749 61.0575 451.247 50.1699 444.274 40.2371Z" fill="#E6E6E6"/>
<path d="M374.252 95.2849H374.511L379.184 363.157H369.321L374.252 95.2849Z" fill="#CCCCCC"/>
<path d="M389.279 271.14L373.661 279.362L375.837 283.497L391.455 275.274L389.279 271.14Z" fill="#CCCCCC"/>
<path d="M73.5399 265.991C113.835 265.991 146.5 225.103 146.5 174.666C146.5 124.229 113.835 83.3413 73.5399 83.3413C33.2449 83.3413 0.579346 124.229 0.579346 174.666C0.579346 225.103 33.2449 265.991 73.5399 265.991Z" fill="#F2F2F2"/>
<path d="M127.812 113.668C143.653 160.049 126.456 213.722 89.402 233.55C60.5733 248.976 27.0942 239.626 6.23853 210.324C22.0775 256.706 64.9568 278.234 102.012 258.409C139.067 238.583 156.267 184.911 140.428 138.529C137.444 129.677 133.195 121.303 127.812 113.668Z" fill="#E6E6E6"/>
<path d="M73.7406 156.302H73.9408L77.5491 363.157H69.9326L73.7406 156.302Z" fill="#CCCCCC"/>
<path d="M85.3443 295.07L73.2837 301.42L74.9645 304.612L87.0251 298.263L85.3443 295.07Z" fill="#CCCCCC"/>
<path d="M427.781 363.44H12.4261C12.2848 363.44 12.1494 363.383 12.0495 363.284C11.9497 363.184 11.8936 363.048 11.8936 362.907C11.8936 362.766 11.9497 362.63 12.0495 362.53C12.1494 362.431 12.2848 362.375 12.4261 362.375H427.781C427.922 362.375 428.057 362.431 428.157 362.53C428.257 362.63 428.313 362.766 428.313 362.907C428.313 363.048 428.257 363.184 428.157 363.284C428.057 363.383 427.922 363.44 427.781 363.44Z" fill="#CCCCCC"/>
<path fill-rule="evenodd" clip-rule="evenodd" d="M229.135 93.2476C229.134 91.3823 228.6 89.5561 227.594 87.9853C226.588 86.4145 225.153 85.1648 223.459 84.3842C221.764 83.6035 219.882 83.3247 218.034 83.5806C216.187 83.8365 214.451 84.6165 213.033 85.8282C211.615 87.0398 210.573 88.6325 210.032 90.4176C209.491 92.2027 209.473 94.1055 209.98 95.9007C210.486 97.6959 211.497 99.3083 212.891 100.547C214.286 101.786 216.006 102.599 217.848 102.891V96.07H215.369V93.2476H217.848V91.0967C217.848 88.6507 219.306 87.2986 221.535 87.2986C222.268 87.3088 222.998 87.3726 223.721 87.4894V89.8918H222.489C222.28 89.864 222.066 89.8838 221.865 89.9496C221.664 90.0155 221.48 90.1257 221.327 90.2721C221.175 90.4186 221.057 90.5975 220.982 90.7957C220.908 90.9938 220.879 91.2062 220.898 91.417V93.248H223.605L223.173 96.0705H220.898V102.891C223.195 102.528 225.286 101.357 226.795 99.5889C228.305 97.821 229.135 95.5724 229.135 93.2476H229.135Z" fill="#3F3D56"/>
<path d="M183.996 122.245L185.774 121.89C185.227 122.526 184.632 123.12 183.996 123.667C183.969 124.022 183.969 124.379 183.996 124.734C180.583 139.381 167.998 132.911 167.998 132.911C172.584 133.017 172.975 131.133 172.975 131.133C170.309 130.742 169.775 129 169.775 129C170.015 129.126 170.292 129.16 170.554 129.094C170.817 129.028 171.046 128.868 171.197 128.644C170.415 128.467 169.727 128.004 169.267 127.347C168.807 126.69 168.608 125.885 168.709 125.089C169.222 125.46 169.822 125.692 170.451 125.765C170.131 125.374 167.429 122.139 169.064 120.468C169.064 120.468 171.055 124.023 176.281 124.343L176.637 124.272C176.576 124.016 176.552 123.752 176.566 123.489C176.566 122.499 176.959 121.55 177.659 120.85C178.359 120.15 179.309 119.757 180.299 119.757C182.787 119.757 183.32 121.179 183.32 121.179L185.098 120.112C185.062 120.112 184.885 121.89 183.996 122.245Z" fill="#3F3D56"/>
<path d="M227.821 145.952H220.314C218.922 145.956 217.588 146.511 216.603 147.496C215.618 148.481 215.063 149.815 215.059 151.207V158.714C215.063 160.106 215.618 161.441 216.603 162.425C217.588 163.41 218.922 163.965 220.314 163.969H227.821C229.213 163.965 230.548 163.41 231.532 162.425C232.517 161.441 233.072 160.106 233.076 158.714V151.207C233.072 149.815 232.517 148.481 231.532 147.496C230.548 146.511 229.213 145.956 227.821 145.952Z" fill="#3F3D56"/>
<path d="M228.947 151.207C228.649 151.207 228.364 151.088 228.154 150.877C227.944 150.666 227.826 150.38 227.826 150.082C227.826 149.785 227.945 149.499 228.155 149.289C228.366 149.078 228.652 148.96 228.95 148.96C229.247 148.96 229.533 149.078 229.744 149.289C229.954 149.499 230.073 149.785 230.073 150.082C230.073 150.38 229.956 150.666 229.745 150.877C229.535 151.088 229.25 151.207 228.952 151.207H228.947Z" fill="white"/>
<path d="M224.068 151.958C224.662 151.958 225.242 152.134 225.736 152.464C226.23 152.794 226.615 153.263 226.842 153.812C227.069 154.36 227.129 154.964 227.013 155.547C226.897 156.129 226.611 156.664 226.191 157.084C225.771 157.504 225.236 157.79 224.653 157.906C224.071 158.022 223.467 157.962 222.918 157.735C222.37 157.508 221.901 157.123 221.571 156.629C221.241 156.135 221.065 155.555 221.065 154.961C221.065 154.566 221.142 154.176 221.293 153.812C221.444 153.447 221.665 153.116 221.944 152.837C222.223 152.558 222.554 152.337 222.918 152.186C223.283 152.035 223.673 151.958 224.068 151.958ZM224.068 150.457C223.177 150.457 222.306 150.721 221.565 151.216C220.825 151.711 220.247 152.414 219.906 153.237C219.565 154.06 219.476 154.966 219.65 155.839C219.824 156.713 220.253 157.516 220.883 158.146C221.513 158.775 222.315 159.204 223.189 159.378C224.063 159.552 224.968 159.463 225.791 159.122C226.614 158.781 227.318 158.204 227.813 157.463C228.308 156.722 228.572 155.852 228.572 154.961C228.572 153.766 228.097 152.62 227.252 151.776C226.408 150.931 225.262 150.457 224.068 150.457V150.457Z" fill="white"/>
<path d="M198.942 190.413C196.694 190.413 194.514 191.187 192.769 192.604C191.024 194.022 189.82 195.997 189.359 198.197C188.898 200.398 189.208 202.69 190.238 204.689C191.267 206.688 192.953 208.271 195.013 209.174C194.972 208.421 195.029 207.665 195.183 206.927C195.371 206.131 196.442 201.59 196.442 201.59C196.228 201.102 196.121 200.575 196.127 200.042C196.127 198.591 196.967 197.507 198.016 197.507C198.203 197.504 198.388 197.541 198.56 197.616C198.731 197.691 198.885 197.802 199.01 197.941C199.135 198.08 199.229 198.245 199.285 198.423C199.341 198.602 199.359 198.79 199.336 198.976C199.336 199.872 198.763 201.209 198.47 202.451C198.412 202.681 198.409 202.921 198.46 203.153C198.512 203.384 198.617 203.601 198.768 203.784C198.918 203.967 199.11 204.113 199.327 204.208C199.544 204.304 199.781 204.347 200.018 204.335C201.871 204.335 203.121 201.953 203.121 199.129C203.121 196.983 201.674 195.378 199.047 195.378C198.419 195.354 197.791 195.457 197.204 195.682C196.617 195.908 196.081 196.25 195.63 196.689C195.179 197.127 194.822 197.653 194.581 198.234C194.339 198.815 194.219 199.439 194.226 200.069C194.197 200.766 194.427 201.45 194.873 201.988C194.951 202.052 195.007 202.14 195.032 202.238C195.057 202.336 195.05 202.44 195.013 202.534C194.965 202.713 194.86 203.146 194.812 203.321C194.803 203.374 194.782 203.424 194.751 203.467C194.719 203.51 194.678 203.545 194.63 203.569C194.582 203.593 194.529 203.605 194.475 203.605C194.422 203.604 194.369 203.591 194.322 203.566C192.954 203.006 192.316 201.511 192.316 199.824C192.316 197.044 194.663 193.708 199.314 193.708C203.051 193.708 205.512 196.414 205.512 199.317C205.512 203.159 203.375 206.026 200.228 206.026C199.759 206.039 199.295 205.934 198.877 205.721C198.459 205.508 198.102 205.194 197.837 204.807C197.837 204.807 197.268 207.062 197.146 207.5C196.92 208.242 196.589 208.949 196.162 209.598C197.509 209.996 198.926 210.099 200.316 209.901C201.706 209.703 203.037 209.209 204.22 208.451C205.402 207.694 206.408 206.691 207.168 205.51C207.929 204.33 208.427 203 208.628 201.61C208.83 200.22 208.73 198.804 208.336 197.456C207.941 196.108 207.262 194.861 206.343 193.799C205.424 192.737 204.288 191.885 203.011 191.301C201.734 190.716 200.347 190.413 198.942 190.413L198.942 190.413Z" fill="#3F3D56"/>
<path d="M219.374 110.763C215.898 110.763 212.5 109.732 209.611 107.801C206.721 105.87 204.468 103.126 203.138 99.9147C201.808 96.7037 201.46 93.1704 202.138 89.7617C202.816 86.3529 204.49 83.2217 206.948 80.7641C209.405 78.3066 212.536 76.6329 215.945 75.9549C219.354 75.2768 222.887 75.6248 226.098 76.9548C229.309 78.2849 232.054 80.5372 233.985 83.427C235.916 86.3168 236.946 89.7143 236.946 93.1899C236.941 97.8488 235.088 102.315 231.793 105.61C228.499 108.904 224.032 110.757 219.374 110.763ZM219.374 76.6822C216.109 76.6822 212.917 77.6503 210.202 79.4642C207.488 81.2781 205.372 83.8562 204.122 86.8726C202.873 89.889 202.546 93.2082 203.183 96.4103C203.82 99.6125 205.392 102.554 207.701 104.863C210.009 107.171 212.951 108.743 216.153 109.38C219.355 110.017 222.674 109.69 225.691 108.441C228.707 107.192 231.285 105.076 233.099 102.361C234.913 99.6464 235.881 96.4548 235.881 93.1899C235.876 88.8133 234.135 84.6174 231.041 81.5227C227.946 78.428 223.75 76.6872 219.374 76.6822Z" fill="#3F3D56"/>
<path d="M176.885 144.618C173.41 144.618 170.012 143.588 167.123 141.657C164.233 139.726 161.98 136.981 160.65 133.77C159.32 130.559 158.972 127.026 159.65 123.617C160.328 120.209 162.002 117.077 164.46 114.62C166.917 112.162 170.048 110.489 173.457 109.811C176.866 109.133 180.399 109.481 183.61 110.811C186.821 112.141 189.566 114.393 191.497 117.283C193.427 120.173 194.458 123.57 194.458 127.046C194.453 131.705 192.6 136.171 189.305 139.466C186.011 142.76 181.544 144.613 176.885 144.618ZM176.885 110.538C173.621 110.538 170.429 111.506 167.714 113.32C165 115.134 162.884 117.712 161.634 120.728C160.385 123.745 160.058 127.064 160.695 130.266C161.332 133.468 162.904 136.41 165.213 138.718C167.521 141.027 170.463 142.599 173.665 143.236C176.867 143.873 180.186 143.546 183.203 142.297C186.219 141.047 188.797 138.931 190.611 136.217C192.425 133.502 193.393 130.311 193.393 127.046C193.388 122.669 191.647 118.473 188.553 115.378C185.458 112.284 181.262 110.543 176.885 110.538Z" fill="#3F3D56"/>
<path d="M224.068 172.533C220.592 172.533 217.195 171.502 214.305 169.572C211.415 167.641 209.163 164.896 207.833 161.685C206.503 158.474 206.155 154.941 206.833 151.532C207.511 148.123 209.184 144.992 211.642 142.535C214.1 140.077 217.231 138.403 220.64 137.725C224.048 137.047 227.582 137.395 230.793 138.725C234.004 140.055 236.748 142.308 238.679 145.198C240.61 148.087 241.641 151.485 241.641 154.96C241.635 159.619 239.782 164.086 236.488 167.38C233.193 170.675 228.727 172.528 224.068 172.533ZM224.068 138.453C220.803 138.453 217.611 139.421 214.897 141.235C212.182 143.049 210.066 145.627 208.817 148.643C207.567 151.66 207.24 154.979 207.877 158.181C208.514 161.383 210.086 164.324 212.395 166.633C214.704 168.942 217.645 170.514 220.847 171.151C224.05 171.788 227.369 171.461 230.385 170.211C233.401 168.962 235.98 166.846 237.793 164.132C239.607 161.417 240.576 158.225 240.576 154.96C240.571 150.584 238.83 146.388 235.735 143.293C232.64 140.198 228.444 138.458 224.068 138.453Z" fill="#3F3D56"/>
<path d="M198.941 217.78C195.466 217.78 192.068 216.749 189.178 214.818C186.289 212.887 184.036 210.143 182.706 206.932C181.376 203.721 181.028 200.188 181.706 196.779C182.384 193.37 184.058 190.239 186.516 187.781C188.973 185.324 192.104 183.65 195.513 182.972C198.922 182.294 202.455 182.642 205.666 183.972C208.877 185.302 211.622 187.555 213.553 190.444C215.483 193.334 216.514 196.732 216.514 200.207C216.509 204.866 214.656 209.333 211.361 212.627C208.067 215.922 203.6 217.775 198.941 217.78ZM198.941 183.7C195.676 183.7 192.485 184.668 189.77 186.482C187.056 188.295 184.94 190.874 183.69 193.89C182.441 196.906 182.114 200.226 182.751 203.428C183.388 206.63 184.96 209.571 187.269 211.88C189.577 214.189 192.519 215.761 195.721 216.398C198.923 217.035 202.242 216.708 205.259 215.458C208.275 214.209 210.853 212.093 212.667 209.378C214.481 206.664 215.449 203.472 215.449 200.207C215.444 195.831 213.703 191.635 210.609 188.54C207.514 185.445 203.318 183.705 198.941 183.7Z" fill="#3F3D56"/>
</g>
<defs>
<clipPath id="clip0">
<rect width="467.895" height="362.637" fill="white" transform="translate(0.579346 0.802979)"/>
</clipPath>
</defs>
</svg>
