<svg width="1507" height="284" viewBox="0 0 1507 284" fill="none" xmlns="http://www.w3.org/2000/svg">
<path fill-rule="evenodd" clip-rule="evenodd" d="M1507 216H1479.37C1451.74 216 1395.23 216 1339.97 210C1283.46 204 1228.2 192 1171.69 168C1116.44 144 1059.92 108 1004.67 108C949.41 108 892.897 144 837.641 156C781.128 168 725.872 156 669.359 132C614.102 108 557.59 72 502.333 78C447.077 84 390.564 132 335.307 156C278.795 180 223.538 180 167.026 150C111.769 120 55.2566 60 27.6283 30L-0.00012207 0V284H27.6283C55.2566 284 111.769 284 167.026 284C223.538 284 278.795 284 335.307 284C390.564 284 447.077 284 502.333 284C557.59 284 614.102 284 669.359 284C725.872 284 781.128 284 837.641 284C892.897 284 949.41 284 1004.67 284C1059.92 284 1116.44 284 1171.69 284C1228.2 284 1283.46 284 1339.97 284C1395.23 284 1451.74 284 1479.37 284H1507V216Z" fill="#F8FAFF"/>
</svg>
