<svg width="32" height="32" viewBox="0 0 32 32" fill="none" xmlns="http://www.w3.org/2000/svg">
<path fill-rule="evenodd" clip-rule="evenodd" d="M6.50008 0.583496C4.82038 0.583496 3.20947 1.2332 2.02174 2.38967C0.834008 3.54615 0.166748 5.11466 0.166748 6.75016V25.2502C0.166748 26.8857 0.834008 28.4542 2.02174 29.6107C3.20947 30.7671 4.82038 31.4168 6.50008 31.4168H25.5001C27.1798 31.4168 28.7907 30.7671 29.9784 29.6107C31.1662 28.4542 31.8334 26.8857 31.8334 25.2502V6.75016C31.8334 5.11466 31.1662 3.54615 29.9784 2.38967C28.7907 1.2332 27.1798 0.583496 25.5001 0.583496H6.50008ZM3.33342 6.75016C3.33342 5.93241 3.66704 5.14815 4.26091 4.56992C4.85478 3.99168 5.66023 3.66683 6.50008 3.66683H25.5001C26.3399 3.66683 27.1454 3.99168 27.7393 4.56992C28.3331 5.14815 28.6668 5.93241 28.6668 6.75016V25.2502C28.6668 26.0679 28.3331 26.8522 27.7393 27.4304C27.1454 28.0086 26.3399 28.3335 25.5001 28.3335H6.50008C5.66023 28.3335 4.85478 28.0086 4.26091 27.4304C3.66704 26.8522 3.33342 26.0679 3.33342 25.2502V6.75016ZM11.2501 14.4585C11.2501 14.0496 11.0833 13.6575 10.7863 13.3684C10.4894 13.0793 10.0867 12.9168 9.66675 12.9168C9.24682 12.9168 8.8441 13.0793 8.54716 13.3684C8.25023 13.6575 8.08342 14.0496 8.08342 14.4585V23.7085C8.08342 24.1174 8.25023 24.5095 8.54716 24.7986C8.8441 25.0877 9.24682 25.2502 9.66675 25.2502C10.0867 25.2502 10.4894 25.0877 10.7863 24.7986C11.0833 24.5095 11.2501 24.1174 11.2501 23.7085V14.4585ZM12.0417 9.06266C12.0417 9.67598 11.7915 10.2642 11.3461 10.6978C10.9007 11.1315 10.2966 11.3752 9.66675 11.3752C9.03686 11.3752 8.43277 11.1315 7.98737 10.6978C7.54197 10.2642 7.29175 9.67598 7.29175 9.06266C7.29175 8.44935 7.54197 7.86116 7.98737 7.42748C8.43277 6.9938 9.03686 6.75016 9.66675 6.75016C10.2966 6.75016 10.9007 6.9938 11.3461 7.42748C11.7915 7.86116 12.0417 8.44935 12.0417 9.06266ZM16.0001 12.9168C16.5384 12.9168 17.0134 13.1789 17.2984 13.5767C18.1145 13.1436 19.029 12.9168 19.9584 12.9168C23.3784 12.9168 25.5001 15.8861 25.5001 18.4221V23.7085C25.5001 24.1174 25.3333 24.5095 25.0363 24.7986C24.7394 25.0877 24.3367 25.2502 23.9167 25.2502C23.4968 25.2502 23.0941 25.0877 22.7972 24.7986C22.5002 24.5095 22.3334 24.1174 22.3334 23.7085V18.4206C22.3334 17.2366 21.2884 15.9986 19.9584 15.9986C19.1287 15.9986 18.212 16.438 17.5834 17.4832V23.7085C17.5834 24.1174 17.4166 24.5095 17.1197 24.7986C16.8227 25.0877 16.42 25.2502 16.0001 25.2502C15.5802 25.2502 15.1774 25.0877 14.8805 24.7986C14.5836 24.5095 14.4167 24.1174 14.4167 23.7085V14.4585C14.4167 14.0496 14.5836 13.6575 14.8805 13.3684C15.1774 13.0793 15.5802 12.9168 16.0001 12.9168Z" fill="#146EB5"/>
</svg>
