<svg width="1054" height="317" viewBox="0 0 1054 317" fill="none" xmlns="http://www.w3.org/2000/svg">
<path d="M200.043 133.757C188.553 138.249 178.885 144.695 171.037 153.112C163.189 161.529 157.219 171.633 153.123 183.405C149.028 195.179 146.981 207.936 146.981 221.699C146.981 250.931 155.284 274.077 171.891 291.14C188.497 308.201 211.759 316.732 241.672 316.732C254.753 316.732 266.327 315.027 276.393 311.613C286.46 308.201 294.819 303.917 301.473 298.741C308.127 293.567 313.103 288.163 316.401 282.533C319.701 276.903 321.349 271.975 321.349 267.765C321.349 262.989 319.871 259.292 316.915 256.676C313.956 254.059 310.089 252.752 305.312 252.752C300.875 252.752 297.464 253.775 295.075 255.823C289.273 261.281 284.553 265.605 280.915 268.789C277.273 271.975 273.293 274.968 268.971 277.756C264.648 280.544 260.184 282.589 255.577 283.899C250.971 285.205 245.88 285.851 240.308 285.851C232.005 285.851 224.412 283.804 217.531 279.708C210.649 275.613 205.132 269.529 200.98 261.452C196.829 253.377 194.697 244.049 194.583 233.471H285.692C297.861 233.471 307.303 231.747 314.013 228.277C320.724 224.808 324.08 217.207 324.08 205.491C324.08 192.864 320.839 180.467 314.355 168.297C307.871 156.127 298.117 146.211 285.093 138.535C272.071 130.856 256.46 127.008 238.26 127.008C224.269 127.008 211.531 129.263 200.043 133.757V133.757ZM208.147 171.463C215.597 163.444 225.123 159.425 236.724 159.425C248.895 159.425 258.707 163.387 266.156 171.292C273.607 179.196 277.9 191.101 279.037 207.027H194.583C196.175 191.329 200.697 179.483 208.147 171.463" fill="url(#paint0_linear)"/>
<path d="M348.362 134.173C344.325 138.723 342.305 145.377 342.305 154.136V287.385C342.305 297.055 344.552 304.371 349.044 309.32C353.539 314.267 359.31 316.732 366.362 316.732C373.528 316.732 379.301 314.267 383.68 309.32C388.059 304.371 390.249 297.055 390.249 287.385V224.429C390.249 204.864 392.665 189.851 397.499 179.387C402.333 168.923 412.372 163.691 427.613 163.691C435.233 163.691 440.806 165.775 444.333 169.928C447.86 174.079 450.021 179.387 450.817 185.869C451.613 192.353 452.012 201.453 452.012 213.168V287.385C452.012 297.168 454.2 304.504 458.58 309.396C462.958 314.287 468.674 316.732 475.726 316.732C483.006 316.732 488.864 314.287 493.3 309.396C497.734 304.504 499.954 297.168 499.954 287.385V225.453C499.954 205.547 501.66 191.671 505.073 183.824C508.142 177.68 512.437 172.789 517.954 169.151C523.47 165.509 529.3 163.691 535.442 163.691C543.062 163.691 548.749 165.737 552.504 169.833C556.257 173.927 558.56 178.989 559.413 185.017C560.266 191.047 560.693 199.064 560.693 209.073V287.385C560.693 297.055 562.94 304.371 567.432 309.32C571.926 314.267 577.699 316.732 584.749 316.732C592.029 316.732 597.886 314.287 602.322 309.396C606.758 304.504 608.977 297.168 608.977 287.385V196.448C608.977 178.364 606.987 165.112 603.005 156.693C598.456 147.368 591.573 140.203 582.36 135.197C573.148 130.193 562.172 127.691 549.432 127.691C538.513 127.691 528.561 130.003 519.573 134.609C510.588 139.216 502.172 146.288 494.325 155.841C488.864 146.401 481.926 139.349 473.508 134.685C465.092 130.023 455.025 127.691 443.31 127.691C432.049 127.691 421.812 129.965 412.598 134.515C403.386 139.064 394.741 146.173 386.665 155.841V151.405C386.665 143.899 384.533 138.021 380.267 133.757C376.003 129.491 370.685 127.349 364.316 127.349C357.717 127.349 352.401 129.624 348.362 134.173" fill="url(#paint1_linear)"/>
<path d="M642.469 134.344C638.205 139.008 636.07 145.945 636.07 155.159V288.411C636.07 297.509 638.205 304.504 642.469 309.396C646.736 314.287 652.28 316.732 659.104 316.732C665.929 316.732 671.56 314.344 675.996 309.567C680.432 304.789 682.649 297.737 682.649 288.411V153.795C682.649 145.491 680.432 139.008 675.996 134.344C671.56 129.681 665.929 127.349 659.104 127.349C652.28 127.349 646.736 129.681 642.469 134.344Z" fill="url(#paint2_linear)"/>
<path d="M729.549 131.529C722.725 131.529 717.465 133.121 713.769 136.305C710.072 139.49 708.223 143.757 708.223 149.102C708.223 156.382 710.668 160.874 715.56 162.581C720.451 164.286 727.673 165.141 737.228 165.141H806.497C803.653 169.121 799.871 173.898 795.152 179.47C790.431 185.046 784.488 191.85 777.323 199.87C770.157 207.889 762.393 216.494 754.032 225.708C745.673 234.922 736.376 245.217 726.139 256.59C716.469 267.396 710.1 274.826 707.028 278.865C703.957 282.902 702.421 286.902 702.421 290.884C702.421 297.596 704.612 302.884 708.991 306.752C713.371 310.618 719.995 312.552 728.867 312.552H855.123C862.629 312.552 868.232 310.902 871.929 307.605C875.625 304.305 877.473 300.04 877.473 294.808C877.473 289.348 875.596 284.893 871.843 281.424C868.091 277.954 862.516 276.212 855.123 276.212H763.844L849.152 180.837C852.336 177.425 855.009 174.505 857.171 172.06C859.331 169.614 861.037 167.529 862.289 165.824C863.54 164.116 864.677 161.937 865.701 159.262C866.724 156.589 867.236 153.994 867.236 151.49C867.236 143.985 864.591 138.789 859.303 135.889C854.013 132.988 846.421 131.529 836.527 131.529H729.549Z" fill="url(#paint3_linear)"/>
<path d="M1014.02 134.344C1009.7 139.008 1007.54 145.945 1007.54 155.159V211.804C1007.54 234.097 1006.23 248.543 1003.62 255.14C1000.43 262.647 995.371 268.732 988.432 273.396C981.493 278.059 974.1 280.391 966.251 280.391C958.176 280.391 951.777 278.325 947.057 274.173C942.337 270.021 939.066 264.277 937.246 256.941C935.426 249.604 934.517 240.524 934.517 229.717V155.159C934.517 145.945 932.356 139.008 928.033 134.344C923.712 129.681 918.024 127.349 910.973 127.349C904.033 127.349 898.461 129.661 894.252 134.268C890.043 138.875 887.938 145.833 887.938 155.159V247.463C887.938 266.003 890.84 280.221 896.64 290.116C901.532 298.305 908.441 304.732 917.371 309.396C926.3 314.059 936.393 316.391 947.655 316.391C956.983 316.391 965.285 315.235 972.564 312.903C979.844 310.569 986.555 307.007 992.697 302.229C998.839 297.452 1004.7 291.537 1010.27 284.485V290.457C1010.27 298.761 1012.35 305.225 1016.5 309.831C1020.65 314.437 1025.91 316.732 1032.28 316.732C1038.65 316.732 1043.85 314.515 1047.89 310.077C1051.93 305.641 1053.95 298.989 1053.95 290.116V155.159C1053.95 145.833 1051.84 138.875 1047.63 134.268C1043.43 129.661 1037.85 127.349 1030.92 127.349C1023.98 127.349 1018.35 129.681 1014.02 134.344Z" fill="url(#paint4_linear)"/>
<path d="M699.361 82.0574C699.361 105.349 682.653 120.832 659.361 120.832C636.069 120.832 619.361 105.349 619.361 82.0574C619.361 58.7654 647.106 43.2827 660.005 2.69165e-05C671.153 44.4854 699.361 58.7654 699.361 82.0574Z" fill="#F07C21"/>
<path d="M699.361 82.0574C699.361 95.0681 692.05 106.461 668.758 106.461C645.466 106.461 628.758 90.9774 628.758 67.6868C628.758 44.3948 647.106 43.2828 660.005 8.83799e-05C671.153 44.4854 699.361 58.7654 699.361 82.0574Z" fill="#146EB5"/>
<path d="M697.531 74.8684C697.295 84.3004 688.255 90.6484 676.19 90.6484C652.898 90.6484 637.063 79.8191 637.063 56.5271C637.063 33.2351 645.938 43.1551 660.005 0.000442822C671.629 44.1604 697.918 59.3871 697.531 74.8684Z" fill="#98D6F4"/>
<path d="M5.71598 61.1611C1.90665 65.9931 0 73.1211 0 82.5624V285.936C0 294.693 1.96268 301.33 5.88668 305.821C9.81201 310.316 15.0706 312.552 21.6693 312.552C28.152 312.552 33.4987 310.316 37.7067 305.821C41.9147 301.33 44.02 294.693 44.02 285.936V281.329C49.1373 287.242 53.2613 291.68 56.3893 294.636C59.5173 297.596 63.2987 300.477 67.736 303.262C72.1707 306.049 77.5453 308.286 83.8573 309.993C90.1707 311.698 96.9093 312.552 104.076 312.552C115.792 312.552 126.512 310.2 136.237 305.481C145.963 300.761 154.237 294.069 161.063 285.425C167.887 276.78 173.089 266.58 176.673 254.806C180.256 243.034 182.048 230.086 182.048 215.984C182.048 196.874 178.833 180.364 172.408 166.429C165.981 152.496 156.939 141.861 145.28 134.525C133.621 127.186 120.057 123.51 104.588 123.51C91.1653 123.51 79.9067 125.937 70.8067 130.772C61.7067 135.604 52.7773 142.562 44.02 151.661V80.5144C44.02 71.9851 42.0853 65.4238 38.2187 60.8171C34.352 56.2118 28.8346 53.8984 21.6693 53.8984C14.844 53.8984 9.52665 56.3251 5.71598 61.1611V61.1611ZM58.9493 261.633C50.4747 251.68 46.2373 237.425 46.2373 218.884C46.2373 206.257 48.228 195.376 52.2093 186.22C56.1907 177.064 61.6507 170.069 68.588 165.234C75.5267 160.401 83.432 157.974 92.3026 157.974C100.948 157.974 108.513 160.401 114.995 165.234C121.479 170.069 126.484 176.913 130.009 185.785C133.536 194.656 135.299 205.234 135.299 217.52C135.299 236.514 131.061 251.11 122.588 261.292C114.115 271.472 104.02 276.552 92.3026 276.552C78.54 276.552 67.4227 271.584 58.9493 261.633" fill="url(#paint5_linear)"/>
<defs>
<linearGradient id="paint0_linear" x1="235.531" y1="182.467" x2="235.531" y2="359.566" gradientUnits="userSpaceOnUse">
<stop stop-color="#3360AB"/>
<stop offset="0.334432" stop-color="#3360AB"/>
<stop offset="0.955668" stop-color="#2B2C79"/>
<stop offset="1" stop-color="#2B2C79"/>
</linearGradient>
<linearGradient id="paint1_linear" x1="476.483" y1="149.388" x2="474.228" y2="340.571" gradientUnits="userSpaceOnUse">
<stop stop-color="#3360AB"/>
<stop offset="0.334432" stop-color="#3360AB"/>
<stop offset="0.955668" stop-color="#2B2C79"/>
<stop offset="1" stop-color="#2B2C79"/>
</linearGradient>
<linearGradient id="paint2_linear" x1="660.349" y1="137.993" x2="658.115" y2="327.354" gradientUnits="userSpaceOnUse">
<stop stop-color="#3360AB"/>
<stop offset="0.334432" stop-color="#3360AB"/>
<stop offset="0.955668" stop-color="#2B2C79"/>
<stop offset="1" stop-color="#2B2C79"/>
</linearGradient>
<linearGradient id="paint3_linear" x1="791.759" y1="139.286" x2="789.609" y2="321.564" gradientUnits="userSpaceOnUse">
<stop stop-color="#3360AB"/>
<stop offset="0.334432" stop-color="#3360AB"/>
<stop offset="0.955668" stop-color="#2B2C79"/>
<stop offset="1" stop-color="#2B2C79"/>
</linearGradient>
<linearGradient id="paint4_linear" x1="971.773" y1="152.288" x2="969.532" y2="342.293" gradientUnits="userSpaceOnUse">
<stop stop-color="#3360AB"/>
<stop offset="0.334432" stop-color="#3360AB"/>
<stop offset="0.955668" stop-color="#2B2C79"/>
<stop offset="1" stop-color="#2B2C79"/>
</linearGradient>
<linearGradient id="paint5_linear" x1="91.1634" y1="137.745" x2="89.0165" y2="319.779" gradientUnits="userSpaceOnUse">
<stop stop-color="#F6921E"/>
<stop offset="0.334432" stop-color="#F6921E"/>
<stop offset="0.95294" stop-color="#EE4036"/>
<stop offset="1" stop-color="#EE4036"/>
</linearGradient>
</defs>
</svg>
