<svg width="392" height="370" viewBox="0 0 392 370" fill="none" xmlns="http://www.w3.org/2000/svg">
<path d="M277.811 183.666C277.811 235.8 240.412 270.453 188.28 270.453C136.145 270.453 98.748 235.8 98.748 183.666C98.748 131.533 160.851 96.8785 189.724 -0.00018733C214.672 99.5705 277.811 131.533 277.811 183.666Z" fill="#F07C21"/>
<path d="M277.811 183.667C277.811 212.787 261.447 238.287 209.313 238.287C157.18 238.287 119.783 203.634 119.783 151.5C119.783 99.3671 160.851 96.8791 189.724 0.000461794C214.672 99.5711 277.811 131.534 277.811 183.667Z" fill="#146EB5"/>
<path d="M273.714 167.576C273.186 188.689 252.953 202.895 225.949 202.895C173.816 202.895 138.373 178.657 138.373 126.524C138.373 74.3905 158.236 96.5932 189.724 0.00121245C215.738 98.8439 274.578 132.924 273.714 167.576Z" fill="#98D6F4"/>
<path d="M74.3269 301.126C70.0576 302.796 66.4656 305.192 63.5496 308.318C60.6336 311.445 58.4149 315.201 56.8936 319.574C55.3709 323.949 54.6108 328.689 54.6108 333.802C54.6108 344.664 57.6962 353.265 63.8669 359.602C70.0362 365.942 78.6789 369.112 89.7935 369.112C94.6535 369.112 98.9536 368.478 102.695 367.209C106.435 365.942 109.54 364.35 112.012 362.428C114.486 360.505 116.334 358.496 117.559 356.405C118.786 354.313 119.399 352.482 119.399 350.918C119.399 349.144 118.85 347.769 117.75 346.797C116.652 345.825 115.214 345.34 113.439 345.34C111.792 345.34 110.523 345.72 109.635 346.481C107.48 348.509 105.726 350.116 104.374 351.298C103.023 352.482 101.543 353.594 99.9376 354.63C98.3309 355.665 96.6722 356.426 94.9602 356.913C93.2495 357.398 91.3575 357.637 89.2869 357.637C86.2015 357.637 83.3802 356.877 80.8228 355.356C78.2668 353.834 76.2162 351.573 74.6749 348.573C73.1322 345.573 72.3402 342.106 72.2975 338.177H106.15C110.671 338.177 114.179 337.534 116.672 336.246C119.166 334.957 120.412 332.133 120.412 327.78C120.412 323.089 119.208 318.482 116.799 313.961C114.39 309.438 110.766 305.756 105.927 302.901C101.088 300.049 95.2882 298.618 88.5256 298.618C83.3282 298.618 78.5949 299.457 74.3269 301.126V301.126ZM77.3376 315.137C80.1042 312.157 83.6442 310.665 87.9548 310.665C92.4775 310.665 96.1215 312.137 98.8909 315.073C101.659 318.01 103.254 322.434 103.676 328.35H72.2975C72.8895 322.518 74.5696 318.116 77.3376 315.137Z" fill="url(#paint0_linear)"/>
<path d="M129.433 301.281C127.933 302.972 127.184 305.444 127.184 308.698V358.208C127.184 361.8 128.019 364.52 129.688 366.357C131.357 368.196 133.501 369.112 136.123 369.112C138.784 369.112 140.929 368.196 142.557 366.357C144.183 364.52 144.999 361.8 144.999 358.208V334.817C144.999 327.548 145.896 321.969 147.692 318.081C149.487 314.193 153.217 312.248 158.881 312.248C161.712 312.248 163.783 313.024 165.092 314.565C166.403 316.109 167.205 318.081 167.501 320.49C167.797 322.898 167.945 326.28 167.945 330.633V358.208C167.945 361.844 168.759 364.569 170.387 366.385C172.013 368.204 174.136 369.112 176.756 369.112C179.461 369.112 181.637 368.204 183.287 366.385C184.933 364.569 185.759 361.844 185.759 358.208V335.197C185.759 327.8 186.392 322.645 187.66 319.729C188.801 317.446 190.396 315.63 192.445 314.277C194.496 312.925 196.661 312.248 198.943 312.248C201.776 312.248 203.889 313.009 205.284 314.53C206.679 316.052 207.533 317.933 207.851 320.173C208.167 322.413 208.325 325.392 208.325 329.112V358.208C208.325 361.8 209.161 364.52 210.829 366.357C212.499 368.196 214.644 369.112 217.264 369.112C219.969 369.112 222.145 368.204 223.793 366.385C225.443 364.569 226.267 361.844 226.267 358.208V324.42C226.267 317.701 225.527 312.776 224.048 309.65C222.357 306.185 219.8 303.522 216.376 301.662C212.953 299.804 208.875 298.873 204.143 298.873C200.085 298.873 196.387 299.733 193.048 301.445C189.709 303.156 186.583 305.782 183.665 309.333C181.637 305.825 179.06 303.205 175.933 301.473C172.805 299.74 169.065 298.873 164.713 298.873C160.528 298.873 156.724 299.718 153.301 301.409C149.879 303.1 146.667 305.741 143.665 309.333V307.685C143.665 304.894 142.873 302.712 141.289 301.126C139.704 299.542 137.728 298.747 135.361 298.747C132.911 298.747 130.935 299.591 129.433 301.281" fill="url(#paint1_linear)"/>
<path d="M238.711 301.345C237.125 303.078 236.332 305.657 236.332 309.08V358.589C236.332 361.969 237.125 364.569 238.711 366.385C240.295 368.204 242.355 369.112 244.891 369.112C247.427 369.112 249.519 368.224 251.167 366.45C252.815 364.674 253.639 362.054 253.639 358.589V308.573C253.639 305.488 252.815 303.078 251.167 301.345C249.519 299.613 247.427 298.747 244.891 298.747C242.355 298.747 240.295 299.613 238.711 301.345Z" fill="url(#paint2_linear)"/>
<path d="M271.064 300.3C268.529 300.3 266.575 300.891 265.201 302.075C263.828 303.259 263.141 304.844 263.141 306.829C263.141 309.535 264.051 311.204 265.867 311.837C267.685 312.471 270.368 312.788 273.917 312.788H299.655C298.599 314.267 297.193 316.041 295.44 318.113C293.685 320.184 291.477 322.713 288.815 325.692C286.152 328.671 283.268 331.868 280.163 335.292C277.056 338.716 273.601 342.54 269.797 346.767C266.205 350.781 263.837 353.541 262.697 355.043C261.556 356.543 260.985 358.029 260.985 359.508C260.985 362.001 261.799 363.967 263.425 365.404C265.053 366.84 267.515 367.559 270.812 367.559H317.723C320.511 367.559 322.592 366.945 323.967 365.72C325.339 364.496 326.027 362.911 326.027 360.967C326.027 358.937 325.329 357.283 323.935 355.993C322.539 354.705 320.468 354.057 317.723 354.057H283.807L315.504 318.621C316.687 317.352 317.679 316.268 318.481 315.359C319.287 314.451 319.919 313.676 320.385 313.041C320.849 312.407 321.272 311.597 321.651 310.604C322.032 309.611 322.223 308.647 322.223 307.716C322.223 304.928 321.241 302.996 319.275 301.92C317.309 300.843 314.488 300.3 310.812 300.3H271.064Z" fill="url(#paint3_linear)"/>
<path d="M376.761 301.345C375.156 303.078 374.353 305.657 374.353 309.08V330.126C374.353 338.409 373.867 343.776 372.895 346.228C371.712 349.017 369.829 351.277 367.253 353.01C364.675 354.742 361.928 355.609 359.012 355.609C356.011 355.609 353.633 354.841 351.879 353.3C350.127 351.757 348.911 349.622 348.235 346.896C347.559 344.17 347.221 340.797 347.221 336.781V309.08C347.221 305.657 346.417 303.078 344.812 301.345C343.207 299.613 341.093 298.747 338.473 298.747C335.895 298.747 333.824 299.605 332.259 301.317C330.696 303.029 329.915 305.613 329.915 309.08V343.374C329.915 350.264 330.993 355.545 333.147 359.222C334.965 362.265 337.532 364.653 340.849 366.385C344.167 368.12 347.919 368.985 352.103 368.985C355.567 368.985 358.653 368.556 361.357 367.689C364.061 366.822 366.555 365.498 368.837 363.724C371.119 361.949 373.297 359.75 375.367 357.13V359.349C375.367 362.434 376.139 364.836 377.68 366.548C379.224 368.26 381.177 369.112 383.545 369.112C385.911 369.112 387.844 368.288 389.344 366.64C390.845 364.99 391.596 362.518 391.596 359.222V309.08C391.596 305.613 390.813 303.029 389.249 301.317C387.687 299.605 385.615 298.747 383.037 298.747C380.459 298.747 378.368 299.613 376.761 301.345" fill="url(#paint4_linear)"/>
<path d="M2.12394 274.155C0.709275 275.949 0 278.599 0 282.105V357.669C0 360.923 0.729271 363.389 2.1866 365.059C3.64527 366.728 5.59995 367.559 8.05062 367.559C10.46 367.559 12.4453 366.728 14.0093 365.059C15.5733 363.389 16.356 360.923 16.356 357.669V355.959C18.2573 358.156 19.7893 359.804 20.952 360.903C22.1133 362.001 23.5187 363.072 25.1667 364.108C26.8147 365.144 28.812 365.973 31.1573 366.608C33.504 367.243 36.0066 367.559 38.6693 367.559C43.0226 367.559 47.0053 366.685 50.6186 364.931C54.232 363.177 57.3066 360.692 59.8426 357.479C62.3773 354.268 64.312 350.479 65.6427 346.104C66.9733 341.731 67.64 336.92 67.64 331.679C67.64 324.579 66.4453 318.444 64.0573 313.267C61.6693 308.089 58.3106 304.139 53.9773 301.413C49.6466 298.687 44.6066 297.321 38.8586 297.321C33.8733 297.321 29.6893 298.221 26.3079 300.019C22.9266 301.815 19.6093 304.4 16.356 307.78V281.345C16.356 278.176 15.6373 275.739 14.2 274.028C12.7626 272.315 10.7133 271.456 8.05062 271.456C5.51595 271.456 3.53994 272.359 2.12394 274.155V274.155ZM21.9013 348.64C18.7546 344.941 17.1799 339.644 17.1799 332.757C17.1799 328.065 17.9186 324.023 19.3986 320.62C20.8773 317.219 22.9066 314.62 25.484 312.824C28.0613 311.027 30.9986 310.125 34.296 310.125C37.5066 310.125 40.3173 311.027 42.7266 312.824C45.1346 314.62 46.9946 317.161 48.3053 320.459C49.6146 323.756 50.2693 327.685 50.2693 332.249C50.2693 339.308 48.6959 344.732 45.5479 348.512C42.3986 352.295 38.648 354.184 34.296 354.184C29.1813 354.184 25.0506 352.339 21.9013 348.64" fill="url(#paint5_linear)"/>
<defs>
<linearGradient id="paint0_linear" x1="87.5117" y1="319.226" x2="87.5117" y2="385.027" gradientUnits="userSpaceOnUse">
<stop stop-color="#3360AB"/>
<stop offset="0.334432" stop-color="#3360AB"/>
<stop offset="0.955668" stop-color="#2B2C79"/>
<stop offset="1" stop-color="#2B2C79"/>
</linearGradient>
<linearGradient id="paint1_linear" x1="177.038" y1="306.935" x2="176.2" y2="377.969" gradientUnits="userSpaceOnUse">
<stop stop-color="#3360AB"/>
<stop offset="0.334432" stop-color="#3360AB"/>
<stop offset="0.955668" stop-color="#2B2C79"/>
<stop offset="1" stop-color="#2B2C79"/>
</linearGradient>
<linearGradient id="paint2_linear" x1="245.353" y1="302.701" x2="244.523" y2="373.058" gradientUnits="userSpaceOnUse">
<stop stop-color="#3360AB"/>
<stop offset="0.334432" stop-color="#3360AB"/>
<stop offset="0.955668" stop-color="#2B2C79"/>
<stop offset="1" stop-color="#2B2C79"/>
</linearGradient>
<linearGradient id="paint3_linear" x1="294.179" y1="303.182" x2="293.38" y2="370.907" gradientUnits="userSpaceOnUse">
<stop stop-color="#3360AB"/>
<stop offset="0.334432" stop-color="#3360AB"/>
<stop offset="0.955668" stop-color="#2B2C79"/>
<stop offset="1" stop-color="#2B2C79"/>
</linearGradient>
<linearGradient id="paint4_linear" x1="361.063" y1="308.012" x2="360.231" y2="378.609" gradientUnits="userSpaceOnUse">
<stop stop-color="#3360AB"/>
<stop offset="0.334432" stop-color="#3360AB"/>
<stop offset="0.955668" stop-color="#2B2C79"/>
<stop offset="1" stop-color="#2B2C79"/>
</linearGradient>
<linearGradient id="paint5_linear" x1="33.8718" y1="302.609" x2="33.0741" y2="370.244" gradientUnits="userSpaceOnUse">
<stop stop-color="#F6921E"/>
<stop offset="0.334432" stop-color="#F6921E"/>
<stop offset="0.95294" stop-color="#EE4036"/>
<stop offset="1" stop-color="#EE4036"/>
</linearGradient>
</defs>
</svg>
