<svg width="513" height="344" viewBox="0 0 513 344" fill="none" xmlns="http://www.w3.org/2000/svg">
<path d="M471.302 328.2L464.407 330.459L452.411 304.937L462.588 301.603L471.302 328.2Z" fill="#FFB8B8"/>
<path d="M475.251 334.309L453.017 341.593L452.925 341.312C452.173 339.017 452.363 336.517 453.455 334.362C454.546 332.208 456.448 330.575 458.743 329.822L458.744 329.822L472.324 325.373L475.251 334.309Z" fill="#2F2E41"/>
<path d="M408.343 152.152L409.861 139.983C410.401 135.658 412.636 131.724 416.076 129.048C419.516 126.371 423.878 125.171 428.203 125.71C432.527 126.25 436.461 128.485 439.137 131.925C441.814 135.365 443.015 139.727 442.475 144.052L440.957 156.221C440.884 156.802 440.583 157.33 440.121 157.689C439.659 158.048 439.074 158.21 438.493 158.138L410.26 154.616C409.679 154.543 409.151 154.242 408.792 153.78C408.433 153.319 408.271 152.733 408.343 152.152Z" fill="#2F2E41"/>
<path d="M421.867 155.783C428.521 155.783 433.915 150.389 433.915 143.734C433.915 137.08 428.521 131.686 421.867 131.686C415.213 131.686 409.819 137.08 409.819 143.734C409.819 150.389 415.213 155.783 421.867 155.783Z" fill="#FFB8B8"/>
<path d="M405.881 140.476C406.312 137.056 408.081 133.947 410.801 131.831C413.521 129.714 416.97 128.763 420.39 129.186L422.824 129.489C426.244 129.92 429.353 131.689 431.469 134.409C433.586 137.129 434.537 140.578 434.114 143.998L434.084 144.242L428.94 143.6L427.799 138.469L426.835 143.337L424.177 143.006L423.601 140.417L423.115 142.873L405.851 140.719L405.881 140.476Z" fill="#2F2E41"/>
<path d="M362.938 186.713C363.306 187.436 363.828 188.07 364.468 188.569C365.107 189.068 365.849 189.421 366.639 189.603C367.43 189.785 368.251 189.791 369.045 189.622C369.838 189.452 370.584 189.11 371.232 188.621L382.175 195.031L387.692 189.331L372.111 180.495C371.217 179.463 369.975 178.794 368.62 178.616C367.266 178.438 365.893 178.763 364.763 179.53C363.632 180.296 362.822 181.451 362.485 182.775C362.149 184.099 362.31 185.5 362.938 186.713Z" fill="#FFB8B8"/>
<path d="M398.804 198.232C390.732 198.232 376.528 194.618 375.742 194.416L375.493 194.353L377.729 183.034L399.424 187.319L411.211 170.722L424.742 169.346L424.365 169.843C424.189 170.075 406.746 193.037 404.031 196.889C403.346 197.861 401.389 198.232 398.804 198.232Z" fill="#3F3D56"/>
<path d="M400.968 240.713L400.645 240.559C400.576 240.526 393.718 237.19 390.166 230.678C386.631 224.197 403.18 196.703 404.338 194.795L404.355 186.064L410.308 169.99L417.9 165.699L411.382 180.909L400.968 240.713Z" fill="#3F3D56"/>
<path d="M393.362 334.559L386.106 334.559L382.653 306.57L393.363 306.571L393.362 334.559Z" fill="#FFB8B8"/>
<path d="M395.212 341.592L371.815 341.592V341.296C371.815 338.88 372.774 336.564 374.482 334.856C376.19 333.149 378.506 332.189 380.922 332.189H380.922L395.212 332.19L395.212 341.592Z" fill="#2F2E41"/>
<path d="M457.253 323.623L436.568 289.089L419.106 252.194L403.392 284.785L397.15 326.995L375.259 327.299L375.345 326.957L408.846 193.844L435.083 197.764L433.889 215.082L434.6 216.094C440.527 224.514 446.655 233.219 443.14 242.603L453.104 272.189L475.16 321.452L457.253 323.623Z" fill="#2F2E41"/>
<path d="M410.044 222.694C406.243 222.694 401.905 218.353 404.155 210.942L404.009 210.836L409.414 186.956C404.698 180.211 410.917 174.643 411.499 174.146L414.468 168.803L427.566 160.496L434.193 215.559L434.095 215.653C429.308 220.232 413.234 222.694 410.044 222.694Z" fill="#6C63FF"/>
<path d="M436.869 235.12C436.348 235.128 435.829 235.073 435.321 234.956C434.812 234.828 433.987 234.179 432.713 230.03C427.647 213.536 421.666 163.905 426.011 159.048L426.111 158.937L433.246 160.126C433.839 159.688 436.951 157.516 439.823 157.894C440.414 157.968 440.984 158.163 441.497 158.466C442.01 158.769 442.455 159.174 442.806 159.657L442.855 159.721L445.128 192.059L453.455 230.114L453.256 230.205C452.771 230.425 442.373 235.12 436.869 235.12Z" fill="#3F3D56"/>
<path d="M432.07 222.48C432.881 222.453 433.676 222.248 434.399 221.881C435.122 221.513 435.756 220.991 436.256 220.352C436.756 219.713 437.11 218.972 437.292 218.182C437.475 217.391 437.482 216.57 437.313 215.777L447.758 208.583L444.934 201.169L430.327 211.535C429.012 211.908 427.88 212.749 427.145 213.901C426.41 215.052 426.122 216.433 426.337 217.782C426.552 219.131 427.254 220.354 428.311 221.22C429.367 222.086 430.705 222.534 432.07 222.48Z" fill="#FFB8B8"/>
<path d="M444.311 214.347L435.007 207.525L448.085 189.691L438.049 171.981L442.539 159.142L442.829 159.695C442.965 159.952 456.367 185.484 458.705 189.576C461.138 193.832 445.156 213.322 444.474 214.149L444.311 214.347Z" fill="#3F3D56"/>
<path d="M235.034 294.612L227.116 291.278L221.684 251.584H149.349L143.461 291.116L136.377 294.658C136.038 294.828 135.766 295.107 135.606 295.45C135.445 295.793 135.405 296.181 135.492 296.549C135.579 296.918 135.788 297.247 136.085 297.482C136.383 297.717 136.75 297.845 137.129 297.845H234.382C234.77 297.845 235.147 297.711 235.447 297.465C235.748 297.219 235.954 296.876 236.031 296.496C236.108 296.115 236.05 295.719 235.869 295.376C235.687 295.033 235.392 294.763 235.034 294.612Z" fill="#E6E6E6"/>
<path d="M363.579 256.864H8.24788C6.38355 256.86 4.59702 256.117 3.28022 254.797C1.96342 253.477 1.22389 251.689 1.22388 249.825V199.718H370.603V249.825C370.603 251.689 369.864 253.477 368.547 254.797C367.23 256.117 365.444 256.86 363.579 256.864Z" fill="#CCCCCC"/>
<path d="M370.975 223.401H0.899414V9.0058C0.902014 6.75585 1.79697 4.5988 3.38796 3.00787C4.97894 1.41694 7.13602 0.522055 9.38598 0.519531H362.488C364.738 0.522049 366.895 1.41693 368.486 3.00786C370.077 4.59879 370.972 6.75584 370.975 9.0058V223.401Z" fill="#3F3D56"/>
<path d="M348.872 207.839H23.0027C21.2681 207.837 19.6052 207.148 18.3786 205.921C17.1521 204.695 16.4622 203.032 16.4602 201.297V22.6223C16.4621 20.8877 17.1521 19.2247 18.3786 17.9981C19.6051 16.7716 21.2681 16.0816 23.0027 16.0796H348.872C350.606 16.0816 352.269 16.7716 353.496 17.9981C354.722 19.2247 355.412 20.8877 355.414 22.6223V201.297C355.412 203.032 354.722 204.695 353.496 205.921C352.269 207.148 350.606 207.837 348.872 207.839Z" fill="white"/>
<path d="M277.328 298.259H94.2173C94.0297 298.263 93.8461 298.205 93.6951 298.094C93.544 297.983 93.434 297.825 93.3822 297.644C93.3498 297.522 93.346 297.393 93.3711 297.269C93.3962 297.144 93.4496 297.027 93.527 296.927C93.6044 296.826 93.7039 296.745 93.8178 296.689C93.9316 296.632 94.0568 296.603 94.1838 296.603H277.26C277.458 296.596 277.652 296.656 277.811 296.774C277.97 296.892 278.085 297.06 278.137 297.251C278.164 297.372 278.163 297.498 278.135 297.618C278.107 297.739 278.052 297.852 277.974 297.949C277.896 298.046 277.798 298.124 277.686 298.178C277.574 298.231 277.452 298.259 277.328 298.259Z" fill="#CCCCCC"/>
<path d="M345.393 44.9661H266.713V105.075H345.393V44.9661Z" fill="#F2F2F2"/>
<path d="M341.483 47.9526H270.623V102.088H341.483V47.9526Z" fill="white"/>
<path d="M307.297 88.108C307.307 88.1081 307.316 88.1079 307.325 88.1074C312.122 87.8565 316.643 85.788 319.969 82.3227C323.295 78.8573 325.176 74.2552 325.23 69.4523C325.284 64.6494 323.506 60.0063 320.259 56.4672C317.011 52.9282 312.538 50.7589 307.748 50.4005C307.689 50.3958 307.629 50.4035 307.573 50.4229C307.517 50.4424 307.465 50.4732 307.422 50.5136C307.378 50.5532 307.343 50.6014 307.319 50.6551C307.295 50.7089 307.283 50.767 307.282 50.8259L306.869 87.6717C306.868 87.7862 306.913 87.8965 306.993 87.9783C307.073 88.0601 307.183 88.1068 307.297 88.108Z" fill="#3F3D56"/>
<path d="M292.48 56.4932C292.627 56.495 292.768 56.5549 292.871 56.66L305.555 69.6321C305.606 69.684 305.647 69.7455 305.674 69.813C305.701 69.8805 305.714 69.9528 305.713 70.0255L305.516 87.6564C305.515 87.7321 305.499 87.8068 305.468 87.8759C305.437 87.945 305.392 88.007 305.336 88.0579C305.28 88.1095 305.214 88.149 305.142 88.174C305.07 88.199 304.994 88.209 304.918 88.2032C301.391 87.9393 298.008 86.6971 295.148 84.6161C292.288 82.5352 290.066 79.698 288.73 76.4234C287.394 73.1487 286.997 69.5664 287.585 66.079C288.173 62.5915 289.722 59.3371 292.058 56.6814C292.108 56.6242 292.17 56.5779 292.239 56.5456C292.308 56.5132 292.383 56.4954 292.46 56.4933C292.467 56.4932 292.474 56.4931 292.48 56.4932Z" fill="#E6E6E6"/>
<path d="M305.379 50.25C305.521 50.2517 305.656 50.3072 305.759 50.4051C305.813 50.4574 305.857 50.5204 305.886 50.5902C305.915 50.6601 305.93 50.7352 305.929 50.8109L305.751 66.7186C305.749 66.8282 305.716 66.9349 305.654 67.0253C305.592 67.1156 305.505 67.1857 305.403 67.2264C305.301 67.2672 305.19 67.277 305.083 67.2544C304.975 67.2318 304.877 67.178 304.801 67.0997L293.732 55.7799C293.679 55.7261 293.638 55.6621 293.611 55.5919C293.584 55.5217 293.572 55.4467 293.574 55.3715C293.577 55.2963 293.595 55.2225 293.627 55.1545C293.66 55.0865 293.705 55.0257 293.762 54.9759C296.981 52.1424 301.062 50.4775 305.345 50.2507C305.356 50.2501 305.368 50.2499 305.379 50.25Z" fill="#6C63FF"/>
<path d="M299.677 95.748C299.67 96.4191 299.463 97.0729 299.084 97.6267C298.705 98.1805 298.17 98.6095 297.548 98.8593C296.925 99.1092 296.242 99.1687 295.585 99.0304C294.928 98.8921 294.327 98.5622 293.858 98.0823C293.389 97.6025 293.072 96.9943 292.949 96.3346C292.825 95.6749 292.9 94.9935 293.164 94.3763C293.428 93.7592 293.869 93.2341 294.431 92.8676C294.993 92.501 295.651 92.3093 296.322 92.3169C297.222 92.328 298.08 92.6954 298.709 93.3387C299.338 93.9819 299.686 94.8484 299.677 95.748Z" fill="#6C63FF"/>
<path d="M309.372 95.8571C309.364 96.5282 309.158 97.182 308.779 97.7358C308.4 98.2896 307.865 98.7186 307.242 98.9685C306.619 99.2183 305.936 99.2779 305.279 99.1396C304.623 99.0013 304.022 98.6713 303.552 98.1915C303.083 97.7116 302.767 97.1034 302.643 96.4438C302.52 95.7841 302.595 95.1026 302.858 94.4855C303.122 93.8683 303.563 93.3433 304.125 92.9767C304.687 92.6101 305.345 92.4185 306.017 92.426C306.916 92.4371 307.775 92.8046 308.404 93.4478C309.033 94.0911 309.381 94.9575 309.372 95.8571Z" fill="#3F3D56"/>
<path d="M319.066 95.9658C319.058 96.6369 318.852 97.2906 318.473 97.8445C318.094 98.3983 317.559 98.8272 316.936 99.0771C316.313 99.327 315.63 99.3865 314.973 99.2482C314.317 99.1099 313.716 98.78 313.246 98.3001C312.777 97.8203 312.461 97.212 312.337 96.5524C312.214 95.8927 312.289 95.2112 312.552 94.5941C312.816 93.977 313.257 93.4519 313.819 93.0853C314.381 92.7188 315.04 92.5271 315.711 92.5346C316.61 92.5457 317.469 92.9132 318.098 93.5565C318.727 94.1997 319.075 95.0662 319.066 95.9658Z" fill="#E6E6E6"/>
<path d="M344.564 114.535H265.885V174.644H344.564V114.535Z" fill="#F2F2F2"/>
<path d="M340.655 117.522H269.794V171.658H340.655V117.522Z" fill="white"/>
<path d="M281.817 135.315C283.442 135.315 284.76 133.997 284.76 132.372C284.76 130.747 283.442 129.43 281.817 129.43C280.192 129.43 278.875 130.747 278.875 132.372C278.875 133.997 280.192 135.315 281.817 135.315Z" fill="#3F3D56"/>
<path d="M329.091 130.083C329.353 130.082 329.613 130.134 329.855 130.234C330.098 130.334 330.318 130.481 330.504 130.666C330.689 130.852 330.837 131.072 330.937 131.314C331.038 131.556 331.089 131.816 331.089 132.078C331.089 132.341 331.038 132.6 330.937 132.843C330.837 133.085 330.689 133.305 330.504 133.49C330.318 133.676 330.098 133.823 329.855 133.923C329.613 134.023 329.353 134.074 329.091 134.074H298.147C297.618 134.074 297.11 133.863 296.736 133.489C296.362 133.115 296.152 132.607 296.152 132.078C296.152 131.549 296.362 131.042 296.736 130.667C297.11 130.293 297.618 130.083 298.147 130.083H329.091ZM329.091 129.594H298.147C297.82 129.594 297.497 129.658 297.195 129.782C296.893 129.907 296.619 130.09 296.388 130.32C296.157 130.551 295.974 130.825 295.849 131.127C295.724 131.428 295.659 131.752 295.659 132.078C295.659 132.405 295.724 132.728 295.849 133.03C295.974 133.331 296.157 133.605 296.388 133.836C296.619 134.067 296.893 134.25 297.195 134.374C297.497 134.499 297.82 134.563 298.147 134.562H329.091C329.417 134.563 329.741 134.499 330.043 134.374C330.344 134.25 330.619 134.067 330.85 133.836C331.081 133.605 331.264 133.331 331.389 133.03C331.514 132.728 331.578 132.405 331.578 132.078C331.578 131.752 331.514 131.428 331.389 131.127C331.264 130.825 331.081 130.551 330.85 130.32C330.619 130.09 330.344 129.907 330.043 129.782C329.741 129.658 329.417 129.594 329.091 129.594Z" fill="#3F3D56"/>
<path d="M316.88 134.562H293.586C292.927 134.562 292.295 134.301 291.829 133.835C291.364 133.369 291.102 132.737 291.102 132.078C291.102 131.419 291.364 130.788 291.829 130.322C292.295 129.856 292.927 129.594 293.586 129.594H316.88C317.539 129.594 318.171 129.856 318.637 130.322C319.102 130.788 319.364 131.419 319.364 132.078C319.364 132.737 319.102 133.369 318.637 133.835C318.171 134.301 317.539 134.562 316.88 134.562Z" fill="#6C63FF"/>
<path d="M281.817 147.531C283.442 147.531 284.76 146.214 284.76 144.589C284.76 142.964 283.442 141.647 281.817 141.647C280.192 141.647 278.875 142.964 278.875 144.589C278.875 146.214 280.192 147.531 281.817 147.531Z" fill="#3F3D56"/>
<path d="M329.09 142.301C329.352 142.3 329.612 142.352 329.855 142.452C330.097 142.552 330.317 142.699 330.503 142.884C330.689 143.069 330.836 143.289 330.936 143.532C331.037 143.774 331.089 144.034 331.089 144.296C331.089 144.558 331.037 144.818 330.936 145.06C330.836 145.303 330.689 145.523 330.503 145.708C330.317 145.893 330.097 146.04 329.855 146.14C329.612 146.24 329.352 146.292 329.09 146.291H298.146C297.617 146.291 297.109 146.081 296.735 145.707C296.361 145.333 296.151 144.825 296.151 144.296C296.151 143.767 296.361 143.259 296.735 142.885C297.109 142.511 297.617 142.301 298.146 142.301H329.09ZM329.09 141.812H298.146C297.487 141.812 296.856 142.074 296.39 142.54C295.924 143.005 295.662 143.637 295.662 144.296C295.662 144.955 295.924 145.587 296.39 146.053C296.856 146.518 297.487 146.78 298.146 146.78H329.09C329.749 146.78 330.381 146.518 330.847 146.053C331.312 145.587 331.574 144.955 331.574 144.296C331.574 143.637 331.312 143.005 330.847 142.54C330.381 142.074 329.749 141.812 329.09 141.812Z" fill="#3F3D56"/>
<path d="M325.677 146.78H293.586C292.927 146.78 292.295 146.518 291.829 146.052C291.364 145.587 291.102 144.955 291.102 144.296C291.102 143.637 291.364 143.005 291.829 142.54C292.295 142.074 292.927 141.812 293.586 141.812H325.677C326.335 141.812 326.967 142.074 327.433 142.54C327.899 143.005 328.161 143.637 328.161 144.296C328.161 144.955 327.899 145.587 327.433 146.052C326.967 146.518 326.335 146.78 325.677 146.78Z" fill="#6C63FF"/>
<path d="M281.817 159.749C283.442 159.749 284.76 158.432 284.76 156.807C284.76 155.182 283.442 153.865 281.817 153.865C280.192 153.865 278.875 155.182 278.875 156.807C278.875 158.432 280.192 159.749 281.817 159.749Z" fill="#3F3D56"/>
<path d="M329.09 154.518C329.352 154.517 329.612 154.569 329.855 154.669C330.097 154.769 330.317 154.916 330.503 155.101C330.689 155.286 330.836 155.506 330.936 155.749C331.037 155.991 331.089 156.251 331.089 156.513C331.089 156.775 331.037 157.035 330.936 157.277C330.836 157.52 330.689 157.74 330.503 157.925C330.317 158.11 330.097 158.257 329.855 158.357C329.612 158.458 329.352 158.509 329.09 158.508H298.146C297.617 158.508 297.109 158.298 296.735 157.924C296.361 157.55 296.151 157.042 296.151 156.513C296.151 155.984 296.361 155.476 296.735 155.102C297.109 154.728 297.617 154.518 298.146 154.518H329.09ZM329.09 154.029H298.146C297.487 154.029 296.856 154.291 296.39 154.757C295.924 155.222 295.662 155.854 295.662 156.513C295.662 157.172 295.924 157.804 296.39 158.27C296.856 158.735 297.487 158.997 298.146 158.997H329.09C329.749 158.997 330.381 158.735 330.847 158.27C331.312 157.804 331.574 157.172 331.574 156.513C331.574 155.854 331.312 155.222 330.847 154.757C330.381 154.291 329.749 154.029 329.09 154.029Z" fill="#3F3D56"/>
<path d="M306.618 158.997H293.586C293.26 158.998 292.936 158.934 292.634 158.809C292.333 158.684 292.058 158.502 291.827 158.271C291.596 158.04 291.413 157.766 291.288 157.465C291.163 157.163 291.098 156.84 291.098 156.513C291.098 156.187 291.163 155.863 291.288 155.562C291.413 155.26 291.596 154.986 291.827 154.755C292.058 154.525 292.333 154.342 292.634 154.217C292.936 154.092 293.26 154.029 293.586 154.029H306.618C307.276 154.03 307.907 154.292 308.372 154.758C308.837 155.224 309.098 155.855 309.098 156.513C309.098 157.171 308.837 157.803 308.372 158.268C307.907 158.734 307.276 158.996 306.618 158.997Z" fill="#6C63FF"/>
<path d="M248.494 55.6008H28.677V168.257H248.494V55.6008Z" fill="#F2F2F2"/>
<path d="M241.165 61.1987H36.0032V162.659H241.165V61.1987Z" fill="white"/>
<path d="M215.721 147.18H66.1617C66.0375 147.18 65.9185 147.131 65.8307 147.043C65.7429 146.956 65.6936 146.837 65.6936 146.712V75.0286C65.6936 74.9045 65.7429 74.7854 65.8307 74.6976C65.9185 74.6099 66.0375 74.5605 66.1617 74.5605C66.2858 74.5605 66.4048 74.6099 66.4926 74.6976C66.5804 74.7854 66.6297 74.9045 66.6297 75.0286V146.244H215.721C215.845 146.244 215.964 146.294 216.052 146.381C216.14 146.469 216.189 146.588 216.189 146.712C216.189 146.837 216.14 146.956 216.052 147.043C215.964 147.131 215.845 147.18 215.721 147.18Z" fill="#3F3D56"/>
<path d="M98.1167 142.032H84.5137C84.1453 142.032 83.7922 141.885 83.5317 141.625C83.2712 141.364 83.1247 141.011 83.1243 140.643V121.891C83.1247 121.523 83.2712 121.17 83.5317 120.909C83.7922 120.649 84.1453 120.502 84.5137 120.502H98.1167C98.485 120.502 98.8382 120.649 99.0987 120.909C99.3591 121.17 99.5057 121.523 99.5061 121.891V140.643C99.5057 141.011 99.3591 141.364 99.0987 141.625C98.8382 141.885 98.485 142.032 98.1167 142.032Z" fill="#6C63FF"/>
<path d="M122.923 142.032H109.32C108.952 142.032 108.599 141.885 108.338 141.625C108.078 141.364 107.931 141.011 107.931 140.643V104.105C107.931 103.737 108.078 103.383 108.338 103.123C108.599 102.862 108.952 102.716 109.32 102.716H122.923C123.291 102.716 123.645 102.862 123.905 103.123C124.166 103.383 124.312 103.737 124.313 104.105V140.643C124.312 141.011 124.166 141.364 123.905 141.625C123.645 141.885 123.291 142.032 122.923 142.032Z" fill="#6C63FF"/>
<path d="M147.73 142.032H134.127C133.758 142.032 133.405 141.885 133.145 141.625C132.884 141.364 132.738 141.011 132.737 140.643V121.891C132.738 121.523 132.884 121.17 133.145 120.909C133.405 120.649 133.758 120.502 134.127 120.502H147.73C148.098 120.502 148.451 120.649 148.712 120.909C148.972 121.17 149.119 121.523 149.119 121.891V140.643C149.119 141.011 148.972 141.364 148.712 141.625C148.451 141.885 148.098 142.032 147.73 142.032Z" fill="#6C63FF"/>
<path d="M172.536 142.032H158.933C158.573 142.039 158.225 141.904 157.964 141.656C157.704 141.407 157.553 141.065 157.544 140.705V97.0208C157.553 96.6608 157.704 96.3191 157.964 96.0705C158.225 95.8219 158.573 95.6867 158.933 95.6944H172.536C172.896 95.6867 173.244 95.8219 173.505 96.0705C173.765 96.3191 173.917 96.6608 173.926 97.0208V140.705C173.917 141.065 173.765 141.407 173.505 141.656C173.244 141.904 172.896 142.039 172.536 142.032Z" fill="#6C63FF"/>
<path d="M197.343 142.032H183.74C183.372 142.031 183.019 141.885 182.758 141.624C182.498 141.364 182.351 141.011 182.351 140.642V84.4464C182.351 84.0781 182.498 83.7249 182.758 83.4645C183.019 83.204 183.372 83.0575 183.74 83.0571H197.343C197.712 83.0575 198.065 83.204 198.325 83.4645C198.586 83.7249 198.732 84.0781 198.733 84.4464V140.642C198.732 141.011 198.586 141.364 198.325 141.624C198.065 141.885 197.712 142.031 197.343 142.032Z" fill="#6C63FF"/>
<path d="M91.3144 114.884C92.8654 114.884 94.1227 113.627 94.1227 112.076C94.1227 110.525 92.8654 109.268 91.3144 109.268C89.7634 109.268 88.5061 110.525 88.5061 112.076C88.5061 113.627 89.7634 114.884 91.3144 114.884Z" fill="#3F3D56"/>
<path d="M116.122 96.6301C117.673 96.6301 118.93 95.3727 118.93 93.8218C118.93 92.2708 117.673 91.0134 116.122 91.0134C114.571 91.0134 113.313 92.2708 113.313 93.8218C113.313 95.3727 114.571 96.6301 116.122 96.6301Z" fill="#3F3D56"/>
<path d="M140.928 114.884C142.479 114.884 143.736 113.627 143.736 112.076C143.736 110.525 142.479 109.268 140.928 109.268C139.377 109.268 138.12 110.525 138.12 112.076C138.12 113.627 139.377 114.884 140.928 114.884Z" fill="#3F3D56"/>
<path d="M165.735 87.7375C167.286 87.7375 168.543 86.4802 168.543 84.9292C168.543 83.3782 167.286 82.1208 165.735 82.1208C164.184 82.1208 162.927 83.3782 162.927 84.9292C162.927 86.4802 164.184 87.7375 165.735 87.7375Z" fill="#3F3D56"/>
<path d="M190.542 77.4401C192.093 77.4401 193.35 76.1828 193.35 74.6318C193.35 73.0808 192.093 71.8235 190.542 71.8235C188.991 71.8235 187.733 73.0808 187.733 74.6318C187.733 76.1828 188.991 77.4401 190.542 77.4401Z" fill="#3F3D56"/>
<path d="M140.987 112.706L116.122 94.0808L91.5953 112.451L91.0342 111.702L116.122 92.9109L140.869 111.447L165.462 84.5354L165.56 84.4952L190.367 74.5005L190.717 75.3687L166.009 85.3238L140.987 112.706Z" fill="#3F3D56"/>
<path d="M511.813 343.158H305.07C304.927 343.158 304.789 343.101 304.687 342.999C304.585 342.897 304.528 342.759 304.528 342.615C304.528 342.471 304.585 342.333 304.687 342.232C304.789 342.13 304.927 342.073 305.07 342.073H511.813C511.957 342.073 512.095 342.13 512.197 342.232C512.299 342.333 512.356 342.471 512.356 342.615C512.356 342.759 512.299 342.897 512.197 342.999C512.095 343.101 511.957 343.158 511.813 343.158Z" fill="#CCCCCC"/>
</svg>
