<svg width="3020" height="1127" viewBox="0 0 3020 1127" fill="none" xmlns="http://www.w3.org/2000/svg">
<path fill-rule="evenodd" clip-rule="evenodd" d="M184.273 579.634C28.2737 485.437 110.567 415.407 97.6135 334.211C83.8096 247.826 -49.9893 133.702 106.097 89.9627C265.176 45.3716 587.129 60.6244 894.892 110.753C1175.82 156.498 1369.94 274.814 1645.43 340.649C1979.78 420.56 2373.08 422.403 2644.9 528.971C2917.84 635.975 2999.9 765.497 2941.58 848.785C2886.31 927.711 2540.02 909.834 2350.76 948.997C2159.22 988.625 2138.99 1105.06 1828.44 1079.12C1518.36 1053.22 1217.67 920.474 917.352 829.241C653.127 748.972 342.788 675.358 184.273 579.634Z" stroke="#5274C2" stroke-width="2"/>
<path fill-rule="evenodd" clip-rule="evenodd" d="M326.065 578.19C187.599 494.565 260.66 432.387 249.145 360.304C236.908 283.604 118.099 182.291 256.683 143.453C397.902 103.872 683.746 117.415 956.985 161.91C1206.38 202.53 1378.72 307.569 1623.3 366.017C1920.14 436.963 2269.31 438.603 2510.63 533.207C2752.95 628.202 2825.8 743.19 2774.03 817.137C2724.96 887.207 2417.52 871.336 2249.5 906.104C2079.45 941.292 2061.48 1044.67 1785.78 1021.63C1510.49 998.636 1243.53 880.788 976.915 799.791C742.343 728.529 466.807 663.173 326.065 578.19Z" stroke="#5274C2" stroke-width="2"/>
<path fill-rule="evenodd" clip-rule="evenodd" d="M472.621 576.696C352.229 503.994 415.755 449.946 405.746 387.273C395.108 320.589 291.825 232.505 412.301 198.738C535.071 164.326 783.584 176.103 1021.13 214.795C1237.96 250.107 1387.8 341.422 1600.43 392.233C1858.5 453.911 2162.07 455.34 2371.87 537.589C2582.54 620.177 2645.88 720.151 2600.86 784.436C2558.2 845.355 2290.92 831.556 2144.84 861.783C1997 892.376 1981.38 982.249 1741.69 962.224C1502.35 942.23 1270.26 839.774 1038.47 769.355C834.528 707.4 594.987 650.58 472.621 576.696Z" stroke="#5274C2" stroke-width="2"/>
<path fill-rule="evenodd" clip-rule="evenodd" d="M608.485 575.313C504.862 512.735 559.525 466.206 550.912 412.27C541.75 354.864 452.853 279.053 556.55 249.992C662.237 220.37 876.147 230.509 1080.62 263.806C1267.24 294.202 1396.21 372.803 1579.23 416.547C1801.35 469.627 2062.65 470.858 2243.24 541.651C2424.57 612.733 2479.09 698.789 2440.35 754.121C2403.63 806.556 2173.57 794.68 2047.83 820.697C1920.58 847.031 1907.14 924.387 1700.82 907.151C1494.81 889.941 1295.05 801.754 1095.53 741.141C919.987 687.815 713.803 638.907 608.485 575.313Z" stroke="#5274C2" stroke-width="2"/>
<path fill-rule="evenodd" clip-rule="evenodd" d="M749.955 573.872C663.8 521.836 709.247 483.15 702.086 438.295C694.468 390.563 620.554 327.531 706.786 303.358C794.651 278.734 972.512 287.162 1142.54 314.846C1297.73 340.125 1404.96 405.481 1557.15 441.847C1741.86 485.992 1959.12 487.014 2109.29 545.881C2260.07 604.992 2305.4 676.545 2273.19 722.555C2242.66 766.156 2051.35 756.28 1946.8 777.917C1840.99 799.813 1829.81 864.137 1658.26 849.804C1486.96 835.494 1320.85 762.164 1154.95 711.764C1008.97 667.419 837.527 626.752 749.955 573.872Z" stroke="#5274C2" stroke-width="2"/>
</svg>
