<svg width="344" height="282" viewBox="0 0 344 282" fill="none" xmlns="http://www.w3.org/2000/svg">
<g clip-path="url(#clip0)">
<path d="M328.617 172.172C328.241 172.902 327.848 173.62 327.443 174.333C311.901 201.646 275.749 218.608 214.779 209.631C180.161 204.291 165.418 223.877 151.142 243.939C150.898 244.285 150.654 244.632 150.406 244.978C135.456 266.016 120.655 287.113 83.647 280.1C44.4135 273.842 20.2003 241.707 16.4535 207.399C16.4079 206.981 16.3667 206.56 16.3293 206.143C14.2244 183.899 20.7295 160.867 37.3252 143.479C47.3498 132.979 61.5924 127.401 76.294 127.576C80.7205 127.659 85.1451 127.328 89.511 126.588C90.4746 126.416 91.4093 126.229 92.319 126.016C111.049 121.698 119.68 108.862 124.973 93.1968C125.097 92.8255 125.221 92.4542 125.341 92.0787C137.495 54.7206 131.875 2.28578 197.952 9.99937C257.081 14.3964 300.475 47.4701 321.76 85.6292C321.971 86.013 322.182 86.3968 322.389 86.7806C328.239 97.3685 332.414 108.813 334.762 120.701C334.895 121.369 335.015 122.036 335.126 122.704C338.137 140.425 336.164 157.65 328.617 172.172Z" fill="#F2F2F2"/>
<path d="M322.389 86.7803C318.147 91.8663 313.367 96.47 308.134 100.51C287.75 116.279 261.932 124.831 236.462 126.625C223.372 127.553 210.218 126.652 197.373 123.947C184.305 121.185 171.84 116.321 159.769 110.639C148.028 105.111 136.635 98.8784 124.973 93.1965C125.097 92.8252 125.221 92.4539 125.341 92.0784C138.058 98.2526 150.514 105.057 163.379 110.939C175.5 116.483 188.047 121.005 201.169 123.425C214.262 125.823 227.624 126.351 240.862 124.994C266.262 122.415 292.101 112.962 311.628 96.05C315.295 92.8749 318.685 89.3884 321.76 85.6289C321.971 86.0127 322.182 86.3965 322.389 86.7803Z" fill="white"/>
<path d="M234.137 1.011C234.107 1.011 234.078 1.01195 234.048 1.01386C202.704 2.99476 178.152 29.3865 178.152 61.0976C178.152 92.8088 202.704 119.201 234.048 121.181C234.235 121.194 234.423 121.167 234.6 121.103C234.776 121.039 234.938 120.939 235.074 120.809C235.21 120.681 235.319 120.526 235.393 120.354C235.466 120.182 235.504 119.997 235.503 119.809V2.3861C235.503 2.02106 235.358 1.67126 235.102 1.41345C234.846 1.15565 234.499 1.01091 234.137 1.01099L234.137 1.011Z" fill="#CCCCCC"/>
<path d="M282.059 101.223C281.594 101.223 281.149 101.037 280.82 100.706L240.293 59.8237C240.13 59.6602 240.001 59.4657 239.913 59.2514C239.825 59.0372 239.78 58.8074 239.78 58.5756V2.38816C239.779 2.14706 239.828 1.90837 239.923 1.68711C240.018 1.46584 240.157 1.2668 240.332 1.10249C240.507 0.936137 240.715 0.807877 240.941 0.72565C241.168 0.643423 241.409 0.608984 241.649 0.624454C273.197 2.61815 297.909 29.1821 297.909 61.0996C297.91 75.5977 292.758 89.6156 283.387 100.609C283.23 100.793 283.036 100.942 282.819 101.048C282.601 101.153 282.365 101.213 282.124 101.222C282.102 101.223 282.081 101.223 282.059 101.223Z" fill="#CCCCCC"/>
<path d="M241.537 121.579C241.09 121.578 240.659 121.406 240.333 121.098C240.158 120.933 240.018 120.734 239.923 120.513C239.828 120.291 239.779 120.052 239.78 119.811V69.115C239.78 68.7659 239.883 68.4247 240.075 68.1345C240.267 67.8443 240.541 67.6181 240.86 67.4845C241.18 67.3509 241.532 67.3159 241.871 67.384C242.211 67.452 242.522 67.6201 242.767 67.8669L278.132 103.542C278.3 103.711 278.432 103.914 278.52 104.136C278.608 104.359 278.65 104.598 278.644 104.837C278.638 105.077 278.583 105.313 278.484 105.531C278.385 105.749 278.242 105.944 278.066 106.105C267.997 115.249 255.166 120.699 241.646 121.575C241.61 121.577 241.573 121.579 241.537 121.579Z" fill="#6C63FF"/>
<path d="M335.126 122.704C329.452 132.854 321.442 141.806 312.269 148.902C291.885 164.672 266.067 173.224 240.597 175.017C227.507 175.946 214.353 175.044 201.508 172.339C188.44 169.577 175.976 164.713 163.904 159.031C151.614 153.245 139.699 146.683 127.462 140.788C115.238 134.898 102.674 129.875 89.5107 126.587C90.4743 126.416 91.4091 126.229 92.3188 126.016C93.179 126.241 94.0364 126.475 94.8911 126.717C120.63 133.976 143.347 148.281 167.514 159.332C179.636 164.876 192.183 169.398 205.305 171.818C218.397 174.215 231.759 174.743 244.997 173.386C270.397 170.808 296.236 161.355 315.764 144.443C323.493 137.778 329.934 129.729 334.762 120.701C334.894 121.369 335.014 122.036 335.126 122.704Z" fill="white"/>
<path d="M79.5896 211.82C104.948 218.971 127.371 232.963 151.142 243.939C150.898 244.285 150.654 244.631 150.406 244.978C149.802 244.698 149.202 244.419 148.603 244.135C136.312 238.349 124.398 231.786 112.161 225.892C99.6756 219.876 86.839 214.766 73.3698 211.483C54.7515 206.959 35.5187 205.579 16.453 207.398C16.4074 206.981 16.3662 206.56 16.3289 206.143C37.5825 204.119 59.0239 206.043 79.5896 211.82Z" fill="white"/>
<path d="M181.514 252.072H1.16768C1.04214 252.072 0.921746 252.022 0.832976 251.932C0.744206 251.843 0.694336 251.721 0.694336 251.595C0.694336 251.468 0.744206 251.347 0.832976 251.257C0.921746 251.168 1.04214 251.117 1.16768 251.117H181.514C181.639 251.117 181.759 251.168 181.848 251.257C181.937 251.347 181.987 251.468 181.987 251.595C181.987 251.721 181.937 251.843 181.848 251.932C181.759 252.022 181.639 252.072 181.514 252.072Z" fill="#CCCCCC"/>
<path d="M74.1201 187.656C80.5409 187.656 85.746 182.405 85.746 175.928C85.746 169.45 80.5409 164.2 74.1201 164.2C67.6992 164.2 62.4941 169.45 62.4941 175.928C62.4941 182.405 67.6992 187.656 74.1201 187.656Z" fill="#A0616A"/>
<path d="M117.62 258.681L117.892 264.529L95.6617 268.368L95.2612 259.738L117.62 258.681Z" fill="#A0616A"/>
<path d="M123.171 256.925L123.788 270.218L123.551 270.23C121.725 270.351 119.906 269.907 118.336 268.957C116.917 268.045 116.1 266.781 116.036 265.399V265.399L115.659 257.28L123.171 256.925Z" fill="#2F2E41"/>
<path d="M116.999 268.304L122.802 268.304L125.562 245.724L116.998 245.724L116.999 268.304Z" fill="#A0616A"/>
<path d="M115.519 266.393L126.947 266.392H126.947C127.904 266.392 128.851 266.582 129.735 266.952C130.618 267.321 131.421 267.862 132.097 268.544C132.774 269.226 133.31 270.036 133.676 270.928C134.042 271.819 134.231 272.774 134.231 273.739V273.978L115.519 273.979L115.519 266.393Z" fill="#2F2E41"/>
<path d="M62.2121 262.834C62.8479 262.446 63.3916 261.921 63.8047 261.298C64.2178 260.674 64.4904 259.967 64.6033 259.226C64.7161 258.485 64.6665 257.727 64.4579 257.008C64.2493 256.288 63.8868 255.623 63.3959 255.06L68.0278 208.573L56.9963 209.351L55.9121 254.801C55.0289 255.696 54.5017 256.886 54.4304 258.147C54.3591 259.407 54.7487 260.65 55.5252 261.641C56.3018 262.631 57.4114 263.299 58.6438 263.519C59.8763 263.739 61.1459 263.496 62.2121 262.834V262.834Z" fill="#A0616A"/>
<path d="M67.9735 216.631L56.5425 215.226C56.2173 215.186 55.9044 215.076 55.6252 214.903C55.346 214.73 55.107 214.498 54.9246 214.224C54.7421 213.949 54.6205 213.638 54.5679 213.312C54.5153 212.986 54.533 212.652 54.6199 212.333L57.6638 201.166C57.876 199.489 58.739 197.965 60.0635 196.928C61.388 195.891 63.066 195.427 64.7295 195.636C66.393 195.846 67.9062 196.712 68.9375 198.046C69.9687 199.379 70.4337 201.07 70.2306 202.749L70.5286 214.289C70.5371 214.619 70.4748 214.948 70.3461 215.252C70.2174 215.556 70.0252 215.828 69.7828 216.05C69.5403 216.273 69.2531 216.44 68.9409 216.54C68.6287 216.64 68.2988 216.671 67.9735 216.631Z" fill="#6C63FF"/>
<path d="M66.3746 269.419C64.9894 269.324 63.6538 268.861 62.5027 268.078C61.3516 267.294 60.4258 266.219 59.819 264.959C59.2122 263.699 58.9458 262.3 59.0468 260.903C59.1477 259.506 59.6124 258.161 60.394 257.003L67.8606 249.184L95.0782 224.592L109.629 212.412C110.478 211.701 111.492 211.22 112.576 211.012C113.66 210.805 114.779 210.879 115.827 211.227C116.875 211.574 117.818 212.185 118.568 213.001C119.318 213.817 119.85 214.812 120.115 215.893L127.717 246.916C127.845 247.432 127.778 247.977 127.529 248.446C127.28 248.915 126.867 249.274 126.371 249.453L118.083 252.463C117.806 252.564 117.51 252.605 117.216 252.585C116.922 252.564 116.635 252.483 116.374 252.345C116.112 252.207 115.882 252.015 115.698 251.783C115.514 251.551 115.38 251.282 115.304 250.995L112.151 239.069L94.6097 255.985L100.083 258.017C100.585 258.206 100.998 258.578 101.241 259.059C101.485 259.54 101.54 260.096 101.397 260.617L99.6283 266.938C99.5063 267.379 99.2473 267.769 98.8895 268.05C98.5317 268.332 98.0938 268.49 97.6402 268.502L66.3746 269.419Z" fill="#2F2E41"/>
<path d="M65.6315 251.787L64.9115 225.26L60.3701 213.625C59.4429 211.252 59.0411 208.702 59.1929 206.155C59.3447 203.609 60.0465 201.126 61.2491 198.882C62.4516 196.637 64.126 194.685 66.1548 193.162C68.1837 191.638 70.5181 190.581 72.9946 190.063C73.3685 189.984 73.7413 189.908 74.113 189.834C76.4886 189.358 78.9366 189.389 81.2996 189.925C83.6626 190.462 85.8881 191.491 87.8331 192.947C89.7781 194.403 91.3994 196.253 92.5927 198.379C93.786 200.505 94.5249 202.86 94.7619 205.291L96.896 225.262L96.8873 225.3C93.4844 240.569 83.6371 248.972 65.8971 251.746L65.6315 251.787Z" fill="#6C63FF"/>
<path d="M76.3721 233.361C76.631 233.32 76.8926 233.301 77.1546 233.302L90.2943 213.678L87.8059 208.502L95.0591 203.693L100.347 212.424C100.774 213.13 100.963 213.956 100.885 214.779C100.808 215.602 100.467 216.377 99.9154 216.988L81.9318 236.906C82.2143 237.883 82.1951 238.924 81.8769 239.89C81.5587 240.856 80.9565 241.701 80.1504 242.314C79.3443 242.926 78.3726 243.276 77.3644 243.318C76.3562 243.359 75.3594 243.09 74.5065 242.546C73.6537 242.002 72.9851 241.209 72.5899 240.273C72.1947 239.336 72.0915 238.3 72.294 237.303C72.4965 236.306 72.9952 235.395 73.7237 234.691C74.4522 233.986 75.3759 233.522 76.3721 233.361Z" fill="#A0616A"/>
<path d="M89.1443 213.314C88.8495 213.231 88.5759 213.085 88.3421 212.885C88.1084 212.686 87.9201 212.438 87.7901 212.158L83.2457 202.397C82.3792 201.081 82.0653 199.472 82.3727 197.923C82.6801 196.374 83.5837 195.012 84.8855 194.134C86.1873 193.256 87.781 192.934 89.3174 193.24C90.8537 193.545 92.2073 194.453 93.0814 195.764L100.261 203.801C100.466 204.031 100.62 204.302 100.711 204.596C100.803 204.891 100.83 205.202 100.792 205.509C100.754 205.815 100.65 206.109 100.489 206.372C100.328 206.634 100.112 206.858 99.8575 207.029L90.8964 213.034C90.6415 213.205 90.353 213.319 90.0506 213.367C89.7482 213.415 89.4391 213.397 89.1443 213.314Z" fill="#6C63FF"/>
<path d="M228.32 185.025H189.945C189.392 185.025 188.862 184.803 188.47 184.409C188.079 184.014 187.86 183.479 187.86 182.921C187.86 182.363 188.079 181.828 188.47 181.433C188.862 181.039 189.392 180.817 189.945 180.817H228.32C228.873 180.817 229.403 181.039 229.794 181.433C230.185 181.828 230.405 182.363 230.405 182.921C230.405 183.479 230.185 184.014 229.794 184.409C229.403 184.803 228.873 185.025 228.32 185.025Z" fill="#CCCCCC"/>
<path d="M178.475 187.129C177.608 187.129 176.762 186.87 176.041 186.384C175.321 185.899 174.76 185.209 174.428 184.402C174.097 183.594 174.01 182.706 174.179 181.849C174.348 180.992 174.765 180.205 175.378 179.587C175.99 178.969 176.771 178.548 177.62 178.378C178.47 178.207 179.35 178.295 180.151 178.629C180.951 178.963 181.635 179.53 182.116 180.256C182.598 180.983 182.854 181.837 182.854 182.711C182.853 183.882 182.391 185.005 181.57 185.833C180.749 186.662 179.636 187.128 178.475 187.129Z" fill="#3F3D56"/>
<path d="M228.32 197.648H189.945C189.392 197.648 188.862 197.427 188.47 197.032C188.079 196.637 187.86 196.102 187.86 195.544C187.86 194.986 188.079 194.451 188.47 194.057C188.862 193.662 189.392 193.44 189.945 193.44H228.32C228.873 193.44 229.403 193.662 229.794 194.057C230.185 194.451 230.405 194.986 230.405 195.544C230.405 196.102 230.185 196.637 229.794 197.032C229.403 197.427 228.873 197.648 228.32 197.648Z" fill="#CCCCCC"/>
<path d="M178.475 199.752C177.608 199.752 176.762 199.493 176.041 199.007C175.321 198.522 174.76 197.832 174.428 197.025C174.097 196.217 174.01 195.329 174.179 194.472C174.348 193.615 174.765 192.828 175.378 192.21C175.99 191.592 176.771 191.171 177.62 191.001C178.47 190.83 179.35 190.918 180.151 191.252C180.951 191.586 181.635 192.153 182.116 192.879C182.598 193.606 182.854 194.46 182.854 195.334C182.853 196.505 182.391 197.628 181.57 198.456C180.749 199.285 179.636 199.751 178.475 199.752Z" fill="#3F3D56"/>
<path d="M228.32 210.271H189.945C189.392 210.271 188.862 210.05 188.47 209.655C188.079 209.26 187.86 208.725 187.86 208.167C187.86 207.609 188.079 207.074 188.47 206.68C188.862 206.285 189.392 206.063 189.945 206.063H228.32C228.873 206.063 229.403 206.285 229.794 206.68C230.185 207.074 230.405 207.609 230.405 208.167C230.405 208.725 230.185 209.26 229.794 209.655C229.403 210.05 228.873 210.271 228.32 210.271Z" fill="#CCCCCC"/>
<path d="M178.475 212.375C177.608 212.375 176.762 212.116 176.041 211.63C175.321 211.145 174.76 210.455 174.428 209.648C174.097 208.84 174.01 207.952 174.179 207.095C174.348 206.238 174.765 205.451 175.378 204.833C175.99 204.215 176.771 203.794 177.62 203.624C178.47 203.453 179.35 203.541 180.151 203.875C180.951 204.21 181.635 204.776 182.116 205.502C182.598 206.229 182.854 207.083 182.854 207.957C182.853 209.128 182.391 210.251 181.57 211.08C180.749 211.908 179.636 212.374 178.475 212.375Z" fill="#3F3D56"/>
<path d="M239.346 195.488H255.196C255.306 195.488 255.412 195.443 255.491 195.364C255.569 195.285 255.613 195.178 255.613 195.067V96.2191C255.613 96.1075 255.569 96.0005 255.491 95.9216C255.412 95.8427 255.306 95.7983 255.196 95.7983C255.085 95.7983 254.979 95.8427 254.901 95.9216C254.823 96.0005 254.779 96.1075 254.779 96.2191V194.646H239.346C239.291 194.646 239.236 194.657 239.185 194.678C239.135 194.699 239.089 194.73 239.05 194.769C239.011 194.808 238.98 194.854 238.959 194.905C238.938 194.957 238.927 195.011 238.927 195.067C238.927 195.122 238.938 195.177 238.959 195.228C238.98 195.279 239.011 195.326 239.05 195.365C239.089 195.404 239.135 195.435 239.185 195.456C239.236 195.477 239.291 195.488 239.346 195.488Z" fill="#3F3D56"/>
<path d="M307.264 31.6132C306.204 31.6994 305.143 31.4665 304.214 30.9441C303.286 30.4218 302.531 29.6333 302.047 28.6785C301.563 27.7237 301.37 26.6454 301.493 25.58C301.616 24.5145 302.049 23.5098 302.738 22.6929C303.427 21.876 304.341 21.2836 305.364 20.9905C306.387 20.6975 307.473 20.717 308.485 21.0465C309.496 21.3761 310.389 22.001 311.048 22.8421C311.708 23.6832 312.106 24.7028 312.191 25.772C312.306 27.2057 311.851 28.6265 310.927 29.722C310.003 30.8174 308.686 31.4977 307.264 31.6132ZM307.198 30.7816C308.095 30.7087 308.95 30.3692 309.655 29.806C310.361 29.2428 310.885 28.4812 311.162 27.6175C311.438 26.7538 311.454 25.8268 311.209 24.9537C310.963 24.0806 310.466 23.3007 309.781 22.7125C309.095 22.1244 308.253 21.7544 307.359 21.6494C306.465 21.5443 305.561 21.709 304.76 22.1225C303.959 22.5361 303.298 23.1799 302.86 23.9726C302.421 24.7653 302.226 25.6713 302.298 26.5759C302.346 27.1766 302.511 27.7619 302.783 28.2983C303.055 28.8348 303.43 29.3119 303.885 29.7024C304.34 30.0929 304.866 30.3893 305.435 30.5744C306.003 30.7596 306.602 30.83 307.198 30.7816V30.7816Z" fill="#CCCCCC"/>
<path d="M325.776 17.6975C327.604 17.6975 329.085 16.2033 329.085 14.3601C329.085 12.5169 327.604 11.0227 325.776 11.0227C323.949 11.0227 322.468 12.5169 322.468 14.3601C322.468 16.2033 323.949 17.6975 325.776 17.6975Z" fill="#CCCCCC"/>
<path d="M342.038 5.62804C342.998 5.62804 343.776 4.84315 343.776 3.87493C343.776 2.90672 342.998 2.12183 342.038 2.12183C341.078 2.12183 340.3 2.90672 340.3 3.87493C340.3 4.84315 341.078 5.62804 342.038 5.62804Z" fill="#CCCCCC"/>
<path d="M282.003 138.36C281.417 139.255 280.581 139.954 279.601 140.37C278.62 140.786 277.54 140.899 276.496 140.695C275.452 140.491 274.492 139.979 273.736 139.225C272.98 138.47 272.463 137.507 272.25 136.456C272.038 135.405 272.138 134.314 272.54 133.321C272.942 132.328 273.627 131.477 274.508 130.877C275.389 130.276 276.427 129.953 277.49 129.947C278.553 129.942 279.594 130.254 280.482 130.846C281.67 131.64 282.497 132.877 282.783 134.285C283.068 135.694 282.788 137.16 282.003 138.36ZM273.722 132.841C273.226 133.598 272.964 134.486 272.969 135.394C272.973 136.302 273.245 137.187 273.748 137.939C274.252 138.691 274.966 139.276 275.799 139.619C276.632 139.962 277.547 140.048 278.428 139.866C279.31 139.685 280.118 139.243 280.751 138.598C281.384 137.953 281.813 137.133 281.984 136.242C282.155 135.351 282.06 134.429 281.712 133.592C281.363 132.756 280.776 132.042 280.026 131.542C279.019 130.872 277.789 130.633 276.608 130.876C275.426 131.12 274.388 131.826 273.722 132.841Z" fill="#CCCCCC"/>
<path d="M288.444 158.305C290.271 158.305 291.752 156.811 291.752 154.968C291.752 153.125 290.271 151.631 288.444 151.631C286.616 151.631 285.135 153.125 285.135 154.968C285.135 156.811 286.616 158.305 288.444 158.305Z" fill="#CCCCCC"/>
<path d="M297.672 173.82C298.632 173.82 299.41 173.036 299.41 172.067C299.41 171.099 298.632 170.314 297.672 170.314C296.712 170.314 295.934 171.099 295.934 172.067C295.934 173.036 296.712 173.82 297.672 173.82Z" fill="#CCCCCC"/>
<path d="M148.511 47.2752C148.037 46.3147 147.857 45.2341 147.993 44.1703C148.128 43.1064 148.574 42.107 149.272 41.2984C149.971 40.4898 150.892 39.9083 151.918 39.6276C152.944 39.3468 154.03 39.3793 155.038 39.721C156.046 40.0627 156.93 40.6982 157.58 41.5472C158.23 42.3962 158.616 43.4205 158.689 44.4906C158.761 45.5607 158.518 46.6285 157.989 47.5591C157.46 48.4896 156.67 49.2411 155.718 49.7184C154.44 50.3569 152.964 50.4582 151.613 50.0001C150.262 49.5421 149.146 48.5621 148.511 47.2752ZM157.399 42.8196C156.998 42.0068 156.368 41.332 155.588 40.8806C154.807 40.4292 153.911 40.2215 153.014 40.2836C152.116 40.3457 151.257 40.6749 150.545 41.2296C149.833 41.7843 149.3 42.5396 149.013 43.3999C148.726 44.2602 148.699 45.187 148.935 46.0629C149.17 46.9389 149.658 47.7247 150.336 48.3211C151.014 48.9174 151.853 49.2975 152.745 49.4132C153.637 49.5289 154.544 49.3751 155.349 48.9712C156.429 48.4286 157.251 47.4761 157.635 46.3229C158.019 45.1696 157.934 43.9097 157.399 42.8196Z" fill="#CCCCCC"/>
<path d="M131.038 47.8982C132.865 47.8982 134.346 46.404 134.346 44.5608C134.346 42.7176 132.865 41.2234 131.038 41.2234C129.211 41.2234 127.73 42.7176 127.73 44.5608C127.73 46.404 129.211 47.8982 131.038 47.8982Z" fill="#CCCCCC"/>
<path d="M111.745 45.7855C112.705 45.7855 113.483 45.0006 113.483 44.0324C113.483 43.0642 112.705 42.2793 111.745 42.2793C110.785 42.2793 110.007 43.0642 110.007 44.0324C110.007 45.0006 110.785 45.7855 111.745 45.7855Z" fill="#CCCCCC"/>
<path d="M86.406 176.954L85.9214 175.708C84.5845 172.271 81.3875 169.628 77.9663 169.133C76.2593 168.908 74.524 169.176 72.9622 169.907C71.4005 170.637 70.0763 171.8 69.1439 173.26C68.3525 174.644 67.7278 176.12 67.2828 177.654C67.1303 178.111 66.9766 178.441 66.6813 178.541C66.3488 178.662 66.0181 178.455 65.4699 178.112C65.3476 178.036 65.2063 177.996 65.0625 177.998C64.9187 177.999 64.7783 178.042 64.6577 178.121C64.5371 178.2 64.4413 178.312 64.3814 178.444C64.3215 178.576 64.3 178.722 64.3195 178.866L64.8943 183.006L64.4133 182.574C61.2832 179.763 60.6402 174.475 62.9013 171.119L57.7554 172.186L57.9872 171.74C60.1244 167.579 63.808 164.44 68.2325 163.011L63.3035 161.916L63.8017 161.607C68.2157 158.864 74.039 158.941 78.6362 161.799C80.9452 163.291 82.8576 165.33 84.2069 167.738C85.5563 170.146 86.3017 172.85 86.3783 175.615L86.406 176.954Z" fill="#2F2E41"/>
</g>
<defs>
<clipPath id="clip0">
<rect width="343.082" height="280.852" fill="white" transform="translate(0.694336 0.620605)"/>
</clipPath>
</defs>
</svg>
