<svg width="246" height="135" viewBox="0 0 246 135" fill="none" xmlns="http://www.w3.org/2000/svg">
<g clip-path="url(#clip0)">
<path d="M91.6236 92.7728C95.4635 92.7728 98.5763 89.6568 98.5763 85.8131C98.5763 81.9694 95.4635 78.8535 91.6236 78.8535C87.7837 78.8535 84.6709 81.9694 84.6709 85.8131C84.6709 89.6568 87.7837 92.7728 91.6236 92.7728Z" fill="#6C63FF"/>
<path d="M90.9607 88.751L88.8799 86.0729L90.0899 85.1306L91.0754 86.3988L94.4039 82.8813L95.5172 83.937L90.9607 88.751Z" fill="white"/>
<path d="M224.485 22.1138H121.126V0H224.485V22.1138Z" fill="white"/>
<path d="M134.518 16.6746C137.618 16.6746 140.13 14.1595 140.13 11.057C140.13 7.95452 137.618 5.43945 134.518 5.43945C131.419 5.43945 128.906 7.95452 128.906 11.057C128.906 14.1595 131.419 16.6746 134.518 16.6746Z" fill="#6C63FF"/>
<path d="M147.479 7.31201C147.231 7.31201 146.993 7.41066 146.818 7.58624C146.642 7.76182 146.544 7.99996 146.544 8.24827C146.544 8.49658 146.642 8.73473 146.818 8.91031C146.993 9.08589 147.231 9.18453 147.479 9.18453H215.769C216.017 9.18394 216.254 9.08505 216.429 8.90953C216.604 8.73401 216.702 8.4962 216.702 8.24827C216.702 8.00034 216.604 7.76254 216.429 7.58702C216.254 7.4115 216.017 7.3126 215.769 7.31201H147.479Z" fill="#3F3D56"/>
<path d="M147.479 12.9294C147.231 12.9289 146.993 13.0271 146.817 13.2023C146.642 13.3775 146.543 13.6154 146.542 13.8637C146.541 14.112 146.64 14.3504 146.815 14.5263C146.99 14.7023 147.227 14.8014 147.475 14.802H190.649C190.772 14.8022 190.894 14.7781 191.008 14.7311C191.121 14.6842 191.224 14.6153 191.311 14.5283C191.399 14.4413 191.468 14.3381 191.515 14.2244C191.562 14.1107 191.586 13.9888 191.586 13.8657C191.586 13.7426 191.562 13.6207 191.515 13.507C191.468 13.3934 191.399 13.2901 191.311 13.2031C191.224 13.1162 191.121 13.0472 191.008 13.0003C190.894 12.9533 190.772 12.9292 190.649 12.9294H147.479Z" fill="#3F3D56"/>
<path d="M224.485 22.1138H121.126V0H224.485V22.1138ZM122.704 20.5343H222.907V1.57956H122.704V20.5343Z" fill="#CCCCCC"/>
<path d="M224.485 49.7562H121.126V27.6423H224.485V49.7562Z" fill="white"/>
<path d="M134.518 44.3169C137.618 44.3169 140.13 41.8019 140.13 38.6994C140.13 35.5969 137.618 33.0818 134.518 33.0818C131.419 33.0818 128.906 35.5969 128.906 38.6994C128.906 41.8019 131.419 44.3169 134.518 44.3169Z" fill="#E6E6E6"/>
<path d="M147.479 34.9541C147.231 34.9541 146.993 35.0527 146.818 35.2283C146.642 35.4039 146.544 35.642 146.544 35.8904C146.544 36.1387 146.642 36.3768 146.818 36.5524C146.993 36.728 147.231 36.8266 147.479 36.8266H215.769C216.017 36.826 216.254 36.7271 216.429 36.5516C216.604 36.3761 216.702 36.1383 216.702 35.8904C216.702 35.6424 216.604 35.4046 216.429 35.2291C216.254 35.0536 216.017 34.9547 215.769 34.9541H147.479Z" fill="#E6E6E6"/>
<path d="M147.479 40.5718C147.231 40.5713 146.993 40.6694 146.817 40.8446C146.642 41.0198 146.543 41.2578 146.542 41.5061C146.541 41.7544 146.64 41.9927 146.815 42.1687C146.99 42.3446 147.227 42.4438 147.475 42.4443H190.649C190.772 42.4445 190.894 42.4204 191.008 42.3735C191.121 42.3265 191.224 42.2576 191.311 42.1706C191.399 42.0837 191.468 41.9804 191.515 41.8667C191.562 41.753 191.586 41.6311 191.586 41.508C191.586 41.385 191.562 41.2631 191.515 41.1494C191.468 41.0357 191.399 40.9324 191.311 40.8455C191.224 40.7585 191.121 40.6896 191.008 40.6426C190.894 40.5956 190.772 40.5716 190.649 40.5718H147.479Z" fill="#E6E6E6"/>
<path d="M224.485 49.7562H121.126V27.6423H224.485V49.7562ZM122.704 48.1766H222.907V29.2219H122.704V48.1766Z" fill="#E6E6E6"/>
<path d="M224.485 77.3985H121.126V55.2847H224.485V77.3985Z" fill="white"/>
<path d="M134.518 71.959C137.618 71.959 140.13 69.4439 140.13 66.3414C140.13 63.2389 137.618 60.7239 134.518 60.7239C131.419 60.7239 128.906 63.2389 128.906 66.3414C128.906 69.4439 131.419 71.959 134.518 71.959Z" fill="#E6E6E6"/>
<path d="M147.479 62.5964C147.231 62.5964 146.993 62.6951 146.818 62.8707C146.642 63.0462 146.544 63.2844 146.544 63.5327C146.544 63.781 146.642 64.0191 146.818 64.1947C146.993 64.3703 147.231 64.469 147.479 64.469H215.769C216.017 64.4684 216.254 64.3695 216.429 64.1939C216.604 64.0184 216.702 63.7806 216.702 63.5327C216.702 63.2848 216.604 63.047 216.429 62.8714C216.254 62.6959 216.017 62.597 215.769 62.5964H147.479Z" fill="#E6E6E6"/>
<path d="M147.479 68.2141C147.231 68.2136 146.993 68.3117 146.817 68.4869C146.642 68.6622 146.543 68.9001 146.542 69.1484C146.541 69.3967 146.64 69.635 146.815 69.811C146.99 69.987 147.227 70.0861 147.475 70.0866H190.649C190.772 70.0868 190.894 70.0628 191.008 70.0158C191.121 69.9688 191.224 69.8999 191.311 69.813C191.399 69.726 191.468 69.6227 191.515 69.509C191.562 69.3953 191.586 69.2734 191.586 69.1504C191.586 69.0273 191.562 68.9054 191.515 68.7917C191.468 68.678 191.399 68.5747 191.311 68.4878C191.224 68.4008 191.121 68.3319 191.008 68.2849C190.894 68.238 190.772 68.2139 190.649 68.2141H147.479Z" fill="#E6E6E6"/>
<path d="M224.485 77.3985H121.126V55.2847H224.485V77.3985ZM122.704 75.8189H222.907V56.8642H122.704V75.8189Z" fill="#E6E6E6"/>
<path d="M53.1294 82.6451C52.8938 82.342 52.7274 81.9908 52.642 81.6164C52.5566 81.242 52.5543 80.8533 52.6351 80.4779C52.716 80.1024 52.8781 79.7493 53.1101 79.4434C53.3421 79.1374 53.6382 78.8861 53.9777 78.7072L53.4296 72.7288L56.9779 71.5093L57.6334 79.9628C57.8959 80.5536 57.9329 81.2203 57.7372 81.8366C57.5415 82.4528 57.1268 82.9758 56.5716 83.3064C56.0164 83.6371 55.3594 83.7524 54.725 83.6305C54.0906 83.5086 53.5229 83.158 53.1294 82.6451Z" fill="#FFB8B8"/>
<path d="M56.9383 48.3324C56.9383 48.3324 59.3732 43.2173 61.5369 45.0166C63.7005 46.8159 58.5706 61.9402 58.5706 61.9402L57.7903 76.6224L53.6782 76.211L52.5156 61.9065L56.9383 48.3324Z" fill="#CCCCCC"/>
<path d="M24.2783 124.008L27.3307 126.481L38.3138 115.873L33.8089 112.222L24.2783 124.008Z" fill="#FFB8B8"/>
<path d="M24.3054 122.379L30.3168 127.25L30.317 127.251C31.3329 128.074 31.9805 129.267 32.1174 130.569C32.2542 131.87 31.8691 133.172 31.0467 134.189L30.9459 134.314L21.1035 126.339L24.3054 122.379Z" fill="#2F2E41"/>
<path d="M66.7 130.874H70.6271L72.4955 115.711L66.6992 115.711L66.7 130.874Z" fill="#FFB8B8"/>
<path d="M65.6973 129.59L73.4313 129.59H73.4317C74.7388 129.59 75.9924 130.11 76.9167 131.035C77.841 131.96 78.3603 133.215 78.3604 134.524V134.684L65.6975 134.684L65.6973 129.59Z" fill="#2F2E41"/>
<path d="M73.5905 59.7891C73.5905 59.7891 80.9581 68.7672 79.3564 77.7454C77.7547 86.7236 76.4734 93.4572 76.4734 93.4572L73.9108 113.658C73.9108 113.658 74.8718 119.16 73.5905 120.577C73.5905 120.577 75.5125 123.919 71.9888 125.201C68.4651 126.484 66.5639 124.758 66.5639 124.758C66.5639 124.758 63.9805 121.033 65.5822 120.071L66.2569 80.4273L40.5964 113.979C40.5964 113.979 40.1247 118.06 36.8369 118.104L32.9085 121.033L28.4238 118.468L30.6661 115.582C30.6661 115.582 29.3848 112.375 32.2678 111.734L48.925 89.93L53.0893 78.7073C53.0893 78.7073 55.3316 70.0498 61.4179 66.5227V62.7696L73.5905 59.7891Z" fill="#2F2E41"/>
<path d="M60.9383 44.2375C61.9082 43.0901 63.2658 42.3399 64.7526 42.1297C66.2394 41.9196 67.7514 42.2642 69.0008 43.0979L69.2669 43.2755C72.1102 46.4987 74.0212 50.4372 74.7942 54.6669L75.9938 61.2319L60.9383 64.4964L57.4088 52.3117C56.9608 50.7651 57.0686 49.1103 57.7135 47.6351C58.3583 46.1598 59.4994 44.9576 60.9383 44.2375V44.2375Z" fill="#CCCCCC"/>
<path d="M85.6728 84.0409C85.2554 83.9043 84.873 83.6778 84.5525 83.3772C84.2321 83.0767 83.9813 82.7095 83.8179 82.3015C83.6546 81.8935 83.5826 81.4546 83.607 81.0157C83.6314 80.5769 83.7517 80.1487 83.9593 79.7613L79.6162 74.4407L82.2026 71.0103L88.2304 78.6102C88.8574 79.0025 89.3187 79.6113 89.5272 80.3214C89.7356 81.0314 89.6766 81.7933 89.3613 82.4627C89.0461 83.1321 88.4965 83.6625 87.8166 83.9533C87.1368 84.2442 86.374 84.2753 85.6728 84.0409H85.6728Z" fill="#FFB8B8"/>
<path d="M67.3441 49.0473C67.3441 49.0473 66.3831 42.6343 69.5865 42.955C72.7898 43.2756 77.5947 60.9113 77.5947 60.9113L86.2436 75.3405L82.0793 77.5851L71.8288 64.7591L67.3441 49.0473Z" fill="#CCCCCC"/>
<path d="M73.2099 39.6718H57.956C57.6422 39.6714 57.3414 39.5465 57.1195 39.3244C56.8976 39.1023 56.7728 38.8012 56.7725 38.4871V31.9056C56.7725 29.5666 57.7007 27.3234 59.353 25.6695C61.0053 24.0156 63.2462 23.0864 65.5829 23.0864C67.9196 23.0864 70.1606 24.0156 71.8129 25.6695C73.4651 27.3234 74.3934 29.5666 74.3934 31.9056V38.4871C74.393 38.8012 74.2682 39.1023 74.0464 39.3244C73.8245 39.5465 73.5237 39.6714 73.2099 39.6718Z" fill="#2F2E41"/>
<path d="M67.3941 39.5186C70.9616 39.5186 73.8536 36.6237 73.8536 33.0526C73.8536 29.4816 70.9616 26.5867 67.3941 26.5867C63.8266 26.5867 60.9346 29.4816 60.9346 33.0526C60.9346 36.6237 63.8266 39.5186 67.3941 39.5186Z" fill="#FFB8B8"/>
<path d="M76.478 32.5638H68.3488L68.2654 31.2234L67.8486 32.5638H66.5969L66.4317 29.9071L65.6056 32.5638H63.1836V32.4322C63.1836 28.5854 65.9084 25.4558 69.2577 25.4558H70.4038C73.7531 25.4558 76.478 28.5854 76.478 32.4322V32.5638Z" fill="#2F2E41"/>
<path d="M68.6855 40.9003C68.5861 40.9003 68.487 40.8926 68.3888 40.8774L58.7129 39.3856V29.2975C58.7129 28.267 59.1219 27.2787 59.8498 26.55C60.5778 25.8212 61.5652 25.4119 62.5947 25.4119H69.3642L69.1005 25.6805C65.4315 29.4196 68.1956 35.4825 70.1698 38.7637C70.3147 38.9996 70.3802 39.2758 70.3566 39.5516C70.3329 39.8275 70.2215 40.0885 70.0386 40.2962C69.8706 40.4894 69.6624 40.6436 69.4287 40.748C69.195 40.8523 68.9414 40.9043 68.6855 40.9003Z" fill="#2F2E41"/>
<path d="M238.377 18.0069C242.217 18.0069 245.33 14.891 245.33 11.0473C245.33 7.20358 242.217 4.08765 238.377 4.08765C234.538 4.08765 231.425 7.20358 231.425 11.0473C231.425 14.891 234.538 18.0069 238.377 18.0069Z" fill="#6C63FF"/>
<path d="M237.715 13.9851L235.634 11.307L236.844 10.3648L237.829 11.6329L241.158 8.11548L242.271 9.17115L237.715 13.9851Z" fill="white"/>
<path d="M100.796 135H0.593077C0.523325 135 0.45643 134.972 0.407109 134.923C0.357787 134.873 0.330078 134.806 0.330078 134.737C0.330078 134.667 0.357787 134.6 0.407109 134.55C0.45643 134.501 0.523325 134.473 0.593077 134.473H100.796C100.865 134.473 100.932 134.501 100.982 134.55C101.031 134.6 101.059 134.667 101.059 134.737C101.059 134.806 101.031 134.873 100.982 134.923C100.932 134.972 100.865 135 100.796 135Z" fill="#CCCCCC"/>
</g>
<defs>
<clipPath id="clip0">
<rect width="245" height="135" fill="white" transform="translate(0.330078)"/>
</clipPath>
</defs>
</svg>
