<svg width="194" height="133" viewBox="0 0 194 133" fill="none" xmlns="http://www.w3.org/2000/svg">
<g clip-path="url(#clip0)">
<path d="M12.1985 23.8284C10.64 23.8284 9.09663 23.5203 7.65668 22.9216C6.21673 22.3228 4.90836 21.4453 3.80627 20.339C2.70418 19.2327 1.82996 17.9193 1.23351 16.4739C0.637065 15.0285 0.330078 13.4792 0.330078 11.9147C0.330078 10.3502 0.637065 8.80096 1.23351 7.35552C1.82996 5.91008 2.70418 4.59672 3.80627 3.49043C4.90836 2.38414 6.21673 1.50657 7.65668 0.907852C9.09663 0.309131 10.64 0.000976516 12.1985 0.000976563H120.219C121.778 0.000976516 123.321 0.309131 124.761 0.907852C126.201 1.50657 127.51 2.38414 128.612 3.49043C129.714 4.59672 130.588 5.91008 131.184 7.35552C131.781 8.80096 132.088 10.3502 132.088 11.9147C132.088 13.4792 131.781 15.0285 131.184 16.4739C130.588 17.9193 129.714 19.2327 128.612 20.339C127.51 21.4453 126.201 22.3228 124.761 22.9216C123.321 23.5203 121.778 23.8284 120.219 23.8284H12.1985Z" fill="#E6E6E6"/>
<path d="M12.1983 1.5542C9.46119 1.5542 6.83616 2.64567 4.90071 4.58851C2.96526 6.53134 1.87793 9.16638 1.87793 11.914C1.87793 14.6615 2.96526 17.2966 4.90071 19.2394C6.83616 21.1823 9.46119 22.2737 12.1983 22.2737H120.219C122.956 22.2737 125.581 21.1823 127.517 19.2394C129.452 17.2966 130.54 14.6615 130.54 11.914C130.54 9.16638 129.452 6.53134 127.517 4.58851C125.581 2.64567 122.956 1.5542 120.219 1.5542H12.1983Z" fill="white"/>
<path d="M44.9661 1.55396H44.6221V22.2735H44.9661V1.55396Z" fill="#E6E6E6"/>
<path d="M87.7962 1.55396H87.4521V22.2735H87.7962V1.55396Z" fill="#E6E6E6"/>
<path d="M87.4517 1.55396H44.9658V22.2735H87.4517V1.55396Z" fill="#6C63FF"/>
<path d="M66.2282 5.59668C64.9798 5.59668 63.7594 5.96829 62.7213 6.66453C61.6833 7.36076 60.8743 8.35035 60.3965 9.50815C59.9188 10.6659 59.7937 11.94 60.0373 13.1691C60.2809 14.3982 60.882 15.5272 61.7648 16.4133C62.6476 17.2995 63.7723 17.9029 64.9968 18.1474C66.2212 18.3919 67.4904 18.2664 68.6438 17.7869C69.7972 17.3073 70.783 16.4951 71.4766 15.4532C72.1702 14.4112 72.5404 13.1861 72.5404 11.9329C72.5404 10.2525 71.8753 8.6408 70.6916 7.45252C69.5078 6.26425 67.9023 5.59668 66.2282 5.59668ZM66.2282 7.49755C66.6027 7.49755 66.9688 7.60904 67.2802 7.81791C67.5917 8.02678 67.8344 8.32366 67.9777 8.671C68.121 9.01834 68.1585 9.40054 68.0855 9.76927C68.0124 10.138 67.832 10.4767 67.5672 10.7425C67.3024 11.0084 66.965 11.1894 66.5976 11.2628C66.2303 11.3361 65.8495 11.2985 65.5035 11.1546C65.1575 11.0107 64.8618 10.7671 64.6537 10.4545C64.4456 10.1419 64.3345 9.77438 64.3345 9.39843C64.3346 8.89433 64.5341 8.4109 64.8893 8.05448C65.2444 7.69805 65.726 7.49782 66.2282 7.49782V7.49755ZM66.2282 16.6487C65.4801 16.6452 64.7442 16.4586 64.0842 16.1051C63.4242 15.7515 62.8601 15.2417 62.4409 14.6198C62.4711 13.3525 64.9658 12.655 66.2282 12.655C67.4906 12.655 69.9852 13.3525 70.0155 14.6198C69.5958 15.2412 69.0316 15.7507 68.3717 16.1042C67.7118 16.4577 66.9761 16.6446 66.2282 16.6487Z" fill="white"/>
<path d="M23.3971 5.59668C22.1487 5.59668 20.9283 5.96829 19.8903 6.66453C18.8523 7.36076 18.0432 8.35035 17.5655 9.50815C17.0877 10.6659 16.9627 11.94 17.2062 13.1691C17.4498 14.3982 18.051 15.5272 18.9338 16.4133C19.8165 17.2995 20.9413 17.9029 22.1657 18.1474C23.3901 18.3919 24.6593 18.2664 25.8127 17.7869C26.9661 17.3073 27.9519 16.4951 28.6455 15.4532C29.3391 14.4112 29.7093 13.1861 29.7093 11.9329C29.7093 10.2525 29.0443 8.6408 27.8605 7.45252C26.6768 6.26425 25.0712 5.59668 23.3971 5.59668ZM23.3971 7.49755C23.7717 7.49755 24.1378 7.60904 24.4492 7.81791C24.7606 8.02678 25.0033 8.32366 25.1466 8.671C25.29 9.01834 25.3275 9.40054 25.2544 9.76927C25.1813 10.138 25.001 10.4767 24.7362 10.7425C24.4713 11.0084 24.1339 11.1894 23.7666 11.2628C23.3992 11.3361 23.0185 11.2985 22.6725 11.1546C22.3265 11.0107 22.0307 10.7671 21.8226 10.4545C21.6146 10.1419 21.5035 9.77438 21.5035 9.39843C21.5035 8.89428 21.703 8.41079 22.0581 8.05431C22.4133 7.69782 22.8949 7.49755 23.3971 7.49755ZM23.3971 16.6487C22.6491 16.6452 21.9131 16.4586 21.2531 16.1051C20.5932 15.7515 20.0291 15.2417 19.6098 14.6198C19.6401 13.3525 22.1347 12.655 23.3971 12.655C24.6596 12.655 27.1542 13.3525 27.1844 14.6198C26.7647 15.2412 26.2005 15.7507 25.5407 16.1042C24.8808 16.4577 24.1451 16.6446 23.3971 16.6487Z" fill="#E6E6E6"/>
<path d="M109.018 5.59668C107.77 5.59668 106.549 5.96829 105.511 6.66453C104.473 7.36076 103.664 8.35035 103.187 9.50815C102.709 10.6659 102.584 11.94 102.827 13.1691C103.071 14.3982 103.672 15.5272 104.555 16.4133C105.438 17.2995 106.562 17.9029 107.787 18.1474C109.011 18.3919 110.28 18.2664 111.434 17.7869C112.587 17.3073 113.573 16.4951 114.267 15.4532C114.96 14.4112 115.33 13.1861 115.33 11.9329C115.33 10.2525 114.665 8.6408 113.482 7.45252C112.298 6.26425 110.692 5.59668 109.018 5.59668ZM109.018 7.49755C109.393 7.49755 109.759 7.60904 110.07 7.81791C110.382 8.02678 110.624 8.32366 110.768 8.671C110.911 9.01834 110.949 9.40054 110.876 9.76927C110.802 10.138 110.622 10.4767 110.357 10.7425C110.092 11.0084 109.755 11.1894 109.388 11.2628C109.02 11.3361 108.64 11.2985 108.294 11.1546C107.948 11.0107 107.652 10.7671 107.444 10.4545C107.236 10.1419 107.125 9.77438 107.125 9.39843C107.125 8.89428 107.324 8.41079 107.679 8.05431C108.034 7.69782 108.516 7.49755 109.018 7.49755ZM109.018 16.6487C108.27 16.6452 107.534 16.4586 106.874 16.1051C106.214 15.7515 105.65 15.2417 105.231 14.6198C105.261 13.3525 107.756 12.655 109.018 12.655C110.281 12.655 112.775 13.3525 112.806 14.6198C112.386 15.2412 111.822 15.7507 111.162 16.1042C110.502 16.4577 109.766 16.6446 109.018 16.6487Z" fill="#E6E6E6"/>
<path d="M72.0146 32.511H60.4423C59.5708 32.511 58.8643 33.2202 58.8643 34.095V45.7115C58.8643 46.5864 59.5708 47.2956 60.4423 47.2956H72.0146C72.8861 47.2956 73.5927 46.5864 73.5927 45.7115V34.095C73.5927 33.2202 72.8861 32.511 72.0146 32.511Z" fill="#6C63FF"/>
<path d="M157.972 133C177.5 133 193.33 130.872 193.33 128.248C193.33 125.623 177.5 123.496 157.972 123.496C138.444 123.496 122.613 125.623 122.613 128.248C122.613 130.872 138.444 133 157.972 133Z" fill="#E6E6E6"/>
<path d="M114.806 32.4634H103.233C102.362 32.4634 101.655 33.1726 101.655 34.0474V45.6639C101.655 46.5387 102.362 47.248 103.233 47.248H114.806C115.677 47.248 116.384 46.5387 116.384 45.6639V34.0474C116.384 33.1726 115.677 32.4634 114.806 32.4634Z" fill="#E6E6E6"/>
<path d="M114.49 34.5178H103.76V45.2889H114.49V34.5178Z" fill="white"/>
<path d="M65.5375 42.1989L63.6768 39.7964L64.7588 38.9516L65.6398 40.0887L68.6166 36.9348L69.612 37.8813L65.5375 42.1989Z" fill="white"/>
<path d="M108.399 42.1989L106.538 39.7964L107.62 38.9516L108.501 40.0887L111.478 36.9348L112.473 37.8813L108.399 42.1989Z" fill="#E6E6E6"/>
<path d="M29.1845 32.4634H17.6122C16.7407 32.4634 16.0342 33.1726 16.0342 34.0474V45.6639C16.0342 46.5387 16.7407 47.248 17.6122 47.248H29.1845C30.0561 47.248 30.7626 46.5387 30.7626 45.6639V34.0474C30.7626 33.1726 30.0561 32.4634 29.1845 32.4634Z" fill="#E6E6E6"/>
<path d="M28.8688 34.5178H18.1387V45.2889H28.8688V34.5178Z" fill="white"/>
<path d="M22.7768 42.1989L20.916 39.7964L21.998 38.9516L22.8791 40.0887L25.8556 36.9348L26.851 37.8813L22.7768 42.1989Z" fill="#E6E6E6"/>
<path d="M181.808 124.49H178.342L176.693 111.069H181.809L181.808 124.49Z" fill="#FFB8B8"/>
<path d="M175.864 123.496H182.549V127.72H171.656C171.656 126.6 172.1 125.525 172.889 124.733C173.678 123.941 174.748 123.496 175.864 123.496Z" fill="#2F2E41"/>
<path d="M146.394 124.49H142.928L141.279 111.069H146.395L146.394 124.49Z" fill="#FFB8B8"/>
<path d="M140.451 123.496H147.136V127.72H136.242C136.242 126.6 136.686 125.525 137.475 124.733C138.264 123.941 139.334 123.496 140.45 123.496H140.451Z" fill="#2F2E41"/>
<path d="M157.972 24.9344V23.4123C157.972 20.809 159.002 18.3123 160.836 16.4714C162.67 14.6306 165.157 13.5964 167.75 13.5964C170.344 13.5964 172.831 14.6306 174.665 16.4714C176.499 18.3123 177.529 20.809 177.529 23.4123V24.9341C177.529 26.8106 176.786 28.6103 175.464 29.9372C174.143 31.2641 172.35 32.0096 170.48 32.0096H165.021C163.152 32.0096 161.359 31.2641 160.037 29.9372C158.715 28.6103 157.973 26.8106 157.973 24.9341L157.972 24.9344Z" fill="#2F2E41"/>
<path d="M167.751 32.5347C171.864 32.5347 175.198 29.1877 175.198 25.059C175.198 20.9302 171.864 17.5833 167.751 17.5833C163.638 17.5833 160.304 20.9302 160.304 25.059C160.304 29.1877 163.638 32.5347 167.751 32.5347Z" fill="#FFB8B8"/>
<path d="M127.243 50.7507C127.545 50.4643 127.906 50.2479 128.3 50.1167C128.695 49.9855 129.113 49.9427 129.526 49.9914C129.939 50.0401 130.336 50.179 130.69 50.3984C131.043 50.6178 131.345 50.9124 131.572 51.2613L137.956 50.0492L139.636 53.7639L130.597 55.3479C129.988 55.6926 129.274 55.801 128.59 55.6528C127.906 55.5046 127.301 55.1099 126.887 54.5436C126.474 53.9772 126.282 53.2784 126.348 52.5794C126.413 51.8805 126.731 51.2299 127.243 50.7507Z" fill="#FFB8B8"/>
<path d="M161.945 37.2423L162.028 37.3693L151.56 44.2919L133.896 49.9542C133.661 50.0297 133.46 50.1843 133.327 50.3918C133.194 50.5993 133.136 50.8467 133.164 51.0921L133.549 54.4239C133.567 54.5713 133.614 54.7136 133.689 54.8415C133.764 54.9694 133.865 55.0802 133.985 55.1667C134.106 55.2532 134.242 55.3135 134.387 55.3438C134.532 55.3741 134.681 55.3737 134.826 55.3426L151.451 51.7655C152.256 51.5934 153.017 51.2572 153.687 50.7776L165.446 42.3781C166.091 41.9164 166.531 41.2188 166.669 40.4354C166.807 39.652 166.634 38.8454 166.186 38.1892C165.738 37.5329 165.051 37.0794 164.273 36.9262C163.495 36.773 162.689 36.9324 162.027 37.3701L161.945 37.2423Z" fill="#CCCCCC"/>
<path d="M178.404 120.682C178.137 120.682 177.877 120.604 177.654 120.458C177.431 120.312 177.256 120.104 177.149 119.859L161.258 80.4427C161.22 80.3571 161.158 80.2851 161.079 80.2362C161 80.1873 160.908 80.1639 160.815 80.1691C160.722 80.1743 160.633 80.208 160.56 80.2655C160.487 80.323 160.433 80.4016 160.406 80.4907L147.441 118.865C147.386 119.043 147.296 119.209 147.175 119.351C147.054 119.493 146.906 119.609 146.739 119.691C146.572 119.774 146.389 119.821 146.204 119.83C146.018 119.839 145.832 119.81 145.658 119.745L141.31 118.108C141.074 118.02 140.867 117.868 140.712 117.669C140.557 117.47 140.46 117.231 140.432 116.98C138.476 99.877 155.532 56.7065 155.704 56.272L155.752 56.1519L171.3 59.6043L171.332 59.6397C177.535 66.4327 182.634 109.277 183.593 117.797C183.629 118.104 183.559 118.415 183.395 118.678C183.232 118.94 182.984 119.139 182.692 119.241L178.855 120.604C178.71 120.655 178.557 120.682 178.404 120.682V120.682Z" fill="#2F2E41"/>
<path d="M165.007 60.995C161.24 60.995 157.04 60.241 155.747 57.1294L155.718 57.0579L155.758 56.9916C156.778 55.3109 158.127 52.4443 157.402 51.906C155.974 50.8462 155.281 49.1027 155.343 46.724C155.476 41.5602 158.981 36.9754 164.065 35.3155C165.484 34.8597 166.928 34.4865 168.389 34.1977C169.455 33.9819 170.555 34.0057 171.611 34.2673C172.666 34.529 173.651 35.022 174.494 35.711C175.347 36.4046 176.037 37.2793 176.514 38.2724C176.991 39.2655 177.243 40.3522 177.252 41.4546C177.304 46.9724 176.459 54.6591 172.123 59.9353C171.92 60.1801 171.637 60.3451 171.325 60.4013C169.239 60.7802 167.126 60.9788 165.007 60.995Z" fill="#CCCCCC"/>
<path d="M163.606 60.7874C163.811 60.0492 164.298 59.422 164.961 59.0422C165.624 58.6624 166.409 58.5606 167.147 58.759C167.297 58.8012 167.444 58.8558 167.586 58.9221L172.433 54.4939L175.804 56.7736L168.872 62.9314C168.559 63.4978 168.066 63.9429 167.472 64.1959C166.878 64.4489 166.217 64.4952 165.594 64.3275C165.23 64.2277 164.891 64.0567 164.594 63.8244C164.297 63.592 164.049 63.3028 163.864 62.9736C163.679 62.6444 163.561 62.2817 163.517 61.9065C163.473 61.5312 163.503 61.1508 163.606 60.7874Z" fill="#FFB8B8"/>
<path d="M171.666 60.8434C171.351 60.8435 171.046 60.7339 170.802 60.5334L168.891 58.9655C168.731 58.8348 168.603 58.6695 168.517 58.4822C168.43 58.2949 168.387 58.0903 168.39 57.8837C168.393 57.6771 168.443 57.474 168.535 57.2894C168.628 57.1049 168.76 56.9437 168.924 56.818L176.941 50.6455C177.036 50.5719 177.099 50.4638 177.115 50.3444C177.131 50.225 177.099 50.1041 177.027 50.0079L172.079 43.4406C171.504 42.6802 171.215 41.74 171.265 40.7866C171.314 39.8333 171.698 38.9281 172.348 38.2314C173.033 37.489 173.97 37.0322 174.975 36.9516C175.98 36.8709 176.978 37.1724 177.772 37.7961L177.803 37.8293L182.97 45.2567C183.529 45.6965 183.979 46.26 184.285 46.9032C184.591 47.5464 184.745 48.2519 184.734 48.9646C184.724 49.6773 184.549 50.3779 184.224 51.0117C183.899 51.6454 183.433 52.1953 182.861 52.6181L172.477 60.5738C172.242 60.7482 171.957 60.8423 171.665 60.8423L171.666 60.8434Z" fill="#CCCCCC"/>
<path d="M161.154 22.9558V19.2467L167.751 16.3542L174.041 19.2457V22.9548C174.041 23.0347 174.025 23.1139 173.995 23.1878C173.964 23.2616 173.92 23.3287 173.863 23.3853C173.807 23.4418 173.74 23.4866 173.667 23.5172C173.593 23.5478 173.514 23.5636 173.435 23.5636H161.761C161.681 23.5636 161.602 23.5478 161.529 23.5172C161.455 23.4866 161.388 23.4418 161.332 23.3853C161.276 23.3287 161.231 23.2616 161.2 23.1878C161.17 23.1139 161.154 23.0347 161.154 22.9548V22.9558Z" fill="#2F2E41"/>
<path d="M173.394 17.3548C175.677 17.3548 177.529 15.4964 177.529 13.204C177.529 10.9116 175.677 9.05322 173.394 9.05322C171.11 9.05322 169.259 10.9116 169.259 13.204C169.259 15.4964 171.11 17.3548 173.394 17.3548Z" fill="#2F2E41"/>
<path d="M169.577 10.9773C169.577 10.3632 169.713 9.75668 169.974 9.20153C170.236 8.64639 170.617 8.15645 171.09 7.76706C171.563 7.37766 172.116 7.09853 172.709 6.9498C173.303 6.80108 173.922 6.78646 174.522 6.90701C173.992 6.6566 173.416 6.52191 172.831 6.51184C172.246 6.50177 171.665 6.61656 171.128 6.8486C170.59 7.08065 170.107 7.42466 169.712 7.85788C169.317 8.2911 169.018 8.80365 168.835 9.3616C168.651 9.91956 168.588 10.5102 168.65 11.0944C168.711 11.6787 168.895 12.2432 169.19 12.7506C169.485 13.2581 169.884 13.6969 170.36 14.038C170.837 14.3791 171.38 14.6148 171.954 14.7294C171.244 14.3948 170.644 13.8642 170.223 13.1998C169.802 12.5354 169.579 11.7645 169.578 10.9773H169.577Z" fill="#2F2E41"/>
</g>
<defs>
<clipPath id="clip0">
<rect width="193" height="133" fill="white" transform="translate(0.330078)"/>
</clipPath>
</defs>
</svg>
