<svg width="328" height="243" viewBox="0 0 328 243" fill="none" xmlns="http://www.w3.org/2000/svg">
<g clip-path="url(#clip0)">
<path opacity="0.1" d="M9.06519 152.573C5.1323 153.214 0.199795 155.049 0.245679 159.315C0.268621 161.479 1.70085 163.324 3.09375 164.906C9.01413 171.676 15.7684 177.663 23.1941 182.723C26.7403 185.134 30.5519 187.439 32.9084 191.166C35.2648 194.892 35.858 199.635 36.0448 204.147C36.5044 214.831 35.2495 225.52 32.3283 235.804C43.8746 238.011 56.7515 239.944 66.374 232.975C72.1357 228.801 76.0325 221.809 82.453 218.915C86.7398 216.981 91.5937 217.152 96.2673 217.398C118.39 218.567 140.458 220.76 162.471 223.976C171.69 225.325 181.087 226.851 190.208 225.108C199.329 223.365 208.302 217.678 211.665 208.459C212.183 207.038 212.648 205.453 213.808 204.598C214.857 203.835 216.23 203.851 217.505 203.897L294.551 206.555C298.772 206.699 303.141 206.818 307.005 205.075C310.751 203.387 313.632 200.141 316.404 196.961C322.746 189.705 329.566 180.779 327.702 170.932C326.21 163.038 319.544 157.523 312.934 153.661C306.323 149.8 299.031 146.639 294.174 140.466C286.783 131.069 287.075 117.621 286.616 105.428C286.198 94.3882 284.844 83.4039 282.568 72.5944C280.566 63.0925 277.777 53.5775 272.562 45.5524C267.348 37.5272 259.374 31.1006 250.355 29.9231C238.576 28.3839 226.734 35.7578 215.211 32.6267C205.477 29.9955 198.778 20.6449 190.712 14.1656C176.387 2.65415 157.588 0.24333 139.814 0.0229678C120.969 -0.217128 101.626 1.69706 84.8291 10.5773C80.9814 12.6099 77.2189 15.0701 74.5544 18.6616C70.4707 24.1707 69.481 31.5709 66.8099 38.0107C56.0436 63.9411 21.0277 69.5323 9.66168 95.1864C5.62719 104.287 5.66652 114.901 8.60635 124.458C11.7691 134.743 20.6705 140.423 24.2003 149.389C20.4018 151.842 13.67 151.819 9.06519 152.573Z" fill="#6C63FF"/>
<g opacity="0.2">
<path opacity="0.2" d="M290.231 121.995C290.231 121.995 291.804 101.021 303.616 89.6247C308.601 84.8768 311.916 78.6344 313.065 71.8345C313.58 68.6021 313.8 65.329 313.72 62.0564" stroke="#535461" stroke-width="2" stroke-miterlimit="10"/>
<path opacity="0.2" d="M321.134 54.8306C320.262 57.1329 313.563 62.267 313.563 62.267C313.563 62.267 311.924 53.9755 312.79 51.6633C312.997 51.1133 313.31 50.6096 313.711 50.181C314.112 49.7524 314.594 49.4073 315.128 49.1654C315.662 48.9235 316.238 48.7896 316.824 48.7712C317.41 48.7529 317.993 48.8505 318.541 49.0584C319.089 49.2664 319.591 49.5807 320.018 49.9833C320.446 50.3859 320.789 50.869 321.03 51.405C321.272 51.941 321.405 52.5194 321.423 53.1072C321.442 53.6949 321.344 54.2806 321.137 54.8306H321.134Z" fill="#6C63FF"/>
<path opacity="0.2" d="M323.205 70.2593C321.222 71.7262 312.822 72.3708 312.822 72.3708C312.822 72.3708 315.932 64.5134 317.915 63.0466C318.387 62.698 318.922 62.4461 319.491 62.3052C320.06 62.1644 320.651 62.1373 321.23 62.2255C321.809 62.3138 322.365 62.5157 322.866 62.8196C323.368 63.1236 323.805 63.5237 324.152 63.9971C324.499 64.4705 324.75 65.0079 324.891 65.5786C325.031 66.1493 325.058 66.7422 324.97 67.3234C324.882 67.9046 324.681 68.4627 324.378 68.9659C324.075 69.4691 323.677 69.9075 323.205 70.256V70.2593Z" fill="#6C63FF"/>
<path opacity="0.2" d="M314.654 92.0389C312.203 92.2988 304.629 88.602 304.629 88.602C304.629 88.602 311.265 83.3955 313.714 83.1324C314.891 83.0072 316.069 83.3563 316.989 84.103C317.91 84.8496 318.497 85.9326 318.622 87.1137C318.746 88.2948 318.398 89.4772 317.654 90.4009C316.91 91.3245 315.831 91.9138 314.654 92.0389Z" fill="#6C63FF"/>
<path opacity="0.2" d="M304.488 107.056C302.115 107.714 294.026 105.369 294.026 105.369C294.026 105.369 299.69 99.1201 302.063 98.4393C302.626 98.2795 303.216 98.2327 303.798 98.3016C304.38 98.3705 304.942 98.5537 305.454 98.8408C305.965 99.1278 306.415 99.5132 306.778 99.9748C307.141 100.436 307.409 100.965 307.569 101.531C307.728 102.097 307.775 102.689 307.706 103.272C307.637 103.856 307.455 104.421 307.169 104.934C306.882 105.447 306.499 105.899 306.039 106.263C305.579 106.627 305.052 106.897 304.488 107.056Z" fill="#6C63FF"/>
<path opacity="0.2" d="M303.891 69.496C304.937 71.7358 312.01 76.3272 312.01 76.3272C312.01 76.3272 313.016 67.9337 311.97 65.6939C311.721 65.1616 311.371 64.6837 310.938 64.2874C310.505 63.8911 309.999 63.5843 309.448 63.3844C308.897 63.1845 308.312 63.0954 307.726 63.1224C307.141 63.1493 306.567 63.2917 306.036 63.5413C305.506 63.791 305.03 64.143 304.635 64.5774C304.24 65.0117 303.934 65.5199 303.735 66.0728C303.536 66.6258 303.447 67.2127 303.474 67.8C303.501 68.3874 303.643 68.9637 303.891 69.496Z" fill="#6C63FF"/>
<path opacity="0.2" d="M292.22 87.2105C293.885 89.0326 302.003 91.2922 302.003 91.2922C302.003 91.2922 300.46 82.9809 298.795 81.1588C297.995 80.2835 296.882 79.7628 295.699 79.7112C294.517 79.6597 293.363 80.0817 292.491 80.8842C291.618 81.6867 291.099 82.804 291.048 83.9905C290.997 85.1769 291.417 86.3352 292.217 87.2105H292.22Z" fill="#6C63FF"/>
<path opacity="0.2" d="M283.234 105.987C284.568 108.066 292.191 111.668 292.191 111.668C292.191 111.668 292.07 103.215 290.736 101.143C290.095 100.144 289.085 99.4426 287.928 99.1915C286.771 98.9405 285.563 99.1609 284.568 99.8042C283.573 100.448 282.873 101.461 282.623 102.622C282.373 103.783 282.593 104.996 283.234 105.994V105.987Z" fill="#6C63FF"/>
</g>
<path d="M53.7954 28.8872V40.7177V180.509H296.586V40.7177V28.8872H53.7954Z" fill="url(#paint0_linear)"/>
<path d="M294.023 30.4888H56.3616V42.0693H294.023V30.4888Z" fill="#F6F7F9"/>
<g opacity="0.2">
<path opacity="0.2" d="M294.023 30.4888H56.3616V42.0693H294.023V30.4888Z" fill="#6C63FF"/>
</g>
<path d="M294.023 42.0693H56.3616V178.908H294.023V42.0693Z" fill="#F6F7F9"/>
<path d="M62.0611 38.7836C63.4784 38.7836 64.6273 37.6306 64.6273 36.2083C64.6273 34.786 63.4784 33.6331 62.0611 33.6331C60.6438 33.6331 59.4949 34.786 59.4949 36.2083C59.4949 37.6306 60.6438 38.7836 62.0611 38.7836Z" fill="#F6F7F9"/>
<path d="M68.8978 38.7836C70.315 38.7836 71.464 37.6306 71.464 36.2083C71.464 34.786 70.315 33.6331 68.8978 33.6331C67.4805 33.6331 66.3315 34.786 66.3315 36.2083C66.3315 37.6306 67.4805 38.7836 68.8978 38.7836Z" fill="#F6F7F9"/>
<path d="M75.7378 38.7836C77.1551 38.7836 78.3041 37.6306 78.3041 36.2083C78.3041 34.786 77.1551 33.6331 75.7378 33.6331C74.3206 33.6331 73.1716 34.786 73.1716 36.2083C73.1716 37.6306 74.3206 38.7836 75.7378 38.7836Z" fill="#F6F7F9"/>
<g opacity="0.2">
<path opacity="0.2" d="M186.875 59.0867H64.624V67.9505H186.875V59.0867Z" fill="#6C63FF"/>
</g>
<g opacity="0.2">
<path opacity="0.2" d="M282.336 59.0867H218.22V67.9505H282.336V59.0867Z" fill="#6C63FF"/>
</g>
<g opacity="0.2">
<path opacity="0.2" d="M96.9655 142.877H88.418V171.188H96.9655V142.877Z" fill="#6C63FF"/>
<path opacity="0.2" d="M113.494 122.571H104.946V171.185H113.494V122.571Z" fill="#6C63FF"/>
<path opacity="0.2" d="M130.021 102.268H121.474V171.185H130.021V102.268Z" fill="#6C63FF"/>
<path opacity="0.2" d="M146.549 108.845H138.002V171.188H146.549V108.845Z" fill="#6C63FF"/>
<path opacity="0.2" d="M163.078 128.29H154.53V171.185H163.078V128.29Z" fill="#6C63FF"/>
</g>
<g opacity="0.2">
<path opacity="0.2" d="M282.195 87.3982H218.079V166.469H282.195V87.3982Z" fill="#6C63FF"/>
</g>
<path d="M327.037 143.663C326.627 141.571 325.84 139.525 325.821 137.394C325.791 133.934 327.627 129.915 325.214 127.359C324.664 126.777 323.926 126.343 323.517 125.662C323.207 125.074 323.06 124.413 323.091 123.748C323.051 119.712 325.267 115.614 323.939 111.789C323.68 110.931 323.146 110.183 322.419 109.661C321.652 109.161 320.78 109.066 319.839 109.082C318.991 109.082 318.096 109.178 317.217 109.194C316.721 109.195 316.226 109.129 315.746 109C314.73 108.711 313.868 108.043 312.862 107.714C312.333 107.542 311.778 107.465 311.223 107.487C309.021 107.415 307.008 108.885 305.442 110.309C304.661 110.969 303.834 111.573 302.967 112.115C303.098 112.023 299.909 114.22 301.109 114.243C301.966 114.268 302.794 114.557 303.482 115.072C302.756 116.195 302.398 117.517 302.457 118.854C302.516 120.191 302.989 121.476 303.81 122.531C303.288 122.018 302.712 121.456 302.122 120.887C300.365 119.153 297.91 116.828 296.757 116.193C294.859 115.17 292.149 112.947 292.149 112.947C292.149 112.947 288.625 114.92 289.71 117.66C290.228 117.821 290.733 118.02 291.221 118.255C291.221 118.62 291.291 118.98 291.428 119.318C292.542 119.671 293.597 120.19 294.557 120.857C294.666 121.008 294.767 121.165 294.859 121.327C295.328 122.15 296.786 123.646 298.569 125.31C299.821 126.57 301.47 128.076 303.111 129.527C302.617 130.513 302.096 131.5 302.004 132.487C301.877 132.437 301.754 132.38 301.633 132.316C299.195 131 293.505 131.138 293.505 131.138C293.505 131.138 288.763 128.652 287.816 123.024C287.816 123.024 286.869 119.62 287.137 118.706H287.121L287.242 118.68L288.38 116.611C288.451 116.476 288.488 116.325 288.486 116.172C288.485 116.019 288.445 115.869 288.37 115.736C288.296 115.602 288.19 115.489 288.061 115.408C287.932 115.326 287.784 115.279 287.632 115.269C282.087 114.769 281.825 119.874 281.825 119.874H281.874L281.857 119.916C282.536 123.189 283.077 122.926 282.942 125.544L285.109 131.303C285.109 131.303 285.243 133.276 289.173 135.884C293.102 138.493 297.573 142.561 297.573 142.561C297.573 142.561 295.203 143.804 296.081 149.497C297.156 156.457 295.541 166.383 295.541 166.383V172.797L295.842 172.714C295.803 172.928 295.767 173.155 295.727 173.402C295.227 176.625 295.164 179.901 295.541 183.141C296.353 189.949 299.605 199.257 299.605 199.257C299.605 199.257 300.824 202.529 301.096 205.147C301.139 205.666 301.256 206.175 301.443 206.66C302.054 208.097 302.377 209.64 302.394 211.202C302.382 215.126 303.09 219.018 304.481 222.684C305.855 226.183 306.366 228.236 306.517 229.433C305.534 230.709 304.268 232.1 303.262 232.238C301.365 232.502 297.707 232.761 300.145 235.902C300.23 236.011 300.324 236.111 300.427 236.202C298.576 236.498 296.54 237.149 298.52 239.698C300.958 242.839 315.317 241.398 315.317 241.398C315.317 241.398 315.408 239.652 315.317 237.734C316.323 237.665 316.955 237.603 316.955 237.603C316.955 237.603 317.362 230.012 315.602 229.094C315.276 229.13 314.957 229.207 314.651 229.324C314.461 228.275 314.324 226.97 314.225 226.006L314.923 225.953V225.901H314.966V214.462C314.966 214.462 314.153 207.393 311.174 204.266C310.791 203.872 310.46 203.429 310.191 202.95L310.151 202.868C310.171 201.973 310.171 200.766 310.151 199.382L310.194 199.306C310.246 199.22 310.299 199.145 310.348 199.076C310.417 198.984 310.491 198.896 310.571 198.813L310.613 198.757C310.613 198.757 312.252 196.783 317.794 184.357C321.18 176.773 320.285 172.517 319.073 170.323C318.817 169.337 318.283 167.126 317.614 163.341C317.34 161.734 317.209 160.106 317.224 158.476C318.064 158.687 318.928 158.784 319.794 158.766C321.152 158.796 322.499 158.508 323.726 157.924C322.842 156.628 321.917 155.108 322.363 153.619C322.868 151.921 324.867 151.142 326.021 149.774C327.41 148.119 327.446 145.758 327.037 143.663Z" fill="url(#paint1_linear)"/>
<path d="M292.709 114.345C292.709 114.345 289.346 116.292 290.382 119.018C290.382 119.018 293.876 120.058 295.298 122.653C296.72 125.248 307.716 134.595 307.716 134.595L315.746 130.573C315.746 130.573 312.957 126.836 304.134 124.225C304.134 124.225 298.933 118.634 297.12 117.591C295.308 116.548 292.709 114.345 292.709 114.345Z" fill="#797C9C"/>
<path opacity="0.05" d="M294.348 115.989C294.348 115.989 290.985 117.936 292.021 120.663C292.021 120.663 295.514 121.702 296.937 124.297C298.359 126.892 309.355 136.24 309.355 136.24L317.384 132.217C317.384 132.217 314.595 128.481 305.773 125.869C305.773 125.869 300.571 120.278 298.759 119.235C296.947 118.193 294.348 115.989 294.348 115.989Z" fill="black"/>
<path d="M5.11944 211.751C5.11944 211.751 -13.7781 223.194 21.0575 240.81C21.0575 240.81 28.7332 226.509 20.248 214.85C18.6004 212.577 16.1796 210.99 13.4439 210.388C10.7083 209.787 7.84788 210.214 5.40457 211.587L5.11944 211.751Z" fill="#6C63FF"/>
<path d="M5.33569 211.508C5.33569 211.508 21.5097 223.924 21.0673 240.806" stroke="#535461" stroke-miterlimit="10"/>
<path d="M21.9718 241.017C21.9718 241.017 16.0495 220.826 23.073 205.989C26.0627 199.779 26.9643 192.763 25.6425 185.995C24.9894 182.788 24.0448 179.647 22.8206 176.612" stroke="#535461" stroke-width="2" stroke-miterlimit="10"/>
<path d="M27.2058 167.215C27.2058 169.689 22.7452 176.859 22.7452 176.859C22.7452 176.859 18.2847 169.689 18.2847 167.215C18.2847 166.028 18.7548 164.889 19.5916 164.049C20.4284 163.209 21.5634 162.737 22.7469 162.737C23.9303 162.737 25.0653 163.209 25.9021 164.049C26.7389 164.889 27.2091 166.028 27.2091 167.215H27.2058Z" fill="#6C63FF"/>
<path d="M34.58 180.924C33.2396 182.999 25.613 186.584 25.613 186.584C25.613 186.584 25.7507 178.131 27.0911 176.059C27.4096 175.566 27.8219 175.14 28.3043 174.807C28.7867 174.473 29.3299 174.238 29.9028 174.115C30.4757 173.992 31.0671 173.984 31.6433 174.09C32.2195 174.197 32.7692 174.416 33.2609 174.735C33.7526 175.055 34.1768 175.469 34.5092 175.953C34.8416 176.437 35.0758 176.982 35.1983 177.557C35.3207 178.132 35.3292 178.726 35.2231 179.304C35.117 179.882 34.8985 180.434 34.58 180.927V180.924Z" fill="#6C63FF"/>
<path d="M34.2587 204.328C32.0596 205.443 23.6694 204.657 23.6694 204.657C23.6694 204.657 28.0415 197.421 30.2406 196.316C31.2972 195.781 32.5221 195.69 33.646 196.061C34.7698 196.433 35.7005 197.237 36.2334 198.298C36.7662 199.358 36.8575 200.587 36.4872 201.715C36.1169 202.843 35.3153 203.777 34.2587 204.312V204.328Z" fill="#6C63FF"/>
<path d="M30.0407 221.983C28.0742 223.454 19.6611 224.118 19.6611 224.118C19.6611 224.118 22.7517 216.254 24.7346 214.784C25.2056 214.434 25.7407 214.181 26.3093 214.039C26.8778 213.897 27.4687 213.869 28.0481 213.956C28.6276 214.043 29.1843 214.243 29.6864 214.546C30.1886 214.849 30.6263 215.248 30.9748 215.721C31.3232 216.194 31.5754 216.731 31.717 217.301C31.8586 217.872 31.8868 218.465 31.8001 219.046C31.7134 219.628 31.5134 220.187 31.2115 220.691C30.9096 221.194 30.5118 221.634 30.0407 221.983Z" fill="#6C63FF"/>
<path d="M16.2461 187.064C18.0126 188.788 26.2488 190.574 26.2488 190.574C26.2488 190.574 24.2332 182.351 22.4634 180.641C22.0431 180.231 21.5464 179.907 21.0016 179.69C20.4568 179.472 19.8747 179.364 19.2884 179.372C18.7021 179.38 18.1231 179.504 17.5845 179.737C17.0459 179.97 16.5583 180.306 16.1494 180.728C15.7405 181.15 15.4184 181.648 15.2015 182.195C14.9846 182.742 14.8771 183.326 14.8852 183.914C14.8933 184.503 15.0167 185.084 15.2485 185.624C15.4804 186.165 15.816 186.654 16.2363 187.064H16.2461Z" fill="#6C63FF"/>
<path d="M11.5725 207.775C13.7716 208.89 22.1618 208.104 22.1618 208.104C22.1618 208.104 17.7897 200.868 15.5906 199.763C14.534 199.228 13.3091 199.137 12.1852 199.508C11.0614 199.88 10.1306 200.684 9.59781 201.745C9.06498 202.805 8.97368 204.034 9.34399 205.162C9.71431 206.29 10.5159 207.224 11.5725 207.759V207.775Z" fill="#6C63FF"/>
<path d="M9.78638 228.528C11.7528 229.999 20.1659 230.663 20.1659 230.663C20.1659 230.663 17.0753 222.799 15.0925 221.329C14.1411 220.623 12.9492 220.325 11.779 220.501C10.6087 220.676 9.55595 221.311 8.85231 222.266C8.14868 223.221 7.85179 224.417 8.02696 225.591C8.20213 226.766 8.83501 227.822 9.78638 228.528Z" fill="#6C63FF"/>
<path opacity="0.25" d="M27.2058 167.215C27.2058 169.689 22.7452 176.859 22.7452 176.859C22.7452 176.859 18.2847 169.689 18.2847 167.215C18.2847 166.028 18.7548 164.889 19.5916 164.049C20.4284 163.209 21.5634 162.737 22.7469 162.737C23.9303 162.737 25.0653 163.209 25.9021 164.049C26.7389 164.889 27.2091 166.028 27.2091 167.215H27.2058Z" fill="black"/>
<path opacity="0.25" d="M34.58 180.924C33.2396 182.999 25.613 186.584 25.613 186.584C25.613 186.584 25.7507 178.131 27.0911 176.059C27.4096 175.566 27.8219 175.14 28.3043 174.807C28.7867 174.473 29.3299 174.238 29.9028 174.115C30.4757 173.992 31.0671 173.984 31.6433 174.09C32.2195 174.197 32.7692 174.416 33.2609 174.735C33.7526 175.055 34.1768 175.469 34.5092 175.953C34.8416 176.437 35.0758 176.982 35.1983 177.557C35.3207 178.132 35.3292 178.726 35.2231 179.304C35.117 179.882 34.8985 180.434 34.58 180.927V180.924Z" fill="black"/>
<path opacity="0.25" d="M34.2587 204.328C32.0596 205.443 23.6694 204.657 23.6694 204.657C23.6694 204.657 28.0415 197.421 30.2406 196.316C31.2972 195.781 32.5221 195.69 33.646 196.061C34.7698 196.433 35.7005 197.237 36.2334 198.298C36.7662 199.358 36.8575 200.587 36.4872 201.715C36.1169 202.843 35.3153 203.777 34.2587 204.312V204.328Z" fill="black"/>
<path opacity="0.25" d="M30.0407 221.983C28.0742 223.454 19.6611 224.118 19.6611 224.118C19.6611 224.118 22.7517 216.254 24.7346 214.784C25.2056 214.434 25.7407 214.181 26.3093 214.039C26.8778 213.897 27.4687 213.869 28.0481 213.956C28.6276 214.043 29.1843 214.243 29.6864 214.546C30.1886 214.849 30.6263 215.248 30.9748 215.721C31.3232 216.194 31.5754 216.731 31.717 217.301C31.8586 217.872 31.8868 218.465 31.8001 219.046C31.7134 219.628 31.5134 220.187 31.2115 220.691C30.9096 221.194 30.5118 221.634 30.0407 221.983Z" fill="black"/>
<path opacity="0.25" d="M16.2461 187.064C18.0126 188.788 26.2488 190.574 26.2488 190.574C26.2488 190.574 24.2332 182.351 22.4634 180.641C22.0431 180.231 21.5464 179.907 21.0016 179.69C20.4568 179.472 19.8747 179.364 19.2884 179.372C18.7021 179.38 18.1231 179.504 17.5845 179.737C17.0459 179.97 16.5583 180.306 16.1494 180.728C15.7405 181.15 15.4184 181.648 15.2015 182.195C14.9846 182.742 14.8771 183.326 14.8852 183.914C14.8933 184.503 15.0167 185.084 15.2485 185.624C15.4804 186.165 15.816 186.654 16.2363 187.064H16.2461Z" fill="black"/>
<path opacity="0.25" d="M11.5725 207.775C13.7716 208.89 22.1618 208.104 22.1618 208.104C22.1618 208.104 17.7897 200.868 15.5906 199.763C14.534 199.228 13.3091 199.137 12.1852 199.508C11.0614 199.88 10.1306 200.684 9.59781 201.745C9.06498 202.805 8.97368 204.034 9.34399 205.162C9.71431 206.29 10.5159 207.224 11.5725 207.759V207.775Z" fill="black"/>
<path opacity="0.25" d="M9.78638 228.528C11.7528 229.999 20.1659 230.663 20.1659 230.663C20.1659 230.663 17.0753 222.799 15.0925 221.329C14.1411 220.623 12.9492 220.325 11.779 220.501C10.6087 220.676 9.55595 221.311 8.85231 222.266C8.14868 223.221 7.85179 224.417 8.02696 225.591C8.20213 226.766 8.83501 227.822 9.78638 228.528Z" fill="black"/>
<path d="M35.6747 241.401C35.6747 241.401 29.7524 221.224 36.7857 206.374C39.7754 200.164 40.677 193.148 39.3552 186.38C38.7021 183.172 37.7575 180.031 36.5334 176.997" stroke="#535461" stroke-width="2" stroke-miterlimit="10"/>
<path d="M40.9087 167.61C40.9087 170.083 36.4481 177.253 36.4481 177.253C36.4481 177.253 31.9875 170.083 31.9875 167.61C31.9875 166.422 32.4577 165.283 33.2945 164.443C34.1313 163.604 35.2663 163.132 36.4497 163.132C37.6332 163.132 38.7682 163.604 39.605 164.443C40.4418 165.283 40.9119 166.422 40.9119 167.61H40.9087Z" fill="#6C63FF"/>
<path d="M48.2861 181.305C46.9456 183.38 39.3191 186.965 39.3191 186.965C39.3191 186.965 39.4567 178.513 40.7972 176.441C41.4404 175.444 42.4518 174.745 43.6089 174.496C44.7659 174.248 45.9738 174.471 46.9669 175.117C47.96 175.762 48.6569 176.777 48.9043 177.938C49.1517 179.1 48.9293 180.312 48.2861 181.308V181.305Z" fill="#6C63FF"/>
<path d="M47.9616 204.71C45.7625 205.825 37.3723 205.039 37.3723 205.039C37.3723 205.039 41.7444 197.803 43.9435 196.698C44.4677 196.433 45.0388 196.274 45.6241 196.231C46.2094 196.188 46.7974 196.261 47.3547 196.445C47.9119 196.63 48.4274 196.923 48.8718 197.308C49.3161 197.693 49.6806 198.161 49.9445 198.688C50.2083 199.214 50.3663 199.787 50.4094 200.374C50.4526 200.961 50.38 201.552 50.1959 202.111C50.0118 202.67 49.7197 203.187 49.3363 203.633C48.953 204.079 48.4859 204.445 47.9616 204.71Z" fill="#6C63FF"/>
<path d="M43.7436 222.368C41.7771 223.838 33.364 224.503 33.364 224.503C33.364 224.503 36.4546 216.639 38.4374 215.169C38.9085 214.819 39.4436 214.566 40.0121 214.424C40.5807 214.282 41.1715 214.253 41.751 214.34C42.3304 214.427 42.8871 214.628 43.3893 214.931C43.8915 215.234 44.3292 215.633 44.6776 216.106C45.026 216.579 45.2782 217.116 45.4199 217.686C45.5615 218.257 45.5897 218.85 45.503 219.431C45.4163 220.013 45.2162 220.571 44.9144 221.075C44.6125 221.579 44.2146 222.019 43.7436 222.368Z" fill="#6C63FF"/>
<path d="M29.9556 187.446C31.7221 189.169 39.9582 190.955 39.9582 190.955C39.9582 190.955 37.9426 182.733 36.1728 181.022C35.7525 180.612 35.2558 180.289 34.7111 180.071C34.1663 179.853 33.5842 179.746 32.9979 179.754C32.4116 179.762 31.8326 179.886 31.294 180.118C30.7554 180.351 30.2678 180.688 29.8589 181.109C29.45 181.531 29.1279 182.03 28.911 182.576C28.6941 183.123 28.5866 183.707 28.5947 184.296C28.6027 184.884 28.7262 185.465 28.958 186.005C29.1898 186.546 29.5255 187.035 29.9457 187.446H29.9556Z" fill="#6C63FF"/>
<path d="M25.2753 208.156C27.4745 209.271 35.8646 208.485 35.8646 208.485C35.8646 208.485 31.4926 201.25 29.2934 200.144C28.2369 199.61 27.012 199.518 25.8881 199.89C24.7642 200.261 23.8335 201.066 23.3007 202.126C22.7679 203.186 22.6766 204.416 23.0469 205.543C23.4172 206.671 24.2188 207.605 25.2753 208.14V208.156Z" fill="#6C63FF"/>
<path d="M23.4893 228.913C25.4557 230.384 33.8688 231.048 33.8688 231.048C33.8688 231.048 30.7782 223.184 28.7954 221.714C27.844 221.008 26.6521 220.71 25.4818 220.886C24.3116 221.061 23.2588 221.696 22.5552 222.651C21.8516 223.606 21.5547 224.802 21.7298 225.976C21.905 227.151 22.5379 228.207 23.4893 228.913Z" fill="#6C63FF"/>
<path d="M320.38 240.698H8.04272V243H320.38V240.698Z" fill="#6C63FF"/>
<path d="M295.033 112.098H228.839V193.731H295.033V112.098Z" fill="url(#paint2_linear)"/>
<path d="M293.993 113.381H229.877V192.452H293.993V113.381Z" fill="#6C63FF"/>
<path d="M247.294 120.321H234.184V133.477H247.294V120.321Z" fill="#E8EAF1"/>
<path d="M287.278 141.37H240.739V144.002H287.278V141.37Z" fill="#E8EAF1"/>
<path d="M287.278 146.962H240.739V149.593H287.278V146.962Z" fill="#E8EAF1"/>
<path d="M287.278 152.553H240.739V155.184H287.278V152.553Z" fill="#E8EAF1"/>
<path d="M287.278 158.144H240.739V160.775H287.278V158.144Z" fill="#E8EAF1"/>
<path d="M287.278 163.735H240.739V166.367H287.278V163.735Z" fill="#E8EAF1"/>
<path d="M287.278 169.327H240.739V171.958H287.278V169.327Z" fill="#E8EAF1"/>
<path d="M287.278 174.918H240.739V177.549H287.278V174.918Z" fill="#E8EAF1"/>
<path d="M313.665 225.065C313.665 225.065 314.051 230.775 314.7 231.426C315.349 232.077 308.88 232.465 308.88 232.465L309.784 225.065H313.665Z" fill="#FFB9B9"/>
<path opacity="0.05" d="M313.665 225.065C313.665 225.065 314.051 230.775 314.7 231.426C315.349 232.077 308.88 232.465 308.88 232.465L309.784 225.065H313.665Z" fill="black"/>
<path d="M315.09 229.479C315.09 229.479 314.186 229.479 310.951 231.166C310.951 231.166 308.752 230.778 307.847 227.66C307.847 227.66 305.13 232.334 303.321 232.594C301.512 232.853 298.018 233.113 300.345 236.228C302.672 239.343 316.385 237.915 316.385 237.915C316.385 237.915 316.768 230.387 315.09 229.479Z" fill="#E4E2F3"/>
<path opacity="0.05" d="M315.09 229.479C315.09 229.479 314.186 229.479 310.951 231.166C310.951 231.166 308.752 230.778 307.847 227.66C307.847 227.66 305.13 232.334 303.321 232.594C301.512 232.853 298.018 233.113 300.345 236.228C302.672 239.343 316.385 237.915 316.385 237.915C316.385 237.915 316.768 230.387 315.09 229.479Z" fill="black"/>
<path d="M313.147 233.893L312.242 236.36L306.294 234.672L306.621 232.225L306.703 231.633L306.929 229.989C306.929 229.989 311.973 228.69 311.973 229.331C312.04 229.866 312.15 230.395 312.301 230.913C312.508 231.712 312.767 232.62 312.957 233.215C313.068 233.633 313.147 233.893 313.147 233.893Z" fill="#FFB9B9"/>
<path d="M309.899 200.039C309.576 200.587 309.405 201.212 309.405 201.848C309.405 202.485 309.576 203.109 309.899 203.657C310.153 204.126 310.466 204.56 310.83 204.95C313.674 208.064 314.451 215.073 314.451 215.073V226.364L312.511 226.512L309.407 226.752L304.75 207.541C304.75 207.541 302.033 193.524 303.328 191.057C304.622 188.59 305.786 173.145 305.786 173.145L306.861 172.03L309.407 169.383H316.781C317.372 169.807 317.862 170.356 318.217 170.991C319.456 173.046 320.567 177.322 317.171 185.216C311.869 197.546 310.315 199.493 310.315 199.493C310.156 199.659 310.016 199.842 309.899 200.039Z" fill="#4C4C78"/>
<path opacity="0.05" d="M309.941 199.983C309.618 200.531 309.447 201.156 309.447 201.792C309.447 202.429 309.618 203.054 309.941 203.601C310.196 204.07 310.509 204.504 310.872 204.894C313.717 208.008 314.494 215.017 314.494 215.017V226.308L312.553 226.456L309.45 226.696L304.793 207.485C304.793 207.485 302.076 193.468 303.37 191.001C304.665 188.534 305.828 173.089 305.828 173.089L306.903 171.974L309.45 169.327H316.824C317.414 169.751 317.904 170.3 318.259 170.935C319.498 172.991 320.609 177.266 317.214 185.16C311.911 197.49 310.358 199.437 310.358 199.437C310.198 199.603 310.059 199.786 309.941 199.983Z" fill="black"/>
<path opacity="0.1" d="M312.314 230.929L306.713 231.633L306.939 229.989C306.939 229.989 311.983 228.69 311.983 229.331C312.05 229.872 312.161 230.406 312.314 230.929Z" fill="black"/>
<path d="M309.519 183.4C309.519 183.4 309.846 193.619 309.892 200.039C309.892 201.493 309.892 202.749 309.892 203.657C309.9 204.134 309.864 204.611 309.787 205.081C309.401 206.249 310.174 208.844 310.174 208.844C312.115 213.974 312.909 219.468 312.501 224.94V230.65L306.294 231.429C306.294 231.429 307.329 230.65 304.481 223.121C303.15 219.474 302.474 215.619 302.485 211.735C302.47 210.189 302.162 208.66 301.577 207.229C301.4 206.747 301.289 206.242 301.25 205.729C300.991 203.134 299.827 199.888 299.827 199.888C299.827 199.888 296.724 190.679 295.947 183.923C295.588 180.71 295.649 177.464 296.127 174.267C296.241 173.455 296.396 172.649 296.592 171.853C296.592 171.853 309.237 163.867 314.012 169.386C314.472 169.926 314.836 170.541 315.09 171.205C315.352 171.86 315.556 172.537 315.7 173.227C317.184 180.545 309.519 183.4 309.519 183.4Z" fill="#4C4C78"/>
<path d="M309.135 126.55C312.779 126.55 315.733 123.586 315.733 119.93C315.733 116.273 312.779 113.309 309.135 113.309C305.492 113.309 302.538 116.273 302.538 119.93C302.538 123.586 305.492 126.55 309.135 126.55Z" fill="#FFB9B9"/>
<path d="M305.514 124.08C305.514 124.08 308.231 131.737 305.514 135.763C302.797 139.788 314.179 138.489 314.179 138.489L318.577 133.168C318.577 133.168 313.402 133.168 313.143 124.08C312.885 114.993 305.514 124.08 305.514 124.08Z" fill="#FFB9B9"/>
<path opacity="0.1" d="M318.577 172.497C317.64 172.823 316.676 173.065 315.697 173.221C314.087 173.471 312.186 173.481 311.075 172.497C310.42 171.915 308.781 171.84 306.844 172.03C302.738 172.425 297.182 173.961 296.121 174.264C296.235 173.451 296.39 172.646 296.586 171.849C296.586 171.849 309.23 163.864 314.005 169.383H316.765C317.355 169.807 317.845 170.356 318.201 170.991C318.44 172.024 318.577 172.497 318.577 172.497Z" fill="black"/>
<path opacity="0.1" d="M313.147 233.893L312.242 236.36L306.294 234.672L306.621 232.225C307.644 234.495 309.388 234.804 309.388 234.804C310.523 234.173 311.715 233.649 312.947 233.238C313.068 233.633 313.147 233.893 313.147 233.893Z" fill="black"/>
<path d="M313.533 233.245C313.533 233.245 312.629 233.245 309.394 234.932C309.394 234.932 307.195 234.544 306.29 231.426C306.29 231.426 303.573 236.1 301.764 236.359C299.955 236.619 296.462 236.879 298.788 239.994C301.115 243.109 314.828 241.681 314.828 241.681C314.828 241.681 315.215 234.153 313.533 233.245Z" fill="#E4E2F3"/>
<path d="M282.847 121.196C282.847 121.196 283.1 116.141 288.393 116.634C288.539 116.649 288.679 116.699 288.802 116.781C288.924 116.863 289.025 116.973 289.096 117.103C289.166 117.232 289.204 117.377 289.206 117.525C289.208 117.672 289.174 117.818 289.107 117.95L288.022 119.999L282.847 121.196Z" fill="#FFB9B9"/>
<path d="M313.406 134.723C313.406 134.723 307.067 133.684 305.386 132.388C305.386 132.388 304.091 134.855 301.764 133.556C299.437 132.257 294.003 132.388 294.003 132.388C292.579 131.512 291.357 130.341 290.42 128.953C289.483 127.565 288.852 125.993 288.57 124.34C288.57 124.34 287.665 120.966 287.914 120.064C287.914 120.064 284.551 116.558 282.87 121.232C283.526 124.478 284.034 124.218 283.906 126.823L285.974 132.533C285.974 132.533 286.102 134.48 289.854 137.075C293.607 139.67 297.874 143.696 297.874 143.696C297.874 143.696 295.609 144.929 296.452 150.576C297.481 157.483 295.934 167.321 295.934 167.321V173.681C295.934 173.681 308.87 169.919 311.066 171.863C313.262 173.806 318.568 171.863 318.568 171.863C318.568 171.863 317.912 169.656 317.014 164.334C316.116 159.013 317.142 153.809 317.142 153.809C317.142 153.809 320.505 144.853 322.058 141.219C323.612 137.585 320.895 132.668 318.178 130.836C315.461 129.004 314.451 130.109 314.451 130.109C314.451 130.109 319.226 133.556 313.406 134.723Z" fill="#797C9C"/>
<path opacity="0.05" d="M296.786 153.474C296.786 153.474 297.818 153.224 302.99 152.444C308.162 151.665 317.217 153.484 317.217 153.484" fill="black"/>
<path opacity="0.1" d="M301.256 115.641C304.206 115.703 306.389 119.354 305.081 121.988C304.508 123.146 303.397 124.166 303.511 125.452C303.564 126.037 303.875 126.567 304.009 127.139C304.629 129.77 301.492 132.234 302.21 134.832C302.455 135.529 302.836 136.169 303.331 136.717L308.778 143.604C309.109 143.983 309.383 144.408 309.591 144.867C309.798 145.519 309.879 146.206 309.827 146.889C309.801 150.178 310.014 153.707 311.947 156.375C314.271 159.578 319.007 160.729 322.53 158.943C321.685 157.658 320.803 156.151 321.219 154.668C321.701 152.987 323.608 152.211 324.71 150.856C326.04 149.211 326.073 146.876 325.693 144.801C325.313 142.726 324.549 140.696 324.533 138.585C324.506 135.154 326.257 131.168 323.953 128.636C323.425 128.057 322.723 127.629 322.33 126.952C322.034 126.364 321.894 125.709 321.924 125.051C321.888 121.051 324.002 116.983 322.733 113.19C322.492 112.347 321.982 111.605 321.281 111.079C319.485 109.865 316.995 111.043 314.917 110.421C313.933 110.135 313.124 109.471 312.164 109.145C309.574 108.267 307.179 110.03 305.389 111.72C304.645 112.373 303.856 112.971 303.026 113.509C303.154 113.44 300.109 115.618 301.256 115.641Z" fill="black"/>
<path d="M301.584 115.641C304.534 115.703 306.716 119.354 305.409 121.988C304.835 123.146 303.724 124.166 303.839 125.452C303.891 126.037 304.203 126.567 304.337 127.139C304.956 129.77 301.82 132.234 302.538 134.832C302.783 135.529 303.164 136.169 303.659 136.717L309.106 143.604C309.436 143.983 309.71 144.408 309.918 144.867C310.126 145.519 310.206 146.206 310.154 146.889C310.128 150.178 310.341 153.707 312.275 156.375C314.599 159.578 319.334 160.729 322.858 158.943C322.012 157.658 321.13 156.151 321.547 154.668C322.029 152.987 323.936 152.211 325.037 150.856C326.368 149.211 326.401 146.876 326.02 144.801C325.64 142.726 324.877 140.696 324.86 138.585C324.834 135.154 326.584 131.168 324.28 128.636C323.752 128.057 323.051 127.629 322.658 126.952C322.361 126.364 322.221 125.709 322.251 125.051C322.215 121.051 324.329 116.983 323.061 113.19C322.819 112.347 322.309 111.605 321.609 111.079C319.813 109.865 317.322 111.043 315.244 110.421C314.261 110.135 313.452 109.471 312.491 109.145C309.902 108.267 307.506 110.03 305.717 111.72C304.973 112.373 304.183 112.971 303.354 113.509C303.482 113.44 300.437 115.618 301.584 115.641Z" fill="#B36362"/>
<path d="M202.57 178.246C201.82 177.543 201.169 176.741 200.633 175.862C199.499 174.073 197.602 173.109 196.301 172.629V172.047H196.379L196.343 171.507H196.379L196.288 170.08L195.825 162.949C195.825 162.949 194.154 158.171 197.104 153.796C200.053 149.422 197.287 145.225 194.515 143.584C194.515 143.584 193.204 136.654 194.331 135.013C192.824 134.135 191.271 133.341 189.677 132.635C189.653 132.549 189.63 132.462 189.608 132.372C189.579 131.714 189.539 131.079 189.503 130.435C189.541 130.102 189.603 129.772 189.687 129.448C189.723 129.313 189.762 129.175 189.805 129.033C191.132 128.517 192.274 127.611 193.081 126.435C193.888 125.258 194.324 123.864 194.331 122.436C194.332 121.6 194.183 120.771 193.892 119.989C194.036 119.746 194.146 119.485 194.22 119.212C194.365 118.425 194.208 117.612 193.78 116.937C193.046 115.292 191.195 113.789 189.848 113.24C187.924 112.45 185.026 112.638 183.024 112.878C181.9 113.013 180.615 113.394 180.209 114.437C180.101 114.832 180.015 115.233 179.953 115.637C179.533 117.229 177.715 117.973 176.59 119.189C175.607 120.265 175.161 121.719 174.84 123.136C173.918 127.198 173.696 131.389 174.185 135.526C174.299 136.48 174.45 137.427 174.611 138.374C173.936 139.328 173.326 141.005 173.605 143.965L171.386 154.543L170.462 160.742C170.337 161.609 170.423 162.493 170.713 163.319C171.003 164.145 171.488 164.888 172.127 165.485C173.542 166.88 175.26 169.238 176.318 170.767C175.857 172.12 175.629 173.541 175.643 174.971C175.666 175.628 175.702 176.25 175.748 176.849C175.843 178.11 176.081 179.357 176.456 180.565C176.715 183.111 177.229 186.367 178.232 188.459L178.603 199.582C178.603 199.582 178.049 209.794 176.938 211.801C175.827 213.807 179.343 230.768 179.343 230.768V233.14L178.75 234.876L178.603 234.764C175.827 238.231 178.603 239.507 178.603 239.507C178.603 239.507 179.357 239.543 180.569 239.589C180.466 240.074 180.526 240.58 180.74 241.027C180.954 241.474 181.31 241.837 181.752 242.059C181.752 242.059 197.484 242.789 200.257 242.059C203.029 241.329 202.292 238.77 200.81 238.958C200.061 238.984 199.312 238.885 198.595 238.665C199.46 237.649 198.769 236.271 197.667 236.406C196.186 236.586 192.856 235.264 192.856 235.264V235.287C192.749 235.247 192.64 235.214 192.528 235.189C191.291 234.906 190.069 234.561 188.868 234.153C188.153 232.617 186.508 228.486 187.688 225.272C188.222 223.825 188.396 221.898 188.396 220.03C188.424 214.397 189.243 208.797 190.831 203.394L193.05 195.741C193.05 195.741 196.196 186.439 196.379 183.9L196.353 180.177C198.955 181.858 201.02 181.348 202.341 180.568C202.539 180.455 202.707 180.296 202.831 180.105C202.954 179.913 203.031 179.694 203.053 179.467C203.076 179.24 203.044 179.01 202.96 178.798C202.876 178.585 202.742 178.396 202.57 178.246ZM177.875 158.901C177.937 158.634 177.99 158.342 178.036 158.036C178.473 158.036 178.91 158.036 179.347 158.036C179.888 159.149 180.115 160.39 180.002 161.624C178.999 161.295 177.498 160.512 177.875 158.901Z" fill="url(#paint3_linear)"/>
<path d="M179.635 232.288L178.924 234.432L181.237 236.754L188.893 238.54L194.413 238.004L194.055 236.03C193.949 235.608 193.73 235.224 193.421 234.919C193.111 234.613 192.724 234.4 192.302 234.3C190.034 233.764 185.708 232.547 184.797 230.85L179.635 232.288Z" fill="#DB8B8B"/>
<path opacity="0.1" d="M179.635 232.288L178.924 234.432L181.237 236.754L188.893 238.54L194.413 238.004L194.055 236.03C193.949 235.608 193.73 235.224 193.421 234.919C193.111 234.613 192.724 234.4 192.302 234.3C190.034 233.764 185.708 232.547 184.797 230.85L179.635 232.288Z" fill="black"/>
<path d="M192.633 237.471L191.565 236.04L192.633 234.396C192.633 234.396 195.838 235.695 197.261 235.514C198.683 235.333 199.398 237.836 196.726 238.553C194.055 239.27 178.92 238.553 178.92 238.553C178.92 238.553 176.249 237.303 178.92 233.909L181.234 235.695C181.234 235.695 185.167 237.84 187.111 237.481L192.633 237.471Z" fill="#474463"/>
<path d="M197.431 240.507L191.912 241.043L184.263 239.244L181.949 236.942L182.139 236.373L182.404 235.577L182.663 234.797L187.825 233.366C188.087 233.795 188.445 234.155 188.871 234.419C190.549 235.57 193.561 236.392 195.327 236.817C195.402 236.834 195.475 236.856 195.547 236.882C195.921 237.008 196.258 237.227 196.526 237.518C196.794 237.809 196.985 238.162 197.081 238.547L197.431 240.507Z" fill="#DB8B8B"/>
<path opacity="0.1" d="M197.431 240.507L191.912 241.043L184.263 239.244L181.949 236.942L182.139 236.373L184.266 238.017C184.266 238.017 188.199 240.162 190.142 239.803H195.661L194.593 238.372L195.553 236.886C195.928 237.012 196.264 237.23 196.532 237.521C196.8 237.812 196.991 238.166 197.087 238.55L197.431 240.507Z" fill="black"/>
<path d="M195.658 239.971L194.59 238.54L195.658 236.896C195.658 236.896 198.863 238.195 200.286 238.014C201.708 237.833 202.423 240.336 199.752 241.053C197.081 241.77 181.945 241.053 181.945 241.053C181.945 241.053 179.274 239.803 181.945 236.409L184.259 238.195C184.259 238.195 188.192 240.339 190.136 239.981L195.658 239.971Z" fill="#474463"/>
<path d="M191.204 136.338C191.204 136.338 182.656 137.233 183.905 133.658C184.253 132.645 184.343 131.56 184.167 130.503C183.946 129.193 183.429 127.95 182.656 126.869L190.67 128.119C190.19 128.925 189.825 129.794 189.585 130.701C188.631 134.493 191.204 136.338 191.204 136.338Z" fill="#DB8B8B"/>
<path d="M176.607 177.082C176.607 177.082 176.784 184.765 178.573 188.518L178.93 199.418C178.93 199.418 178.396 209.423 177.328 211.39C176.259 213.356 179.642 229.972 179.642 229.972V232.831C179.642 232.831 185.331 234.968 186.944 232.469L185.341 211.205L186.052 181.723L176.607 177.082Z" fill="#474463"/>
<path opacity="0.1" d="M176.607 177.082C176.607 177.082 176.784 184.765 178.573 188.518L178.93 199.418C178.93 199.418 178.396 209.423 177.328 211.39C176.259 213.356 179.642 229.972 179.642 229.972V232.831C179.642 232.831 185.331 234.968 186.944 232.469L185.341 211.205L186.052 181.723L176.607 177.082Z" fill="black"/>
<path d="M173.047 152.415L171.979 155.273L171.087 161.348C170.967 162.194 171.05 163.057 171.329 163.864C171.607 164.672 172.074 165.401 172.69 165.992C174.827 168.136 177.675 172.603 177.675 172.603L181.057 162.407C181.057 162.407 177.675 161.871 178.209 159.549C178.743 157.227 178.566 152.938 178.566 152.938L173.047 152.415Z" fill="#CBCDDA"/>
<path opacity="0.05" d="M173.047 152.086L171.979 154.944L171.087 161.019C170.967 161.865 171.05 162.728 171.329 163.535C171.607 164.343 172.074 165.072 172.69 165.663C174.827 167.807 177.675 172.274 177.675 172.274L181.057 162.078C181.057 162.078 177.675 161.542 178.209 159.22C178.743 156.898 178.566 152.609 178.566 152.609L173.047 152.086Z" fill="black"/>
<path opacity="0.1" d="M188.871 234.412C186.577 238.03 183.034 235.975 182.401 235.567L182.66 234.787L187.822 233.357C188.084 233.786 188.443 234.148 188.871 234.412Z" fill="black"/>
<path d="M196.015 184.045C195.838 186.548 192.81 195.658 192.81 195.658L190.676 203.157C189.146 208.46 188.356 213.95 188.33 219.471C188.33 221.299 188.163 223.187 187.648 224.605C186.222 228.551 189.074 233.896 189.074 233.896C186.58 238.362 182.309 235.327 182.309 235.327V232.469C182.309 232.469 178.927 216.925 179.815 213.886C180.703 210.847 181.06 202.628 181.06 202.628V187.798C178.208 184.945 176.473 181.158 176.174 177.128C176.131 176.543 176.098 175.928 176.076 175.29C175.931 171.257 178.678 166.531 179.749 164.847C180.008 164.439 180.169 164.212 180.169 164.212L195.901 170.461H195.937V171.073V172.425L196.015 184.045Z" fill="#474463"/>
<path opacity="0.1" d="M190.673 128.119C190.193 128.925 189.828 129.794 189.588 130.701C188.718 131.033 187.79 131.186 186.86 131.153C185.929 131.119 185.015 130.898 184.171 130.503C183.949 129.193 183.432 127.95 182.66 126.869L190.673 128.119Z" fill="black"/>
<path d="M187.111 130.8C190.946 130.8 194.056 127.679 194.056 123.83C194.056 119.981 190.946 116.861 187.111 116.861C183.275 116.861 180.166 119.981 180.166 123.83C180.166 127.679 183.275 130.8 187.111 130.8Z" fill="#DB8B8B"/>
<path opacity="0.1" d="M196.016 172.432H195.94C188.474 173.971 179.101 166.163 179.101 166.163C179.354 165.742 179.573 165.302 179.756 164.847C180.015 164.439 180.176 164.212 180.176 164.212L195.907 170.461L195.947 171.086L196.016 172.432Z" fill="black"/>
<path d="M194.055 136.157C194.055 136.157 184.086 130.083 180.88 132.582L176.429 138.298C176.429 138.298 173.581 139.193 174.116 144.909L171.979 155.273L178.389 156.881C178.389 156.881 182.129 160.456 179.101 165.636C179.101 165.636 188.536 173.497 196.015 171.886L195.465 163.495C195.465 163.495 193.862 158.851 196.71 154.562C199.558 150.274 196.887 146.166 194.216 144.557C194.236 144.557 192.987 137.766 194.055 136.157Z" fill="#CBCDDA"/>
<path d="M194.59 172.609C194.59 172.609 198.329 173.323 200.109 176.184C200.623 177.043 201.25 177.829 201.974 178.519C202.136 178.668 202.262 178.852 202.34 179.058C202.419 179.264 202.449 179.485 202.428 179.704C202.407 179.924 202.335 180.135 202.218 180.322C202.101 180.508 201.942 180.665 201.754 180.779C200.342 181.631 198.038 182.157 195.127 179.756C190.139 175.648 194.59 172.609 194.59 172.609Z" fill="#DB8B8B"/>
<path opacity="0.1" d="M189.071 139.555C189.071 139.555 185.508 139.196 184.62 148.488C183.732 157.779 182.306 159.924 182.306 159.924C182.306 159.924 181.415 164.748 183.551 167.607C185.688 170.465 189.779 176.539 189.779 176.539C189.779 176.539 194.229 177.789 195.121 173.323L189.602 162.959C189.602 162.959 188.71 159.384 190.847 156.885C192.984 154.385 194.59 137.766 189.071 139.555Z" fill="black"/>
<path d="M189.428 139.019C189.428 139.019 185.865 138.66 184.977 147.952C184.089 157.243 182.663 159.387 182.663 159.387C182.663 159.387 181.772 164.212 183.909 167.071C186.046 169.929 190.136 176.003 190.136 176.003C190.136 176.003 194.587 177.253 195.478 172.787L189.959 162.423C189.959 162.423 189.071 158.851 191.204 156.362C193.338 153.872 194.947 137.23 189.428 139.019Z" fill="#CBCDDA"/>
<path opacity="0.1" d="M192.364 145.719C192.364 145.719 192.721 151.257 191.119 154.296C189.516 157.335 189.516 161.266 191.119 163.41" fill="black"/>
<path opacity="0.1" d="M193.256 138.93C193.256 138.93 191.83 137.499 187.736 137.322C183.643 137.144 181.86 135.891 181.86 135.891" fill="black"/>
<path opacity="0.1" d="M183.338 114.825C182.257 114.96 181.021 115.332 180.631 116.351C180.527 116.739 180.445 117.132 180.385 117.529C179.982 119.091 178.232 119.831 177.15 121.008C176.197 122.061 175.777 123.485 175.466 124.876C174.579 128.859 174.368 132.963 174.84 137.016C175.187 139.976 175.898 142.897 176.095 145.873C176.292 148.85 175.931 151.981 174.309 154.48C173.611 155.556 172.693 156.5 172.198 157.684C173.221 158.516 174.627 158.634 175.944 158.671C177.474 158.723 179.003 158.723 180.533 158.671C181.336 158.644 182.171 158.592 182.869 158.184C183.382 157.856 183.804 157.403 184.095 156.868C184.97 155.375 185.193 153.579 185.154 151.853C185.115 150.126 184.842 148.402 184.826 146.669C184.81 145.725 184.882 144.725 185.423 143.952C185.813 143.393 186.406 143.018 186.914 142.568C188.821 140.874 189.473 138.154 189.536 135.598C189.598 133.043 189.178 130.484 189.395 127.938C189.48 126.952 189.85 125.745 190.827 125.551C191.14 125.538 191.451 125.498 191.758 125.432C192.541 125.13 192.466 124.021 192.689 123.209C192.941 122.298 193.714 121.594 193.934 120.673C194.445 118.512 191.705 115.93 189.909 115.177C188.064 114.404 185.278 114.592 183.338 114.825Z" fill="black"/>
<path d="M183.174 114.467C182.093 114.601 180.857 114.973 180.467 115.993C180.363 116.38 180.281 116.773 180.221 117.17C179.818 118.732 178.068 119.472 176.987 120.65C176.033 121.702 175.613 123.126 175.302 124.518C174.416 128.5 174.204 132.604 174.676 136.657C175.023 139.617 175.735 142.538 175.931 145.515C176.128 148.491 175.767 151.622 174.145 154.122C173.447 155.197 172.529 156.141 172.034 157.325C173.057 158.157 174.463 158.276 175.781 158.312C177.31 158.365 178.839 158.365 180.369 158.312C181.172 158.286 182.008 158.233 182.706 157.825C183.218 157.497 183.64 157.045 183.931 156.51C184.806 155.016 185.029 153.221 184.99 151.494C184.951 149.767 184.679 148.044 184.662 146.311C184.646 145.367 184.718 144.367 185.259 143.594C185.649 143.035 186.242 142.66 186.75 142.209C188.657 140.515 189.31 137.795 189.372 135.24C189.434 132.684 189.015 130.125 189.231 127.58C189.316 126.593 189.687 125.386 190.663 125.192C190.976 125.179 191.288 125.14 191.594 125.074C192.377 124.771 192.302 123.663 192.525 122.85C192.777 121.939 193.551 121.235 193.77 120.314C194.281 118.154 191.542 115.572 189.746 114.819C187.887 114.046 185.101 114.23 183.174 114.467Z" fill="#472727"/>
</g>
<defs>
<linearGradient id="paint0_linear" x1="175.191" y1="180.509" x2="175.191" y2="28.8872" gradientUnits="userSpaceOnUse">
<stop stop-color="#808080" stop-opacity="0.25"/>
<stop offset="0.54" stop-color="#808080" stop-opacity="0.12"/>
<stop offset="1" stop-color="#808080" stop-opacity="0.1"/>
</linearGradient>
<linearGradient id="paint1_linear" x1="47030.9" y1="109572" x2="47030.9" y2="54800" gradientUnits="userSpaceOnUse">
<stop stop-color="#808080" stop-opacity="0.25"/>
<stop offset="0.54" stop-color="#808080" stop-opacity="0.12"/>
<stop offset="1" stop-color="#808080" stop-opacity="0.1"/>
</linearGradient>
<linearGradient id="paint2_linear" x1="53131.6" y1="48196.1" x2="53131.6" y2="27934.9" gradientUnits="userSpaceOnUse">
<stop stop-color="#808080" stop-opacity="0.25"/>
<stop offset="0.54" stop-color="#808080" stop-opacity="0.12"/>
<stop offset="1" stop-color="#808080" stop-opacity="0.1"/>
</linearGradient>
<linearGradient id="paint3_linear" x1="72327.5" y1="106160" x2="72327.5" y2="54998.5" gradientUnits="userSpaceOnUse">
<stop stop-color="#808080" stop-opacity="0.25"/>
<stop offset="0.54" stop-color="#808080" stop-opacity="0.12"/>
<stop offset="1" stop-color="#808080" stop-opacity="0.1"/>
</linearGradient>
<clipPath id="clip0">
<rect width="328" height="243" fill="white"/>
</clipPath>
</defs>
</svg>
