<svg width="34" height="29" viewBox="0 0 34 29" fill="none" xmlns="http://www.w3.org/2000/svg">
<path fill-rule="evenodd" clip-rule="evenodd" d="M21.511 3.95842C20.7876 3.95811 20.0733 4.11841 19.4194 4.42774C18.7656 4.73707 18.1885 5.18771 17.73 5.74713C17.2715 6.30656 16.9429 6.96081 16.7679 7.66266C16.5929 8.36452 16.576 9.09646 16.7182 9.80567C16.7672 10.0514 16.7572 10.3052 16.689 10.5463C16.6207 10.7874 16.4963 11.0089 16.3258 11.1925C16.1553 11.3761 15.9437 11.5167 15.7083 11.6026C15.4729 11.6885 15.2205 11.7173 14.9718 11.6867C11.5672 11.2684 8.3578 9.86893 5.73465 7.65867C5.78373 8.61183 6.11465 9.62516 6.8319 10.686L7.90698 12.2757L6.14157 13.0277L5.80115 13.1734C6.05448 13.4632 6.35848 13.7592 6.6989 14.0522C7.15397 14.4417 7.6354 14.7993 8.13973 15.1225L8.15715 15.1336H8.15873L10.6097 16.6203L8.04473 17.9028C7.91807 17.9662 7.7914 18.0232 7.66473 18.0738C8.21627 18.5321 8.82387 18.9184 9.4729 19.2233L11.6737 20.2636L9.83073 21.8532C8.82532 22.7209 7.81357 23.3685 6.50098 23.7105C8.51409 24.7828 10.7609 25.3414 13.0417 25.3366C20.6512 25.3366 26.7787 19.2645 26.7787 11.8244V11.0011L27.4517 10.5277C28.503 9.78983 29.2456 8.79233 29.7776 7.65075H26.3576L25.9269 6.74825C25.5303 5.91331 24.9051 5.20798 24.1237 4.71416C23.3423 4.22034 22.4369 3.95828 21.5126 3.95842H21.511ZM3.65098 15.5167C3.50157 15.6879 3.39073 15.8891 3.32598 16.1069C3.26123 16.3246 3.24409 16.5537 3.27573 16.7787C3.45465 18.0469 4.21307 19.1394 5.05223 19.9738C5.28023 20.2002 5.52407 20.4172 5.78057 20.6246L5.66182 20.6562C4.90023 20.8463 3.87265 20.8858 2.16106 20.7196C1.83784 20.6879 1.51268 20.7563 1.22968 20.9156C0.946669 21.075 0.719503 21.3175 0.578979 21.6103C0.438456 21.9031 0.391373 22.232 0.444114 22.5525C0.496855 22.8729 0.646868 23.1694 0.873815 23.4017C2.45837 25.0214 4.35128 26.3072 6.44085 27.1834C8.53042 28.0596 10.7743 28.5084 13.0401 28.5033C22.0857 28.5033 29.5052 21.4796 29.9248 12.6161C31.9673 10.9013 32.9886 8.57858 33.5396 6.468C33.6008 6.23375 33.6075 5.98856 33.5592 5.75131C33.5109 5.51405 33.4088 5.29104 33.2607 5.09943C33.1127 4.90782 32.9227 4.75271 32.7053 4.64603C32.488 4.53936 32.249 4.48395 32.0069 4.48408H28.2813C27.37 3.06909 26.0383 1.9752 24.4732 1.3561C22.9082 0.737006 21.1885 0.623833 19.5558 1.03249C17.9231 1.44114 16.4595 2.35107 15.3706 3.63443C14.2818 4.91779 13.6223 6.51006 13.4851 8.1875C10.5664 7.42774 7.95501 5.78211 6.01015 3.47708C5.83791 3.27344 5.61702 3.1166 5.36798 3.02113C5.11894 2.92566 4.84981 2.89465 4.58558 2.93097C4.32135 2.9673 4.07058 3.06978 3.85654 3.22892C3.6425 3.38805 3.47212 3.59868 3.36123 3.84125C2.40173 5.93442 2.21806 8.34741 3.2884 10.8016L2.9179 10.9599C2.56335 11.111 2.27607 11.3862 2.10993 11.7339C1.94378 12.0817 1.91017 12.4781 2.0154 12.8488C2.3099 13.8812 2.97173 14.7932 3.6494 15.5167H3.65098Z" fill="#146EB5"/>
</svg>
